<?xml version="1.0" encoding="utf-8"?>
<svg version="1.1" id="Layer_1" xmlns="http://www.w3.org/2000/svg" xmlns:xlink="http://www.w3.org/1999/xlink" x="0px" y="0px"
	 viewBox="0 0 122.2 93.09" style="enable-background:new 0 0 122.2 93.09;" xml:space="preserve">
<style type="text/css">
	.stmask{clip-path:url(#mask_2_);}
	.stcut{fill:none;stroke:#EC008C;stroke-width:0.7087;stroke-miterlimit:10;}
</style>
<g>
	<defs>
		<path id="mask_1_" d="M62.9,93.09c-1.2,0-1.99,0-17.67-8.25c-0.6-0.32-14.79-7.78-17.06-9.38c-0.93-0.65-1.82-1.25-2.68-1.83
			c-5.15-3.48-9.21-6.23-15.89-14.34C3.95,52.43,0,41.98,0,33.87C0,21.14,6.32,10.01,16.49,4.82c1.63-0.83,3.71-1.69,5.43-2.24
			c3.3-1.06,6.76-1.54,11.2-1.54c0.58,0,1.17,0.01,1.76,0.02c3.46,0.08,9.25,1.65,13.61,4.51c0.95,0.62,4.44,3.29,5.63,4.95
			l1.05,1.46l-0.32,1.77c-0.11,0.71-0.18,2.93,0.91,4.2c0.8,0.94,2.32,1.42,4.52,1.42l0.2,0c2.33-0.03,3.98-0.61,4.9-1.72
			c1.64-1.98,1.13-5.49,1.12-5.52l-0.42-2.36l1.8-1.58c0.66-0.58,4.64-3.27,5.61-3.79C78.54,1.69,84.19,0,88.22,0
			c3.64,0,6.09,0.28,9.38,1.07c2.27,0.55,4.44,1.31,6.46,2.25c11.36,5.38,18.13,16.55,18.13,29.89c0,8.88-2.87,17.37-8.07,23.92
			c-4.7,5.92-12.29,11.58-19.63,17.05c-1.08,0.81-2.15,1.6-3.19,2.39c-1.98,1.51-8.71,5.74-14.11,9.04
			C64.93,93.09,64.21,93.09,62.9,93.09z"/>
	</defs>
	<clipPath id="mask_2_">
		<use xlink:href="#mask_1_"  style="overflow:visible;"/>
	</clipPath>
	<g class="stmask" id="replace">
	</g>
</g>
<path class="stcut" d="M50.66,13c-0.61-0.85-3.36-3.12-4.51-3.87c-3.81-2.5-8.87-3.76-11.38-3.81C30.71,5.22,27,5.41,23.21,6.63
		c-1.52,0.49-3.4,1.27-4.79,1.98C8.92,13.45,4.25,23.69,4.25,33.87c0,6.9,3.49,16.48,8.63,22.71c7.39,8.97,11.25,10.89,17.74,15.4
		c2.52,1.78,30.95,16.85,32.28,16.85c1.17,0,22.43-13.06,25.85-15.65c7.75-5.84,17.01-12.35,22.05-18.69
		c4.76-5.99,7.15-13.7,7.15-21.28c0-10.65-4.89-20.93-15.68-26.04l0,0c-1.79-0.84-3.69-1.49-5.65-1.97
		c-3.05-0.73-5.18-0.95-8.39-0.95c-3.34,0-8.42,1.58-12.74,3.9c-0.77,0.41-4.48,2.94-4.81,3.23c0,0,2.18,12.08-10.15,12.24
		C48.72,23.79,50.66,13,50.66,13z"/>
</svg>