<svg xmlns="http://www.w3.org/2000/svg" xmlns:xlink="http://www.w3.org/1999/xlink" version="1.1" id="Layer_1" x="0px" y="0px" viewBox="0 0 182.5 117.79" style="enable-background:new 0 0 182.5 117.79;" xml:space="preserve">
<style type="text/css">
	.stmask{clip-path:url(#mask_2_);}
	.stcut{fill:none;stroke:#EC008C;stroke-width:0.7087;stroke-miterlimit:10;}
.name-text {font-size:  18px; paint-order: stroke; stroke: #000000; stroke-width: 1px; stroke-linecap: butt; stroke-linejoin: miter; font-weight: 800}</style>
<g>
	<defs>
		<path id="mask_1_" d="M34.81,117.79c-2.6,0-5.44-0.29-8.56-0.94c-11.39-2.38-20.31-11.51-23.28-23.84    c-2.89-11.99,4.59-22.65,7.72-25.75c1.5-1.48,2.81-2.43,3.87-3.2c1.71-1.23,1.71-1.25,1.84-2.24c0.02-0.14,0.04-0.26,0.06-0.37    c0-0.09-0.01-0.19-0.02-0.32c-0.01-0.13-0.01-0.3-0.01-0.49c-0.31-0.38-0.74-0.86-1.02-1.14c-4.87-2.69-14.8-11.77-15.36-23.45    c-0.14-2.85-0.16-6.7,0.95-11.16C4.1,12.43,17.34,2.69,31.18,2.69c0.03,0,0.05,0,0.07,0C48.51,2.73,57.2,14.04,60.31,22.16    l16.65-0.14l0.64,3.52c0.23,1.22,2.58,11.98,12.82,11.98c0.07,0,0.15,0,0.22,0c11.93-0.18,13.79-11.03,13.96-12.27l0.53-3.76    l3.8,0.07l13.34,0.34c0.85-3.32,2.46-8.1,5.19-11.22c8.04-9.17,18.43-12.47,30.86-9.79c10.94,2.35,19.36,11.4,22.54,24.2    c2.24,9.04-0.26,18.27-7.24,26.67c-1.52,1.83-2.92,3.01-3.94,3.88c-1.3,1.1-1.55,1.33-1.66,1.96c0.38,0.68,1.52,1.88,2.19,2.33    c5.06,3.44,16.25,13.54,10.88,32.9c-2.91,10.5-11.89,21.78-28.38,21.95c-0.16,0-0.31,0-0.47,0c-19.56,0-25.76-12.32-27.6-18.11    l-62.29,1.1c-0.7,2.68-2.14,6.3-5.08,9.58C53.04,112.08,46.38,117.79,34.81,117.79z" />
	</defs>
	<clipPath id="mask_2_">
		<use xlink:href="#mask_1_" style="overflow:visible;" />
	</clipPath>
	<g class="stmask" id="replace">
	<style type="text/css">
	.st0{fill:none;}
	.st1{fill:#CC282C;}
	.st2{fill:none;stroke:#802022;stroke-width:0.95;stroke-linecap:square;}
	.st3{fill:none;stroke:#9B2629;stroke-width:0.95;stroke-linecap:square;}
	.st4{opacity:0.75;fill:#00974C;}
	.st5{opacity:0.75;fill:#0087BF;}
	.st6{opacity:0.75;fill:#ECC041;}
	.st7{opacity:0.5;fill:#FFFFFF;}
	.st8{opacity:0.6;fill:#211316;}
	.st9{opacity:0.33;fill:#FFFFFF;}
	.st10{fill:url(#SVGID_1_);}
</style>
<pattern x="-204.83" y="-362.88" width="82.08" height="82.08" patternUnits="userSpaceOnUse" id="Cuadros_escoceses_4_Color" viewBox="5.7 -87.78 82.08 82.08" style="overflow:visible;">
	<g>
		<g>
			<rect x="5.7" y="-87.78" class="st0" width="82.08" height="82.08" />
		</g>
		<rect x="5.7" y="-87.78" class="st1" width="82.08" height="82.08" />
		<line class="st2" x1="4.89" y1="-36.48" x2="88.54" y2="-36.48" />
		<line class="st2" x1="4.89" y1="-9.12" x2="88.54" y2="-9.12" />
		<line class="st2" x1="4.89" y1="-63.84" x2="88.54" y2="-63.84" />
		<line class="st3" x1="36.48" y1="-88.54" x2="36.48" y2="-4.89" />
		<line class="st2" x1="63.84" y1="-88.54" x2="63.84" y2="-4.89" />
		<line class="st2" x1="9.12" y1="-88.54" x2="9.12" y2="-4.89" />
		<rect y="-47.88" class="st4" width="91.2" height="4.56" />
		<rect y="-20.52" class="st5" width="91.2" height="4.56" />
		<rect y="-75.24" class="st6" width="91.2" height="4.56" />
		<rect y="-57" class="st5" width="91.2" height="4.56" />
		<rect y="-29.64" class="st6" width="91.2" height="4.56" />
		<rect y="-84.36" class="st4" width="91.2" height="4.56" />
		<rect x="43.32" y="-91.2" class="st7" width="4.56" height="91.2" />
		<rect x="70.68" y="-91.2" class="st6" width="4.56" height="91.2" />
		<rect x="15.96" y="-91.2" class="st4" width="4.56" height="91.2" />
		<rect x="52.44" y="-91.2" class="st5" width="4.56" height="91.2" />
		<rect x="79.8" y="-91.2" class="st5" width="4.56" height="91.2" />
		<rect x="25.08" y="-91.2" class="st8" width="4.56" height="91.2" />
		<rect x="15.96" y="-75.24" class="st9" width="4.56" height="4.56" />
		<rect x="25.08" y="-84.36" class="st9" width="4.56" height="4.56" />
		<rect x="25.08" y="-75.24" class="st9" width="4.56" height="4.56" />
		<rect x="15.96" y="-84.36" class="st9" width="4.56" height="4.56" />
		<rect x="43.32" y="-75.24" class="st9" width="4.56" height="4.56" />
		<rect x="52.44" y="-84.36" class="st9" width="4.56" height="4.56" />
		<rect x="52.44" y="-75.24" class="st9" width="4.56" height="4.56" />
		<rect x="43.32" y="-84.36" class="st9" width="4.56" height="4.56" />
		<rect x="70.68" y="-75.24" class="st9" width="4.56" height="4.56" />
		<rect x="79.8" y="-84.36" class="st9" width="4.56" height="4.56" />
		<rect x="79.8" y="-75.24" class="st9" width="4.56" height="4.56" />
		<rect x="70.68" y="-84.36" class="st9" width="4.56" height="4.56" />
		<rect x="15.96" y="-47.88" class="st9" width="4.56" height="4.56" />
		<rect x="25.08" y="-57" class="st9" width="4.56" height="4.56" />
		<rect x="25.08" y="-47.88" class="st9" width="4.56" height="4.56" />
		<rect x="15.96" y="-57" class="st9" width="4.56" height="4.56" />
		<rect x="43.32" y="-47.88" class="st9" width="4.56" height="4.56" />
		<rect x="52.44" y="-57" class="st9" width="4.56" height="4.56" />
		<rect x="52.44" y="-47.88" class="st9" width="4.56" height="4.56" />
		<rect x="43.32" y="-57" class="st9" width="4.56" height="4.56" />
		<rect x="70.68" y="-47.88" class="st9" width="4.56" height="4.56" />
		<rect x="79.8" y="-57" class="st9" width="4.56" height="4.56" />
		<rect x="79.8" y="-47.88" class="st9" width="4.56" height="4.56" />
		<rect x="70.68" y="-57" class="st9" width="4.56" height="4.56" />
		<rect x="15.96" y="-20.52" class="st9" width="4.56" height="4.56" />
		<rect x="25.08" y="-29.64" class="st9" width="4.56" height="4.56" />
		<rect x="25.08" y="-20.52" class="st9" width="4.56" height="4.56" />
		<rect x="15.96" y="-29.64" class="st9" width="4.56" height="4.56" />
		<rect x="43.32" y="-20.52" class="st9" width="4.56" height="4.56" />
		<rect x="52.44" y="-29.64" class="st9" width="4.56" height="4.56" />
		<rect x="52.44" y="-20.52" class="st9" width="4.56" height="4.56" />
		<rect x="43.32" y="-29.64" class="st9" width="4.56" height="4.56" />
		<rect x="70.68" y="-20.52" class="st9" width="4.56" height="4.56" />
		<rect x="79.8" y="-29.64" class="st9" width="4.56" height="4.56" />
		<rect x="79.8" y="-20.52" class="st9" width="4.56" height="4.56" />
		<rect x="70.68" y="-29.64" class="st9" width="4.56" height="4.56" />
	</g>
</pattern>
<pattern id="SVGID_1_" xlink:href="#Cuadros_escoceses_4_Color" patternTransform="matrix(1 0 0 1 0 0)">
</pattern>
<rect x="0" y="0.27" class="st10" width="182.5" height="117.24" />
</g>
</g>
<path class="stcut" d="M128.09,92.36c0,0,0.02,0.71,0.05,0.88c0.32,1.9,3.47,17.49,24.51,17.28c13.16-0.13,21.54-8.74,24.33-18.83  c4.77-17.23-5.28-25.6-9.18-28.25c-1.19-0.81-4.32-3.73-4.08-5.88c0.47-4.28,3.1-4.29,6.61-8.52c4.08-4.92,8.86-12.95,6.39-22.93  c-2.78-11.2-9.98-19.06-19.3-21.07c-13.17-2.83-21.31,2.21-26.77,8.44c-3.59,4.1-4.96,12.75-4.96,12.75l-16.87-0.43  c0,0-2,15.72-18.11,15.96C76.26,41.99,73.42,26.3,73.42,26.3l-16.24,0.13c0,0-4.28-19.45-25.94-19.5  C18.87,6.9,7.66,15.76,5.14,25.92c-0.9,3.64-0.97,6.94-0.83,9.93c0.48,9.91,9.45,18.05,13.45,20.08c0.54,0.27,2.68,2.72,2.8,3.26  c0.19,0.91,0.12,1.42,0.13,1.7c0.08,1.37-0.04,1.2-0.08,1.5c-0.57,4.26-3.21,4.2-6.94,7.9C11.65,72.29,4.6,81.6,7.11,92.01  c2.7,11.22,10.68,18.73,20.02,20.68c13.96,2.91,21.45-1.98,26.97-8.16c4.4-4.92,4.67-10.94,4.67-10.94l69.67-1.23" />
<text x="50" y="50" style="stroke-width: 12px; paint-order: stroke;">Rocko</text></svg>