<?xml version="1.0" encoding="utf-8"?>
<!-- Generator: Adobe Illustrator 24.0.2, SVG Export Plug-In . SVG Version: 6.00 Build 0)  -->
<svg version="1.1" id="Layer_1" xmlns="http://www.w3.org/2000/svg" xmlns:xlink="http://www.w3.org/1999/xlink" x="0px" y="0px"
	 viewBox="0 0 182.5 117.79" style="enable-background:new 0 0 182.5 117.79;" xml:space="preserve">
<style type="text/css">
	.st0{clip-path:url(#SVGID_2_);}
	.st1{clip-path:url(#SVGID_4_);}
	.st2{fill:#658C66;}
	.st3{fill:#C1B97B;}
	.st4{fill:#306348;}
	.st5{fill:#FEFEFD;}
	.st6{fill:#A7BA71;}
	.st7{fill:#DDD28B;}
	.st8{fill:none;stroke:#EC008C;stroke-width:0.7087;stroke-miterlimit:10;}
	.st9{stroke:#5A2524;stroke-width:6.5;stroke-miterlimit:10;}
	.st10{fill:#FFFFFF;stroke:#5A2524;stroke-width:0.3;stroke-miterlimit:10;}
</style>
<g>
	<defs>
		<path id="SVGID_1_" d="M34.81,117.79c-2.6,0-5.44-0.29-8.56-0.94c-11.39-2.38-20.31-11.51-23.28-23.84
			c-2.89-11.99,4.59-22.65,7.72-25.75c1.5-1.48,2.81-2.43,3.87-3.2c1.71-1.23,1.71-1.25,1.84-2.24c0.02-0.14,0.04-0.26,0.06-0.37
			c0-0.09-0.01-0.19-0.02-0.32c-0.01-0.13-0.01-0.3-0.01-0.49c-0.31-0.38-0.74-0.86-1.02-1.14c-4.87-2.69-14.8-11.77-15.36-23.45
			c-0.14-2.85-0.16-6.7,0.95-11.16C4.1,12.43,17.34,2.69,31.18,2.69c0.03,0,0.05,0,0.07,0C48.51,2.73,57.2,14.04,60.31,22.16
			l16.65-0.14l0.64,3.52c0.23,1.22,2.58,11.98,12.82,11.98c0.07,0,0.15,0,0.22,0c11.93-0.18,13.79-11.03,13.96-12.27l0.53-3.76
			l3.8,0.07l13.34,0.34c0.85-3.32,2.46-8.1,5.19-11.22c8.04-9.17,18.43-12.47,30.86-9.79c10.94,2.35,19.36,11.4,22.54,24.2
			c2.24,9.04-0.26,18.27-7.24,26.67c-1.52,1.83-2.92,3.01-3.94,3.88c-1.3,1.1-1.55,1.33-1.66,1.96c0.38,0.68,1.52,1.88,2.19,2.33
			c5.06,3.44,16.25,13.54,10.88,32.9c-2.91,10.5-11.89,21.78-28.38,21.95c-0.16,0-0.31,0-0.47,0c-19.56,0-25.76-12.32-27.6-18.11
			l-62.29,1.1c-0.7,2.68-2.14,6.3-5.08,9.58C53.04,112.08,46.38,117.79,34.81,117.79z"/>
	</defs>
	<clipPath id="SVGID_2_">
		<use xlink:href="#SVGID_1_"  style="overflow:visible;"/>
	</clipPath>
	<g class="st0">
		<defs>
			<rect id="SVGID_3_" x="0" y="0.27" width="182.5" height="117.24"/>
		</defs>
		<clipPath id="SVGID_4_">
			<use xlink:href="#SVGID_3_"  style="overflow:visible;"/>
		</clipPath>
		<g class="st1">
			<g>
				<path class="st2" d="M-2.38,33.67c0-4.79,0-9.57,0-14.36c3.42,2.53,4.2,6.18,4.28,10.11c0.07,3.5,0.24,3.76,3.61,3.75
					c1.66-0.01,3.15,0.47,4.55,1.24c1.52,0.84,3.04,0.9,4.58,0.2c2.13-0.96,4.29-1.48,6.68-1.5c2.74-0.02,3.98-2.69,2.45-4.97
					c-0.75-1.12-1.67-2.11-2.52-3.16c-1.48-1.84-3.21-2.75-5.62-1.74c-1.41,0.59-2.78,0.48-3.68-1.02c0.81-0.32,1.63-0.62,2.06-1.48
					c1.8-3.61-1.42-10.85-4.89-11c0.12-1.76-0.5-2.9-2.45-2.93C7.25,5.43,8.44,4.93,9.8,4.65c1.08-0.22,2.18-0.44,3.06-1.2
					c0.57-0.49,1-1.13,0.87-1.86c-0.19-1.04-1.05-0.33-1.56-0.35c-4.1-0.21-6.15-3.42-4.4-7.08C8.27-6.88,8.65-7.8,8.03-8.93
					c-0.47-0.86-0.36-1.85-0.29-2.8c0.93,0,1.87,0,2.8,0c-0.77,1.92-0.99,3.56,1.32,4.76c1.37,0.71,2.34,1.95,2.94,3.54
					c1.05,2.79,4.08,3.58,6.62,1.93c0.59-0.38,1.15-0.8,1.72-1.2c1.27,0.01,2.55-0.05,3.82,0.04c1.74,0.12,3.23,0.74,3.13,2.81
					C29.97,2.4,31.1,3.3,33.13,3.56c0.78,0.1,1.56,0.29,2.32,0.53c1.45,0.46,2.85,1.3,2.56,2.95c-0.26,1.51-1.6,2.34-3.25,2.18
					c-2.05-0.2-4.08-0.56-6.14-0.71c-3.94-0.29-7.95-1.01-11.66,1.12c-1.13,0.65-2.18,1.41-2.08,2.92c0.1,1.46,1.15,2.28,2.31,2.8
					c1.52,0.69,3.16,1.03,4.85,1.1c1.29,0.05,2.86,0.22,3.36,1.42c0.98,2.36,2.4,3.73,5.02,3.7c0.09,0,0.17,0.41,0.26,0.62
					c-3.24,2.69-3.1,4.48,0.47,5.85c-2.11,1.49-3.28,3.98-2.74,5.86c0.61,2.1,2.38,3.11,5.53,3.13c0.88,0.01,1.75-0.03,2.63,0.01
					c2.7,0.14,4.78-0.84,6.23-3.19c0.44-0.72,0.99-1.47,1.96-1.63c1.2,0.4,2.4-1,3.6,0c-1.12,1.53-1.18,3.27-0.81,5.01
					c0.27,1.24,0.7,2.64,2.12,2.91c1.32,0.25,2.44-0.44,3.13-1.67c1.07,0.12,1.44-0.64,1.79-1.43c2.45-2.47,5.47-3.6,8.9-3.9
					c1.44-0.12,2.73-0.8,3.95-1.59c2.63-1.7,3.98-1.63,5.65,0.89c2.02,3.03,4.64,3.57,7.89,2.86c0.77-0.17,1.58-0.21,2.37-0.24
					c1.74-0.07,3.02,0.46,3.7,2.31c0.69,1.89,0.86,3.46-0.8,4.98c-1.33,1.22-2.79,2-4.56,2.33c-2.9,0.55-5.83,0.84-8.78,1.02
					c-2.78,0.17-5.56,0.4-8.24,1.28c-1.68,0.55-2.96,1.62-2.54,3.42c0.49,2.13,2.24,1.57,3.71,1.09c3.29-1.08,6.59-1.9,10.06-0.89
					c-0.01,2.18,1.13,2.95,3.2,2.7c0.62-0.08,1.27,0.03,1.9,0.05c-0.29,0.11-0.57,0.28-0.87,0.32c-2.42,0.3-2.89,1.32-1.4,3.46
					c0.54,0.77,0.92,1.42,0.61,2.34c-1.99-0.07-3.99,0-5.97-0.23c-3.31-0.37-5.82,1.19-6.69,4.38c-0.61,2.23,1.1,4.99,3.8,6.04
					c1.52,0.59,2.78,1.51,3.93,2.66c2.22,2.23,4.6,4.01,8.05,4.03c2.42,0.01,3.77-0.82,4.21-3.16c1.47,0.68,1.57,1.93,1.21,3.23
					c-0.35,1.26-1.46,1.66-2.62,1.68c-1.19,0.02-2.39-0.09-3.56-0.27c-2.13-0.33-3.94-0.07-5.12,2.03
					c-0.89,1.58-2.28,2.25-4.14,2.22c-1.58-0.03-3.18,0.24-4.68,0.8c-0.93,0.35-1.89,0.88-1.51,2.05c0.35,1.08,1.23,1.43,2.46,1.19
					c2.02-0.4,4.04-0.94,6.13-0.92c1.62,0.02,2.68,0.67,3.18,2.31c0.76,2.53-0.07,3.87-2.73,5.19c-2.71,1.35-5.58,0.85-8.37,1.2
					c-0.94,0.12-2.12,0.14-2.27,1.31c-0.17,1.28,0.84,2,1.92,2.43c0.58,0.23,1.25,0.31,1.88,0.3c3.02-0.07,6.06-0.06,9.07-0.35
					c3.1-0.3,5.86-1.35,7.34-4.5c1.05-2.24,3.04-3.35,5.4-3.95c3.1-0.79,5.46-2.45,6.2-5.81c0.49-2.22,2.07-3.1,4.14-3.28
					c1.34-0.11,2.7-0.05,4.06-0.06c1.67-0.02,3.34,0.03,5-0.11c0.8-0.06,1.63-0.54,1.46-1.54c-0.14-0.85-0.51-1.8-1.66-1.64
					c-2.51,0.35-1.96-1.84-2.4-3.01c-0.61-1.6,0.86-1.94,1.97-2.37c2.02-0.04,3.92,0.57,5.82,1.15c3.1,0.94,6.17,1.47,9.32,0.12
					c1.2-0.51,2.5-0.31,3.71,0.27c0.92,0.44,1.77,1.11,2.86,1.11c-1.8,2.31-4.02,3.7-7.1,3.75c-1.8,0.02-3.63,0.39-5.37,0.87
					c-2.11,0.59-3.9,3.19-3.83,5.27c0.08,2.45,1.94,2.94,3.85,3.51c4.59,1.37,9.21,2.42,14.04,2.28c1.53-0.04,2.75,0.39,3.36,2.06
					c0.64,1.76,1.77,2.51,3.9,2c2.43-0.59,5.06-0.33,6.91,1.55c1.93,1.94,0.71,4.16-0.16,6.22c-0.12,0.29-0.23,0.6-0.28,0.91
					c-0.54,2.96,0.96,4.56,3.87,3.85c2.61-0.64,4.94-0.37,7.27,0.94c2.06,1.16,4.29,1.08,6.04-0.44c1.61-1.4,3.24-1.46,5.09-1.12
					c2,0.37,3.82-0.81,4-2.6c0.23-2.27-1.09-3.74-3.42-3.82c-0.84-0.03-1.79,0.26-2.41-0.63c0.13-2.65,1.12-3.2,3.39-1.92
					c4.79,2.71,5.73,2.43,8.95-1.93c0.86-1.17,1.66-2.52,2.99-3.31c1.78,2.08,4.37,2,6.74,2.5c0,1.3-0.01,2.59-0.01,3.89
					c-2.01,3.1-4.15,5.73-8.44,5.89c-2.19,0.08-3.31,2.54-2.97,4.95c0.3,2.12,1.62,2.6,3.6,2.33c0.8-0.11,1.84,0.35,1.91,1.43
					c0.07,0.96-0.89,0.92-1.52,1.18c-1.23,0.51-2.42,1.07-3.8,1.16c-2.14,0.14-3.86,1.1-5.38,2.71c-1.54,1.64-3.45,2.7-5.92,2.38
					c-2.44-0.32-4.77,0.23-6.85,1.57c-0.84,0.54-1.99,1.19-1.5,2.41c0.42,1.03,0.97,2.02,2.45,2.32c1.86,0.37,3.85,0.03,5.6,0.96
					c-1.03,0.77-2.05,1.53-3.08,2.3c-2.65,0.38-4.9,0.01-6.3-2.72c-0.47-0.93-1.59-1.47-2.75-1.6c-0.55-1.83-2.61-1.57-3.69-2.67
					c-0.2-0.5-0.39-1.02-0.62-1.51c-0.44-0.94-0.99-1.95-2.13-1.91c-1.09,0.04-1.71,0.95-2.08,1.96c-0.11,0.28-0.25,0.55-0.37,0.83
					c-0.74-1-1.59-0.25-2.38-0.13c-2.01,0.31-3.96,0.44-5.75-0.81c-2.32-1.61-4.92-2.17-7.71-2.02c-1.53,0.08-3.03-0.11-4.4-0.84
					c-1.1-0.58-2.09-1.32-1.9-2.74c0.18-1.44,1.37-1.93,2.57-2.09c1.25-0.17,2.54-0.09,3.81-0.08c1.05,0.01,2.14,0.04,3.01-0.55
					c1.1-0.75,2.15-1.86,0.7-3.04c-1.47-1.2-0.32-1.57,0.43-1.99c1.53-0.86,3.28-0.43,4.92-0.68c1.21-0.19,3.03-0.24,3.04-1.71
					c0.01-1.69-1.85-1.29-3.03-1.48c-0.47-0.08-0.96-0.08-1.43-0.03c-1.85,0.18-2.34-0.85-1.84-2.34c0.66-1.93-0.22-2.17-1.8-2.07
					c-2.54,0.16-4.67-0.56-6.75-2.25c-2.94-2.39-6.01-4.79-9.92-5.53c-4.97-0.94-9.98-1.7-14.72,0.76c-1.9,0.99-3.58,2.24-5.86,2.46
					c-0.99,0.1-2.42,0.77-2.17,2.3c0.22,1.37,1.42,1.58,2.6,1.54c2.85-0.1,5.52-0.99,7.9-2.44c1.15-0.7,2.26-1.33,3.18-0.4
					c0.86,0.88,2.28,1.77,1.86,3.37c-0.37,1.44-1.61,1.85-2.96,1.97c-0.48,0.04-0.96,0.06-1.43,0.14c-1.7,0.27-2.14,1.24-1.1,2.64
					c1.09,1.45,2.66,2.24,4.37,2.75c1.91,0.56,3.85,1.03,5.71,1.73c2.22,0.83,3.6,3.25,2.92,4.78c-0.75,1.68-4.58,3.12-6.26,2.32
					c-3.29-1.58-6.55-3.19-9.68-5.07c-1.95-1.17-3.95-2.5-6.1-3.06c-6.4-1.65-13.33,2.01-15.53,8.87c-2-0.01-4-0.03-6-0.04
					c-3.17-1.78-4.46-1.78-6.4-0.01c-2.14,0-4.29,0.02-6.43,0.01c-2.12-0.02-3.91,0.45-5.62,1.98c-1.74,1.55-3.69,3.56-6.03,3.62
					c-4.96,0.13-9.94-0.19-13.45-4.73c-3.24-4.2-7.46-5.27-12.43-3.6c-1.81,0.61-3.69,0.87-5.62,0.84c-1.01-0.01-2.09-0.2-2.96,0.58
					c-2.26,0.03-4.54-0.28-4.89-2.97c-0.35-2.66-1.69-3.25-4.01-2.92c-0.62,0.09-1.29,0.03-1.9-0.12c-1.35-0.32-2.18-1.23-2.62-2.54
					c-0.46-1.36,0.51-2.07,1.32-2.81c0.52-0.48,1.2-0.81,1.69-1.31c1.6-1.61,1.59-4.81-0.03-5.05c-1.84-0.26-3.83-0.67-5.45,0.85
					c0-0.93,0.01-1.86,0.01-2.79c0.85-0.22,2.21,0.48,2.44-0.66c0.18-0.89-1.04-1.44-1.85-1.93c-0.2-0.12-0.41-0.24-0.61-0.35
					c0-2.24,0-4.49,0-6.73c1.86-0.27,3.4,0.43,4.93,1.41c1.19,0.76,2.2,2.16,3.63,2.14c4.07-0.05,7.91,1.22,11.88,1.73
					c0.19,0.17,0.37,0.34,0.56,0.51l-0.04-0.02c0.58,1.69-0.35,2.6-1.75,3.11c-2.96,1.07-5.94,1.93-8.64-0.89
					c-0.48,1.16-0.85,1.94-1.14,2.76c-0.48,1.33-2.44,2.58-1.54,3.79c0.85,1.15,2.95,0.81,4.53,0.9c0.24,0.01,0.48,0.05,0.72,0.03
					c2.04-0.14,3.94-0.28,5.67,1.4c0.84,0.81,2.84,1.75,3.27-0.67c0.38-2.14,1.48-2.02,3.01-1.55c1.55,0.47,3.03,1.18,4.07,2.38
					c0.94,1.08,2.06,1.69,3.31,2.19c0.02,0.8-0.74,0.96-1.15,1.41c-1.01,1.12-1.97,2.45-0.53,3.71c1.28,1.13,2.5,0.27,3.4-0.91
					c0.78-1.03,1.77-1.57,3.09-1.37c2.38,0.98,4.65,2.28,6.26,4.23c2.9,3.53,10.18,3.36,14.01-0.01c3.71-3.27,8.53-3.6,11.24,0.62
					c1.11,1.72,4.05,1.91,5.62,0.72c1.96-1.48,2.26-3.48,1.14-5.64c-1.71-3.29-7.71-6.23-11.78-3.61c-0.94,0.61-2,1.07-3.17,0.69
					c-1.72-0.56-3.43-1.17-5.14-1.76c-0.24-0.2-0.48-0.4-0.71-0.61c-0.57-0.51-1.56-0.85-1.35-1.74c0.2-0.83,1.17-1.05,1.94-1.16
					c1.59-0.22,2.93-1.09,4.4-1.6c1.41-0.49,2.41-1.4,2.48-3.12c0.07-1.83-0.53-3.07-2.35-3.59c0.06-0.2,0.11-0.39,0.17-0.59
					c0.28-0.55,0.26-1.06-0.23-1.48c-1.07-1.52-3.44-2.28-2.87-4.79l-0.03,0.02c0.4,0.06,0.45-0.25,0.55-0.51
					c0.71-0.4,1-1.11,1.35-1.78c1.48-1.25,2.83-2.44,5.15-1.82c1.03,0.27,2.97-0.18,3.11-1.79c0.15-1.68-1.43-2.08-2.83-2.25
					c-0.78-0.1-1.59-0.13-2.38-0.06c-2.97,0.24-5.63-0.68-8.2-2.03c-3.74-1.98-3.8-2.85-0.26-5.18c1.78-1.17,3.37-2.46,4.17-4.59
					c-1.12-0.37-2.24,0.16-3.13-0.56c0.96-0.02,1.92-0.11,2.87-0.04c1.31,0.08,2.22-0.57,2.69-1.62c0.49-1.1,0.56-2.36-0.28-3.4
					c-0.85-1.06-1.78-2.18-3.15-2.47c-3.71-0.78-5.86-3.06-7.25-6.5c-0.8-1.97-2.34-3.56-4.66-4.08c-1.66-0.37-3.05-1.24-4.28-2.48
					c-3.55-3.6-6.45-3.88-10.52-0.77c-2.1,1.6-4.28,2.44-6.85,2.17c-2.68-0.28-4.91,1.05-7.22,1.98c-1.67,0.67-2.07,2.27-1.98,4
					c0.09,1.71,1.43,1.87,2.62,2.32c1.17,0.44,2.36,0.26,3.55,0.3c-0.8,2.03-2.15,3.31-4.28,4.14c-2.23,0.86-4.6,0.18-6.76,1.13
					c-1.56,0.69-3.25,1.24-3.34,3.28c-0.09,2.09,0.03,4.2,0.06,6.3c-1.96-0.4-3.28,0.3-4.03,2.2c-0.42,1.06-1.07,2.04-1.62,3.05
					c0-2.22,0-4.44-0.01-6.67c4.25-1.48,4.68-5.23,5.19-8.87c0.56-4.05,1.33-7.84,4.51-10.95c2.19-2.13,2.38-4.1-0.05-6.39
					c-1.34-1.26-2.95-1.25-3.72,0.45c-0.55,1.23-0.92,2.54-1.37,3.81c-1.93-0.39-3.65,0-5.12,1.36c0-1.76,0-3.51,0-5.27
					c2.61-0.02,4.34-1.48,4.29-3.62C1.86,34.95,0.16,33.73-2.38,33.67z"/>
				<path class="st3" d="M179.04-13.24c3.19,0,6.38,0,9.57,0c-0.02,3.84-0.04,7.69-0.07,11.53c-2.72,1.04-2.97,1.76-1.53,4.34
					c1.65,2.95,0.94,4.89-2.18,6.03c-1.97-1.09-4.13-1.65-6.32-2.04c-3.89-0.68-6.1,1.15-5.85,5.03c0.37,5.78,1.74,11.31,4.47,16.47
					c0.56,1.07,2.07,2.37,1.15,3.35c-0.9,0.96-2.73,0.45-4.13,0.13c-0.59-0.14-1.13-0.42-1.65-0.85c-1.65-1.36-3.4-2.61-5.15-3.86
					c-1.15-0.82-2.55-1.44-3.8-0.61c-3.22,2.16-6.3,1.44-9.52,0.07c-1.31-0.56-2.84-1.3-4.23,0.03c-3.03-0.56-4.9,1.61-7.1,3.01
					c-7.41-0.18-11.38,2.8-12.61,9.47c-2.6-1.42-5.08-1-7.65,0.25c-1.34,0.65-2.99,0.67-3.54-1.12c-0.57-1.86,0.9-2.15,2.32-2.42
					c2.75-0.54,3.08-1.51,1.39-3.73c1.74-0.46,3.14-1.23,2.9-3.39c0.39,0.05,0.79,0.04,1.15,0.17c3.56,1.27,3.91,1.19,6.04-1.79
					c1.11-1.54,2.58-1.96,4.37-1.61c1.62,0.31,3.25,0.64,4.89,0.86c2.13,0.28,3.06-0.85,3.1-2.87c0.01-0.63,0.01-1.26,0.01-1.9
					c1.92-0.28,3.81-0.13,5.71,0.2c1.66,0.29,3.34,0.39,5,0.18c2.62-0.33,4.44-2.49,4.13-4.96c-0.34-2.68-2.55-2.13-4.28-2.27
					c-1.82-0.14-3.68,0.12-5.45-0.48c-0.62-0.21-1.17-0.57-1.28-1.28c-0.12-0.75,0.31-1.27,0.94-1.49c1.4-0.5,2.55-1.51,4.15-1.62
					c2.3-0.15,4.59-0.5,6.88-0.83c2.07-0.3,3.87-1.26,3.72-3.59c-0.27-4.22,1.42-7.19,5.01-9.22c1.82-0.03,3.64-0.06,5.46-0.09
					c2.92-0.06,5.87,0.37,8.76-0.27c1.03-0.22,2.29-0.35,2.46-1.82c0.16-1.43-0.95-1.85-1.91-2.41c-2.17-1.26-4.76-1.85-6.36-4.02
					C178.4-12.79,178.89-12.72,179.04-13.24z"/>
				<path class="st4" d="M11.95,22.22c0.9,1.51,2.27,1.61,3.68,1.02c2.41-1.01,4.14-0.1,5.62,1.74c0.84,1.05,1.77,2.05,2.52,3.16
					c1.53,2.29,0.29,4.96-2.45,4.97c-2.38,0.02-4.55,0.54-6.68,1.5c-1.54,0.7-3.06,0.63-4.58-0.2c-1.4-0.77-2.89-1.24-4.55-1.24
					c-3.36,0.01-3.53-0.24-3.61-3.75c-0.08-3.93-0.87-7.59-4.28-10.11c0-6.54,0-13.08,0-19.63C0.42-0.6,1.44,1.5,2.43,3.44
					C3.36,5.26,4.36,6.8,6.66,6.81c1.95,0.03,2.57,1.18,2.45,2.93c-0.36,0.79-0.74,1.57-1.06,2.37c-0.41,1.01-1.69,1.99-1.19,2.98
					C8.17,17.71,8.82,20.88,11.95,22.22z"/>
				<path class="st5" d="M188.55-1.71c0.02-3.84,0.04-7.69,0.07-11.53c0.3,0.2,1.02-0.47,0.96,0.48c-0.03,0.56-0.01,1.12-0.01,1.68
					c0,68.13-0.01,136.27,0.05,204.4c0,1.79-0.4,2.2-2.2,2.2c-62.55-0.05-125.1-0.05-187.65,0c-1.79,0-2.2-0.4-2.2-2.2
					c0.06-42.52,0.05-85.05,0.05-127.57c0.18,0.16,0.37,0.32,0.55,0.47c0,2.22,0,4.44,0.01,6.67c0,4.16-0.01,8.32-0.01,12.47
					c0,2.24,0,4.49,0,6.73c0.01,0.98,0.01,1.96,0.02,2.95c0,0.93-0.01,1.86-0.01,2.79c0,10.37,0,20.74-0.01,31.12
					c0.01,2.1,0.01,4.2,0.02,6.3c-0.44,2.38,0.03,4.57,1.32,6.6c-1.13,0.03-1.46,0.65-1.43,1.7c0.07,2.45,0.06,4.9,0.09,7.35
					c0,1.63,0,3.27,0,4.9c-0.08,0.14-0.08,0.29,0,0.43c0,2.24-0.01,4.48-0.01,6.71c0,1.27,0,2.53,0.01,3.8c0,3.84,0,7.67,0.01,11.51
					c0,2.55,0,5.09,0,7.64c-0.02,1.96-0.03,3.92-0.05,5.88c0.33,1.05-0.95,2.59,0.96,3.16c2.7,0,5.4-0.01,8.11-0.01
					c1.44,0.34,2.88-0.69,4.31,0c13.86,0,27.72,0,41.59,0c2.09,0,4.18,0.01,6.26,0.01c4.63-0.09,9.28,0.56,13.88-0.48
					c7.52,0,15.05-0.01,22.57-0.01c7.82,0,15.63,0,23.45,0c1.07,0,2.14,0,3.22,0c4.21,0,8.41,0,12.62-0.01c3.8,0,7.59,0,11.39,0
					c0.97,0,1.93,0.01,2.9,0.01c1.42-0.52,2.89-0.4,4.36-0.41c6.32-0.03,12.64-0.06,18.96-0.08c1.65,0.01,3.29,0.03,4.94,0.04
					c3.15,0.01,6.3-0.04,9.45,0.06c1.49,0.05,2.16-0.34,2.04-1.95c-0.13-1.88-0.05-3.78-0.06-5.67c-0.01-0.5-0.02-1-0.03-1.5
					c0-2.86-0.01-5.72-0.01-8.58c0.01-3.52,0.01-7.05,0.02-10.57c0-1.43,0-2.85,0-4.28c-0.01-2.19-0.02-4.38-0.02-6.57
					c0.01-1.79,0.02-3.59,0.03-5.38c-0.01-2.55-0.02-5.1-0.03-7.65c0-0.77,0-1.55,0-2.32c-0.01-1.66-0.01-3.33-0.02-4.99
					c0.01-2.19,0.03-4.38,0.04-6.57c-0.16-10.07-0.33-20.13-0.49-30.2c0-1.3,0.01-2.59,0.01-3.89c0-1.09,0-2.17,0-3.26
					c0-2.09-0.01-4.18-0.01-6.27c0-2.38,0-4.76,0-7.14c0-3.99-0.01-7.98-0.01-11.97c0-5.47,0-10.95,0-16.42c0-1.24,0-2.47,0-3.71
					c0-1.92,0-3.84,0.01-5.76c0-2.23,0-4.46,0-6.69c0-5.11,0-10.22,0-15.33C188.55,11.02,188.55,4.66,188.55-1.71z"/>
				<path class="st3" d="M6.66,6.81c-2.3-0.02-3.3-1.55-4.23-3.37C1.44,1.5,0.42-0.6-2.38-0.31c0-3.83,0-7.66,0-11.49
					c0.32,0.02,0.63,0.04,0.95,0.06c0.17,2.43,0.95,3.11,3.64,3.21c2.98,0.11,4.1-0.68,4.52-3.21c0.34,0.01,0.67,0.01,1.01,0.02
					c-0.07,0.95-0.18,1.94,0.29,2.8C8.65-7.8,8.27-6.88,7.77-5.84c-1.75,3.67,0.3,6.88,4.4,7.08c0.51,0.03,1.36-0.69,1.56,0.35
					c0.14,0.73-0.3,1.36-0.87,1.86c-0.88,0.76-1.98,0.97-3.06,1.2C8.44,4.93,7.25,5.43,6.66,6.81z"/>
				<path class="st5" d="M7.74-11.73c-0.34-0.01-0.67-0.01-1.01-0.02c-2.72,0-5.44,0-8.16,0c-0.32-0.02-0.63-0.04-0.95-0.06
					c0.02-0.79-0.31-1.55,1.2-1.5c4.3,0.17,8.61,0.06,12.92,0.06c55.77,0,111.54,0,167.31,0c-0.15,0.52-0.64,0.45-1.02,0.58
					c-1.87-0.01-3.75-0.03-5.62-0.04c-11.99,0-23.98,0.01-35.97,0.01c-0.96,0-1.91,0.01-2.87,0.01c-3.69,0-7.39,0-11.08,0
					c-1.26,0-2.52-0.01-3.77-0.01c-8.14-0.25-16.27-0.03-24.39,0.47c-7.71,0.01-15.41,0.02-23.12,0.03c-4.41,0-8.82,0-13.22,0
					c-1.93,0-3.86-0.01-5.8-0.01c-13.89-0.31-27.77,0.04-41.64,0.48C9.6-11.73,8.67-11.73,7.74-11.73z"/>
				<path class="st6" d="M-1.83,66.22c-0.18-0.16-0.37-0.32-0.55-0.47c0-5.27,0-10.53,0-15.8c0.83-0.16,1.66-0.39,2.5-0.46
					c4.31-0.38,4.98-1.7,2.61-5.21c0.45-1.27,0.82-2.59,1.37-3.81c0.77-1.7,2.38-1.71,3.72-0.45c2.43,2.29,2.24,4.26,0.05,6.39
					c-3.19,3.11-3.95,6.89-4.51,10.95C2.85,60.99,2.42,64.74-1.83,66.22z"/>
				<path class="st4" d="M2.73,44.28c2.37,3.51,1.7,4.82-2.61,5.21c-0.84,0.07-1.67,0.3-2.5,0.46c0-1.44,0-2.87,0-4.31
					C-0.92,44.28,0.81,43.9,2.73,44.28z"/>
				<path class="st4" d="M-2.38,33.67c2.54,0.06,4.24,1.28,4.29,3.08c0.05,2.14-1.68,3.6-4.29,3.62
					C-2.38,38.14-2.38,35.91-2.38,33.67z"/>
				<path class="st6" d="M145.08,21.31c0,0.63,0,1.26-0.02,1.9c-0.04,2.03-0.97,3.16-3.1,2.87c-1.64-0.22-3.26-0.55-4.89-0.86
					c-1.79-0.35-3.27,0.07-4.37,1.61c-2.13,2.98-2.48,3.06-6.04,1.79c-0.36-0.13-0.77-0.12-1.15-0.17
					c-1.45-1.29-4.14-1.46-4.84-0.11c-0.89,1.71,0.84,2.41,1.74,3.38c0.05,0.05,0.14,0.08,0.21,0.12c1.69,2.22,1.35,3.19-1.39,3.73
					c-1.43,0.28-2.9,0.56-2.32,2.42c0.55,1.79,2.2,1.78,3.54,1.12c2.56-1.25,5.05-1.67,7.65-0.25c1.88,1.78,3.68,0.85,5.48-0.15
					c1.11,1.77,2.14,3.71,4.73,1.98c0.08-0.06,0.29,0.06,0.43,0.1c-0.16,0.61-0.42,1.21-0.45,1.83c-0.2,3.46-0.22,3.53-3.85,3.5
					c-1.5-0.01-2.69,0.26-3.81,1.47c-1.54,1.67-3.49,2.67-5.96,2.45c-1.52-0.14-3.04,0.23-4.09,1.53c-0.62,0.77-0.75,1.55,0.52,1.65
					c3.4,0.28,6.72,1.11,10.18,1.08c7.16-0.06,14.29-0.86,21.45-0.6c0.95,0.04,1.94-0.02,2.85,0.2c2.18,0.51,2.73,2.18,1.38,3.95
					c-0.96,1.25-2.32,1.87-3.7,2.54c-3.12,1.52-6.44,1.53-9.79,1.55c-2.86,0.01-4.74,1.68-4.66,4.29c0.07,2.28-0.91,3.35-3,3.86
					c-1.63,0.4-2.43,1.3-0.94,2.84c-1.83,1.61-4.14,0.49-6.15,1.09c-1.1,0-1.94-0.67-2.86-1.11c-1.21-0.58-2.51-0.78-3.71-0.27
					c-3.15,1.34-6.22,0.82-9.32-0.12c-1.9-0.58-3.8-1.18-5.82-1.15c-1.95-0.92-3.77-0.37-5.4,0.7c-2.67,1.75-5.37,1.73-8.17,0.48
					c-2.68-1.19-5.36-2.37-8.01-3.63c-0.96-0.46-1.76-0.23-2.39,0.4c-0.69,0.68,0.05,1.31,0.37,1.9c0.38,0.69,0.84,1.33,1.26,2
					c-0.44,2.35-1.79,3.18-4.21,3.16c-3.44-0.02-5.82-1.8-8.05-4.03c-1.14-1.15-2.41-2.07-3.93-2.66c-2.7-1.05-4.42-3.81-3.8-6.04
					c0.88-3.19,3.39-4.75,6.69-4.38c1.97,0.22,3.98,0.16,5.97,0.23c3.87-0.31,4.69-1.68,3.04-5.07c-0.17-0.36-0.38-0.7-0.57-1.05
					c1.58-0.23,2.98-1.19,4.64-1.09c2.03,0.19,4.06,1.09,6.09-0.01c3.46,1.12,6.45,0.46,9.2-2.01c2.23-2,4.5-4.11,7.11-5.48
					c4.32-2.27,4.44-2.03,2.73-6.33c1.96-2.54,0.31-4.9-0.59-7.13c-0.78-1.93-2.64-2.62-4.77-2.42c-1.82,0.17-3.66,0.08-4.51-1.87
					c-1.06-2.43-3.05-3.5-5.36-4.32c-4.87-1.74-4.8-5.63-2.17-9.17c4.41-5.94,13.59-6.1,19.31,0c4.84,5.16,10.69,6.41,17.29,5.98
					c3.25-0.21,6.39-1.27,9.69-1.22C142.73,18.34,144.35,19.08,145.08,21.31z"/>
				<path class="st7" d="M79.01,116.04c2.2-6.86,9.13-10.52,15.53-8.87c2.16,0.56,4.15,1.89,6.1,3.06c3.13,1.88,6.4,3.49,9.68,5.07
					c1.68,0.81,5.51-0.64,6.26-2.32c0.68-1.53-0.7-3.95-2.92-4.78c-1.86-0.69-3.8-1.16-5.71-1.73c-1.72-0.51-3.28-1.3-4.37-2.75
					c-1.04-1.39-0.6-2.37,1.1-2.64c0.47-0.07,0.95-0.1,1.43-0.14c1.35-0.12,2.59-0.53,2.96-1.97c0.41-1.6-1-2.49-1.86-3.37
					c-0.92-0.93-2.03-0.3-3.18,0.4c-2.39,1.44-5.05,2.34-7.9,2.44c-1.18,0.04-2.38-0.17-2.6-1.54c-0.25-1.53,1.18-2.2,2.17-2.3
					c2.28-0.22,3.96-1.47,5.86-2.46c4.74-2.46,9.75-1.7,14.72-0.76c3.91,0.74,6.98,3.14,9.92,5.53c2.08,1.69,4.21,2.41,6.75,2.25
					c1.58-0.1,2.46,0.14,1.8,2.07c-0.51,1.49-0.02,2.52,1.84,2.34c0.47-0.05,0.96-0.05,1.43,0.03c1.18,0.19,3.05-0.21,3.03,1.48
					c-0.01,1.47-1.83,1.52-3.04,1.71c-1.64,0.26-3.39-0.18-4.92,0.68c-0.75,0.42-1.89,0.79-0.43,1.99c1.45,1.18,0.39,2.29-0.7,3.04
					c-0.87,0.6-1.96,0.56-3.01,0.55c-1.27-0.01-2.56-0.1-3.81,0.08c-1.2,0.16-2.39,0.65-2.57,2.09c-0.18,1.42,0.8,2.16,1.9,2.74
					c1.38,0.73,2.87,0.93,4.4,0.84c2.79-0.15,5.39,0.41,7.71,2.02c1.79,1.24,3.74,1.12,5.75,0.81c0.79-0.12,1.64-0.87,2.38,0.13
					c-0.56,2.45-1.57,4.64-3.57,6.28c-0.42,0.34-0.73,0.85-1,1.32c-0.93,1.59-0.7,4.04-2.76,4.72c-1.86,0.61-3.68-0.73-5.55-1
					c-0.94-0.14-1.88-0.25-2.83-0.33c-0.61-0.05-1.09,0.2-1.27,0.84c-2.07,0.33-4.16,0.31-6.13-0.41
					c-8.51-3.08-17.54-2.48-26.31-3.76c-0.68,0.02-0.97-0.51-1.32-0.96c-2.43-3.24-5.46-5.65-9.48-6.58
					C81.35,121.16,79.82,118.95,79.01,116.04z"/>
				<path class="st7" d="M52.61,63.39c0.89,0.72,2.01,0.19,3.13,0.56c-0.8,2.13-2.39,3.42-4.17,4.59c-3.55,2.34-3.48,3.2,0.26,5.18
					c2.56,1.36,5.23,2.27,8.2,2.03c0.79-0.06,1.59-0.03,2.38,0.06c1.39,0.17,2.97,0.57,2.83,2.25c-0.14,1.61-2.09,2.06-3.11,1.79
					c-2.32-0.61-3.67,0.57-5.15,1.82c0.23-1.6-0.85-2.77-2.04-2.54c-1.2,0.22-2.55,0.17-3.67,0.78c-1.97,1.07-3.46,0.54-4.8-1.12
					c-1.16-1.44-2.45-1.62-3.75-0.08c-1.03,1.21-2.2,2.32-3.14,3.59c-1.76,2.38-4.01,3.79-6.97,3.99
					c-3.78,0.25-7.48-0.39-11.05-1.52c-3.76-1.19-4.52-3.57-2.49-6.92c0.25-0.41,0.42-0.86,0.65-1.27c0.66-1.17,0.12-1.81-0.99-2.1
					c-0.53-0.14-1.12-0.25-1.65-0.16c-3.4,0.55-5.91-0.84-8.29-3.2c-1.4-1.39-2.66-3.26-4.96-3.48c-0.03-2.1-0.15-4.2-0.06-6.3
					c0.09-2.04,1.77-2.59,3.34-3.28c2.16-0.95,4.53-0.27,6.76-1.13c2.13-0.83,3.48-2.11,4.28-4.14c1.95-0.19,3.94,0.18,5.87-0.53
					c0.72-0.26,1.64-0.15,2.27,0.39c2.26,1.93,4.91,1.86,7.66,1.74c4.96-0.21,9.03,1.62,12.4,5.34
					C47.97,61.54,50.09,62.91,52.61,63.39z"/>
				<path class="st6" d="M52.18-12.21c1.93,0,3.86,0.01,5.8,0.01c-1.64,3.04-1.31,4.12,1.9,5.36c2.14,0.82,4.29,1.58,6.27,2.76
					c0.14,0.14,0.29,0.28,0.43,0.42L66.56-3.7c1.02,3.04,0.59,4.37-2.2,6.09c-1,0.62-1.9,1.14-1.6,2.51
					c0.14,0.36,0.18,0.81,0.43,1.08c1.44,1.59,2.75,3.35,1.71,5.54c-1.07,2.24-3.49,2.18-5.59,2.51c-0.47,0.07-0.95,0.05-1.43,0.05
					c-2.78,0-5.56-0.07-8.33,0.01c-3.74,0.11-7.36,2.51-8.13,6.12c-0.87,4.09-2.96,6.43-7.02,7.09c-0.78-1.58-2.2-2.81-2.47-4.69
					c-0.08-0.52-0.75-0.44-1.22-0.41c-0.09-0.22-0.18-0.62-0.26-0.62c-2.62,0.03-4.04-1.35-5.02-3.7c-0.5-1.2-2.07-1.37-3.36-1.42
					c-1.69-0.07-3.33-0.41-4.85-1.1c-1.16-0.52-2.21-1.34-2.31-2.8c-0.1-1.52,0.95-2.28,2.08-2.92c3.71-2.13,7.72-1.41,11.66-1.12
					c2.05,0.15,4.09,0.51,6.14,0.71c1.65,0.16,2.99-0.67,3.25-2.18c0.29-1.65-1.11-2.5-2.56-2.95c-0.76-0.24-1.54-0.43-2.32-0.53
					C31.1,3.3,29.97,2.4,30.09,0.14c0.11-2.07-1.39-2.69-3.13-2.81c-1.27-0.09-2.54-0.03-3.81-0.04c3.53-2.98,7.01-5.97,12.12-5.72
					c2.94,0.14,5.89,0.06,8.83-0.06C47.27-8.62,50.15-9.53,52.18-12.21z"/>
				<path class="st4" d="M130.73,74.02c2.01-0.6,4.32,0.53,6.15-1.09c4.83-3.75,10.29-5.21,16.32-4.24c2.35,0.38,4.43,0.1,6.66-0.75
					c1.78-0.68,3.93-0.92,5.33,1.17c0.13,1.29,1.58,1.91,1.71,3.2c-1.4,0.68-2.8,1.25-4.07,2.01c-3.15,1.89-6.4,3.02-10.1,1.87
					c-3.57-1.04-7.12-1.68-10.55,0.49c-0.7,0.58-0.46,1.21-0.18,1.92c0.66,1.71,2.05,2.54,3.62,3.18c1.8,0.73,3.65,1.63,4.28,3.55
					c1.29,3.92,5.33,5.55,7.16,8.99c0.25,0.46,1.1,0.93,1.61,0.88c3.19-0.33,5.65,0.72,7.38,3.45c0.04,0.06,0.3-0.03,0.46-0.04
					c0.62,0.9,1.57,0.61,2.41,0.63c2.33,0.08,3.65,1.55,3.42,3.82c-0.18,1.79-2,2.97-4,2.6c-1.85-0.34-3.48-0.28-5.09,1.12
					c-1.75,1.52-3.98,1.6-6.04,0.44c-2.32-1.31-4.66-1.58-7.27-0.94c-2.91,0.72-4.41-0.89-3.87-3.85c0.06-0.31,0.16-0.61,0.28-0.91
					c0.86-2.07,2.08-4.28,0.16-6.22c-1.86-1.87-4.49-2.13-6.91-1.55c-2.13,0.51-3.26-0.24-3.9-2c-0.61-1.67-1.82-2.11-3.36-2.06
					c-4.83,0.14-9.45-0.91-14.04-2.28c-1.91-0.57-3.76-1.07-3.85-3.51c-0.07-2.08,1.73-4.68,3.83-5.27
					c1.74-0.49,3.57-0.85,5.37-0.87C126.71,77.72,128.92,76.33,130.73,74.02z"/>
				<path class="st6" d="M3.83,67.63c2.3,0.21,3.57,2.09,4.96,3.48c2.38,2.36,4.88,3.75,8.29,3.2c0.53-0.09,1.12,0.02,1.65,0.16
					c1.12,0.3,1.65,0.93,0.99,2.1c-0.23,0.42-0.4,0.87-0.65,1.27c-2.03,3.35-1.27,5.73,2.49,6.92c3.57,1.13,7.27,1.78,11.05,1.52
					c2.96-0.2,5.21-1.61,6.97-3.99c0.94-1.27,2.11-2.38,3.14-3.59c1.3-1.54,2.59-1.36,3.75,0.08c1.34,1.66,2.83,2.19,4.8,1.12
					c1.12-0.61,2.47-0.55,3.67-0.78c1.19-0.22,2.26,0.95,2.04,2.54c-0.36,0.66-0.65,1.38-1.35,1.78c-0.18,0.17-0.37,0.34-0.55,0.51
					l0.03-0.02c-2.11,0.19-3.04,1.79-4.03,3.33c-1.39,2.15-1.03,3,1.53,3.56c1.82,0.4,3.62-0.51,5.43-0.03
					c1.82,0.52,2.43,1.76,2.35,3.59c-0.07,1.72-1.07,2.63-2.48,3.12c-1.47,0.51-2.81,1.39-4.4,1.6c-0.77,0.11-1.74,0.32-1.94,1.16
					c-0.21,0.9,0.79,1.24,1.35,1.74c0.23,0.21,0.47,0.41,0.71,0.61c-0.31,0.03-0.63,0.07-0.94,0.1c-0.21,0.06-0.42,0.12-0.63,0.18
					c-0.76,0.11-1.53,0.21-2.29,0.32c-4.14-3.79-8.36-7.44-13.96-8.92c-2.07-0.67-4.19-1.06-6.33-0.58c-2.15,0.48-4.06,0.03-6-0.87
					c-1.42-0.66-2.64-1.83-4.36-1.74l0.04,0.02c-0.19-0.17-0.37-0.34-0.56-0.51c-3.97-0.51-7.81-1.77-11.88-1.73
					c-1.43,0.02-2.44-1.38-3.63-2.14c-1.53-0.98-3.07-1.68-4.93-1.41c0-4.16,0.01-8.32,0.01-12.47c0.55-1.01,1.2-1.99,1.62-3.05
					C0.55,67.93,1.86,67.23,3.83,67.63z"/>
				<path class="st6" d="M79.01,116.04c0.81,2.92,2.34,5.12,5.5,5.86c4.02,0.93,7.05,3.34,9.48,6.58c-2.75,0.9-5.67,1.55-6.81,4.75
					c-2.91,3.31-6.42,4.79-10.83,3.57c-0.53-0.15-1.1-0.12-1.65-0.18c-1.53-0.7-3.86-0.86-3.56-3.16c0.24-1.8,1.51-3.19,3.61-3.66
					c1.42-0.32,3.82-0.23,3.6-2.29c-0.21-2.03-2.54-1.81-4.13-1.86c-2.9-0.1-5.32-0.93-7.3-3.21c-2.87-3.29-11-3.28-13.36,0.38
					c-1.39,2.16-3.15,3.33-5.09,4.59c-0.95,0.14-1.89,0.66-1.93,1.54c-0.14,3.16-2.09,5.78-2.44,8.85
					c-0.09,0.77,0.08,1.79-0.94,1.95c-0.95,0.14-1.63-0.54-2.03-1.38c-0.3-0.65-0.65-1.32-0.73-2.01c-0.23-2.02-1.66-2.88-3.3-3.34
					c-1.91-0.54-3.88-0.93-5.89-0.46c-1.31,0.31-2.63,0.28-4.22,0.12c0.63-1.01,1.15-1.79,1.61-2.6c2.13-3.77,1.63-7.34-1.35-9.02
					c-2.24-1.27-4.77-1.38-7.22-1.03c-2.29,0.33-4.41-0.13-6.58-0.63c0.75-1.48,1.24-3,0.61-4.66c0.87-0.79,1.95-0.6,2.96-0.58
					c1.93,0.02,3.81-0.23,5.62-0.84c4.98-1.67,9.2-0.6,12.43,3.6c3.51,4.55,8.49,4.86,13.45,4.73c2.34-0.06,4.29-2.07,6.03-3.62
					c1.71-1.52,3.5-1.99,5.62-1.98c2.14,0.02,4.29,0,6.43-0.01c2.13,0,4.27,0,6.4,0.01C75.01,116.01,77.01,116.02,79.01,116.04z"/>
				<path class="st4" d="M34.38,27.29c4.06-0.66,6.15-3,7.02-7.09c0.77-3.61,4.39-6.01,8.13-6.12c2.78-0.08,5.56-0.01,8.33-0.01
					c0.48,0,0.96,0.03,1.43-0.05c2.1-0.33,4.52-0.26,5.59-2.51c1.05-2.18-0.26-3.94-1.71-5.54c-0.24-0.27-0.29-0.71-0.43-1.08
					c0.79,0.2,1.63,0.42,2.02-0.58c0.49-1.23,1.54-1.22,2.56-1.29c4.54-0.31,4.55-0.3,5.1-4.67c0.18-1.45,0.86-2.38,2.4-2.47
					c1.39-0.08,2.35,0.26,2.83,1.87c0.65,2.15,0.42,4-0.79,5.85c-1.16,1.77-2.14,3.61-0.3,5.57c0.17,1.18,0.36,2.35,0.51,3.53
					c0.2,1.61-0.59,2.79-2.07,3.03c-3.5,0.55-5.84,2.92-7.48,5.5c-2.1,3.31-4.73,4.12-8.26,3.86c-2.53-0.18-4.67,0.75-6.15,2.92
					c-1.59,1.34-3.24,2.53-5.35,2.97c-1.05,0.22-2.15,0.49-3,1.27c-0.97,0.16-1.51,0.91-1.96,1.63c-1.45,2.34-3.53,3.32-6.23,3.19
					c-0.87-0.04-1.75-0.01-2.63-0.01c-3.15-0.02-4.93-1.03-5.53-3.13c-0.54-1.88,0.62-4.37,2.74-5.86
					C32.23,27.79,33.31,27.54,34.38,27.29z"/>
				<path class="st3" d="M152.72,76.19c3.7,1.16,6.95,0.02,10.1-1.87c1.28-0.76,2.67-1.33,4.07-2.01c-0.13-1.29-1.57-1.91-1.71-3.2
					c0.53,0.18,1.1,0.27,1.57,0.54c4.2,2.49,7.81,2.1,11.25-1.64c2.19-2.38,2.43-2.15,3.97,0.77c0.59,1.12,1.12,2.28,1.82,3.33
					c0.69,1.03,0.58,1.51-0.39,2.48c-2.72,2.72-5.85,4.73-9.06,6.81c-2.61,1.69-4.52,2.25-7.03,0.42c-1.22-0.89-2.34-0.46-2.99,0.78
					c-0.68,1.28-0.87,3.14,0.62,3.5c2.53,0.61,4.04,2.37,5.83,3.85c1.54,1.27,2.88,1.53,4.64,0.2c1.97-1.5,4.09-3.18,6.89-1.75
					c-0.16,1.01-0.32,2.02-0.48,3.03c-1.33,0.8-2.13,2.14-2.99,3.31c-3.21,4.36-4.16,4.64-8.95,1.93c-2.27-1.29-3.26-0.73-3.39,1.92
					c-0.16,0.02-0.42,0.1-0.46,0.04c-1.73-2.73-4.19-3.78-7.38-3.45c-0.52,0.05-1.37-0.41-1.61-0.88c-1.83-3.44-5.87-5.07-7.16-8.99
					c-0.63-1.92-2.48-2.81-4.28-3.55c-1.58-0.64-2.96-1.47-3.62-3.18c-0.28-0.71-0.52-1.34,0.18-1.92c2.78,0.9,5.58,1.8,8.42,0.33
					C151.29,76.66,151.88,76.13,152.72,76.19z"/>
				<path class="st6" d="M189.04,149.56c-0.01,1.79-0.02,3.59-0.03,5.38c-0.93,0.13-1.85,0.26-2.78,0.4
					c-1.92-1.4-3.11-3.84-5.85-4.05c-2.15-0.66-4.21-0.34-6.25,0.48c-2.52,1.01-5.09,0.9-7.3-0.6c-1.3-0.88-2.63-1.47-4.07-1.85
					c-2.28-0.6-4.55,0.01-6.82,0.27c-0.97-2.17-0.57-5-3.12-6.4c-1.08-2-2.73-3.36-4.73-4.39c-0.99-0.51-2.3-0.86-2.11-2.44
					c-0.15-0.86,0.07-1.63,0.74-2.15c2.16-1.7,3-4.08,3.4-6.64c0.33-2.13,1.5-2.85,3.51-2.49c1.15,0.13,2.27,0.67,2.75,1.6
					c1.39,2.73,3.65,3.1,6.3,2.73c0.3,0.1,0.59,0.24,0.9,0.31c4.08,0.86,4.55,1.69,3.19,5.64c-0.27,0.78-0.36,1.56,0.02,2.3
					c1.47,2.82,5.7,4.01,8.51,2.41c3.25-1.85,4.02-1.42,4.23,2.37c0.01,0.16,0,0.32,0,0.48c-1.35,0.05-3.08-0.65-3.69,1.21
					c-0.55,1.66,0.44,2.89,1.8,3.77c0.67,0.43,1.48,0.83,2.25,0.57C183.13,147.38,186.11,148.19,189.04,149.56z"/>
				<path class="st3" d="M86.68,73.22c-0.42-0.66-0.88-1.31-1.26-2c-0.33-0.59-1.06-1.22-0.37-1.9c0.63-0.63,1.43-0.86,2.39-0.4
					c2.64,1.26,5.33,2.43,8.01,3.63c2.8,1.25,5.5,1.27,8.17-0.48c1.63-1.07,3.45-1.62,5.4-0.7c-1.11,0.43-2.58,0.76-1.97,2.37
					c0.44,1.16-0.11,3.36,2.4,3.01c1.15-0.16,1.52,0.78,1.66,1.64c0.16,1-0.66,1.48-1.46,1.54c-1.66,0.13-3.34,0.08-5,0.11
					c-1.35,0.02-2.71-0.05-4.06,0.06c-2.06,0.18-3.65,1.06-4.14,3.28c-0.73,3.36-3.09,5.02-6.2,5.81c-2.36,0.6-4.34,1.71-5.4,3.95
					c-1.48,3.15-4.24,4.2-7.34,4.5c-3.01,0.29-6.04,0.28-9.07,0.35c-0.63,0.02-1.3-0.07-1.88-0.3c-1.08-0.43-2.09-1.14-1.92-2.43
					c0.15-1.18,1.33-1.2,2.27-1.31c2.79-0.35,5.66,0.14,8.37-1.2c2.66-1.32,3.5-2.66,2.73-5.19c-0.49-1.64-1.56-2.29-3.18-2.31
					c-2.09-0.02-4.1,0.52-6.13,0.92c-1.23,0.24-2.11-0.11-2.46-1.19c-0.38-1.17,0.57-1.71,1.51-2.05c1.51-0.56,3.1-0.83,4.68-0.8
					c1.86,0.03,3.26-0.65,4.14-2.22c1.18-2.1,2.99-2.37,5.12-2.03c1.17,0.18,2.37,0.29,3.56,0.27c1.16-0.02,2.27-0.41,2.62-1.68
					C88.25,75.14,88.15,73.9,86.68,73.22z"/>
				<path class="st3" d="M75.92,50.63c-3.47-1.02-6.77-0.19-10.06,0.89c-1.47,0.48-3.22,1.04-3.71-1.09
					c-0.42-1.8,0.86-2.87,2.54-3.42c2.68-0.88,5.46-1.11,8.24-1.28c2.95-0.18,5.87-0.47,8.78-1.02c1.76-0.33,3.22-1.11,4.56-2.33
					c1.66-1.52,1.49-3.09,0.8-4.98c-0.68-1.85-1.96-2.38-3.7-2.31c-0.79,0.03-1.6,0.07-2.37,0.24c-3.25,0.72-5.87,0.17-7.89-2.86
					c-1.68-2.52-3.02-2.59-5.65-0.89c-1.23,0.79-2.52,1.46-3.95,1.59c-3.43,0.29-6.44,1.42-8.9,3.9c0.67-2.79-1.22-5.11-1.44-7.74
					c3.32-1.47,6.81-1.91,10.4-1.77c3.66,0.14,6.6-1.51,9.18-3.88c3.29-3.01,8.02-2.65,10.69,0.96c2.94,3.97,6.81,6.07,11.77,6.2
					c0.79,0.02,1.95-0.5,2.28,0.66c0.3,1.08-0.32,2.03-1.19,2.68c-0.89,0.66-1.83,1.28-2.81,1.79c-1.33,0.68-1.87,1.89-2.29,3.18
					c-0.23,0.69-0.32,1.46,0.68,1.71c1.3,0.33,2.6,0.65,3.9,0.98c-2.08,5.45-2.73,5.89-8.37,5.85c-2.6-0.01-5.2-0.23-7.81,0.14
					C77.74,48.08,76.52,48.89,75.92,50.63z"/>
				<path class="st4" d="M145.97,136.36c-0.19,1.58,1.13,1.93,2.11,2.44c2,1.03,3.66,2.38,4.73,4.39c-0.67,2.66-2.12,3.76-5.16,3.96
					c-2.15,0.14-4.48,0.18-5.9,2.01c-1.91,2.47-4.12,2.78-6.73,1.57c-3.14-1.46-6.28-1.35-9.52-0.38c-1.74,0.52-3.51,0.93-5.37,0.23
					c-1.7-0.64-2.21-1.71-1.66-3.35c0.53-1.6,1.45-2.68,3.29-3.05c1.64-0.33,3.94-0.53,4.03-2.68c0.1-2.54,1.42-2.62,3.25-2.5
					c0.63,0.04,1.29,0.03,1.9-0.1c0.7-0.15,0.99-0.77,1.06-1.43c0.06-0.62-0.39-0.88-0.9-0.84c-2.19,0.16-2.8-1.38-3.35-3.02
					c0.18-0.64,0.66-0.89,1.27-0.84c0.95,0.07,1.89,0.19,2.83,0.33c1.87,0.28,3.69,1.61,5.55,1c2.06-0.68,1.83-3.13,2.76-4.72
					c0.28-0.48,0.59-0.98,1-1.32c2-1.65,3-3.83,3.57-6.28c0.12-0.28,0.27-0.54,0.37-0.83c0.38-1,1-1.92,2.08-1.96
					c1.13-0.04,1.69,0.97,2.13,1.91c0.23,0.49,0.41,1.01,0.62,1.51c0.26,2.66-0.66,4.84-2.38,6.88c-1.02,1.22-1.8,2.74-2.09,4.39
					c-0.46,0.84-0.75,1.66,0.19,2.38C145.7,136.22,145.81,136.32,145.97,136.36z"/>
				<path class="st4" d="M188.55,97.83c0.16,10.07,0.33,20.13,0.49,30.2c-0.98,0.14-1.96,0.39-2.95,0.41
					c-1.24,0.02-1.89,0.48-1.84,1.76c-1.46,0.33-2.86,0.08-4.14-0.63c-1.25-0.69-2.52-0.9-3.88-0.6c-3.76,0.82-7.2-0.06-10.49-1.87
					c-1.75-0.93-3.74-0.58-5.6-0.96c-1.47-0.3-2.03-1.28-2.45-2.32c-0.49-1.22,0.66-1.86,1.5-2.41c2.08-1.34,4.41-1.89,6.85-1.57
					c2.47,0.33,4.38-0.74,5.92-2.38c1.51-1.61,3.23-2.57,5.38-2.71c1.38-0.09,2.57-0.65,3.8-1.16c0.63-0.26,1.59-0.22,1.52-1.18
					c-0.08-1.08-1.12-1.54-1.91-1.43c-1.98,0.27-3.3-0.2-3.6-2.33c-0.34-2.41,0.77-4.87,2.97-4.95
					C184.4,103.56,186.54,100.92,188.55,97.83z"/>
				<path class="st4" d="M52.61,63.39c-2.52-0.48-4.64-1.85-6.27-3.65c-3.37-3.72-7.44-5.55-12.4-5.34
					c-2.74,0.12-5.39,0.19-7.66-1.74c-0.64-0.54-1.56-0.66-2.27-0.39c-1.93,0.71-3.92,0.33-5.87,0.53c-1.19-0.04-2.38,0.14-3.55-0.3
					c-1.19-0.44-2.53-0.61-2.62-2.32c-0.09-1.73,0.31-3.34,1.98-4c2.31-0.92,4.54-2.26,7.22-1.98c2.57,0.27,4.76-0.57,6.85-2.17
					c4.08-3.11,6.97-2.83,10.52,0.77c1.22,1.24,2.61,2.11,4.28,2.48c2.32,0.52,3.87,2.11,4.66,4.08c1.39,3.45,3.54,5.72,7.25,6.5
					c1.38,0.29,2.3,1.41,3.15,2.47c0.84,1.04,0.77,2.3,0.28,3.4c-0.47,1.05-1.38,1.7-2.69,1.62C54.53,63.28,53.57,63.37,52.61,63.39
					z"/>
				<path class="st4" d="M52.69,102.73c0.31-0.03,0.63-0.07,0.94-0.1c1.71,0.59,3.42,1.2,5.14,1.76c1.17,0.38,2.23-0.09,3.17-0.69
					c4.07-2.61,10.08,0.33,11.78,3.61c1.12,2.16,0.82,4.16-1.14,5.64c-1.57,1.19-4.52,1-5.62-0.72c-2.72-4.22-7.54-3.89-11.24-0.62
					c-3.83,3.38-11.11,3.54-14.01,0.01c-1.6-1.95-3.88-3.25-6.26-4.23c-0.66-1.02-1.87-1.66-2.08-3c0.79-2.65,2.01-3.15,4.5-1.72
					c0.86,0.49,1.59,1.21,2.38,1.83c0.6,0.5,1.19,1.01,1.81,1.48c2.29,1.72,3.29,1.61,5.43-0.51c1.05-0.45,1.85-1.15,2.28-2.24
					c0.76-0.11,1.53-0.21,2.29-0.32C52.28,102.86,52.49,102.79,52.69,102.73z"/>
				<path class="st3" d="M40.25,104.51c-0.79-0.62-1.52-1.33-2.38-1.83c-2.49-1.43-3.71-0.94-4.5,1.72
					c-0.91,0.05-1.82,0.11-2.74,0.16c-1.25-0.5-2.37-1.1-3.31-2.19c-1.04-1.2-2.52-1.91-4.07-2.38c-1.53-0.47-2.63-0.59-3.01,1.55
					c-0.43,2.42-2.43,1.48-3.27,0.67c-1.73-1.67-3.64-1.54-5.67-1.4c-0.24,0.02-0.48-0.02-0.72-0.03c-1.59-0.09-3.68,0.26-4.53-0.9
					c-0.9-1.21,1.06-2.46,1.54-3.79c0.3-0.81,0.66-1.6,1.14-2.76c2.7,2.81,5.68,1.96,8.64,0.89c1.4-0.51,2.33-1.42,1.75-3.11
					c1.72-0.09,2.95,1.08,4.36,1.74c1.94,0.9,3.85,1.34,6,0.87c2.14-0.47,4.26-0.09,6.33,0.58c0.1,0.46,0.12,0.95,0.3,1.38
					c1.33,3.18,4.21,4.62,7,6.14c1.61,0.88,3.31,1.62,3.84,3.62C44.72,105.14,42.49,104.82,40.25,104.51z"/>
				<path class="st4" d="M14.06,114.69c0.63,1.66,0.15,3.18-0.61,4.66c-1.28,0.73-2.4,1.74-4.1,1.51c-1.41-0.19-2.86-0.05-4.29-0.05
					c-0.62,0-1.29-0.1-1.64,0.65c-0.75,1.59-0.11,2.21,1.5,2.22c0.63,0,1.39-0.01,1.55,0.77c0.15,0.71-0.73,0.71-1.05,1.11
					c-0.73,0.93-2.13,1.11-2.57,2.34c-1.56,0.34-3.12,0.69-4.68,1.03c0-10.37,0-20.74,0.01-31.12c1.62-1.51,3.62-1.11,5.45-0.85
					c1.62,0.23,1.62,3.43,0.03,5.05c-0.5,0.5-1.17,0.83-1.69,1.31c-0.81,0.75-1.78,1.45-1.32,2.81c0.44,1.3,1.27,2.22,2.62,2.54
					c0.61,0.15,1.28,0.21,1.9,0.12c2.32-0.34,3.66,0.26,4.01,2.92C9.51,114.4,11.8,114.71,14.06,114.69z"/>
				<path class="st4" d="M52.18-12.21c-2.03,2.68-4.91,3.59-8.09,3.72c-2.94,0.12-5.89,0.21-8.83,0.06
					c-5.1-0.25-8.59,2.74-12.12,5.72c-0.58,0.4-1.14,0.82-1.73,1.2c-2.54,1.64-5.57,0.86-6.62-1.93c-0.6-1.59-1.57-2.83-2.94-3.54
					c-2.31-1.2-2.1-2.84-1.32-4.76C24.41-12.17,38.29-12.52,52.18-12.21z"/>
				<path class="st3" d="M165.74,127.1c3.28,1.81,6.73,2.68,10.49,1.87c1.36-0.3,2.64-0.09,3.88,0.6c1.27,0.71,2.68,0.96,4.14,0.63
					c0.64,3.6,1.26,4.17,4.75,4.4c0.01,1.66,0.01,3.33,0.02,4.99c-0.92,0.36-1.78,0.78-2.84,0.83c-2.95,0.14-3.63,0.92-3.78,3.83
					c-0.96-0.45-1.92-0.9-2.88-1.35c0-0.16,0.01-0.32,0-0.48c-0.21-3.79-0.98-4.22-4.23-2.37c-2.81,1.6-7.04,0.41-8.51-2.41
					c-0.39-0.74-0.29-1.53-0.02-2.3c1.36-3.94,0.88-4.78-3.19-5.64c-0.31-0.06-0.6-0.2-0.9-0.31
					C163.69,128.63,164.72,127.87,165.74,127.1z"/>
				<path class="st4" d="M75.92,50.63c0.6-1.74,1.82-2.55,3.66-2.81c2.61-0.37,5.21-0.15,7.81-0.14c5.64,0.03,6.28-0.4,8.37-5.85
					c1.77-0.4,3.5-0.53,5.34-0.09c2.51,0.59,4.96-0.07,6.76-1.89c1.14-1.16,2.25-1.57,3.73-1.39c1.72,4.3,1.59,4.07-2.73,6.33
					c-2.61,1.37-4.89,3.48-7.11,5.48c-2.75,2.46-5.74,3.13-9.2,2.01c-2.03-1.81-4.06-1.43-6.09,0.01c-1.65-0.1-3.06,0.86-4.64,1.09
					c-0.27,0-0.54,0-0.81,0c-0.64-0.02-1.28-0.13-1.9-0.05C77.05,53.59,75.9,52.81,75.92,50.63z"/>
				<path class="st3" d="M11.95,22.22c-3.13-1.34-3.78-4.51-5.09-7.13c-0.5-0.99,0.78-1.97,1.19-2.98c0.33-0.8,0.71-1.58,1.06-2.37
					c3.47,0.15,6.69,7.39,4.89,11C13.57,21.6,12.76,21.9,11.95,22.22z"/>
				<path class="st6" d="M53.15,29.32c0.23,2.63,2.11,4.94,1.44,7.74c-0.35,0.79-0.71,1.55-1.79,1.43c-2.44,0.12-1.52-1.99-1.94-3.1
					c-0.52-1.38-0.43-3.07-2.51-3.15c-1.2-1-2.4,0.4-3.6,0c0.85-0.77,1.95-1.05,3-1.27c2.12-0.44,3.76-1.63,5.35-2.97
					C53.13,28.45,53.14,28.88,53.15,29.32z"/>
				<path class="st3" d="M58.03,90.81c-1.81-0.48-3.62,0.43-5.43,0.03c-2.56-0.57-2.93-1.41-1.53-3.56
					c0.99-1.54,1.93-3.14,4.03-3.33c-0.57,2.51,1.79,3.26,2.87,4.79c0.08,0.49,0.16,0.99,0.23,1.49
					C58.14,90.41,58.08,90.61,58.03,90.81z"/>
				<path class="st3" d="M48.37,32.24c2.08,0.08,1.98,1.77,2.51,3.15c0.42,1.11-0.51,3.23,1.94,3.1c-0.68,1.23-1.81,1.93-3.12,1.67
					c-1.42-0.27-1.86-1.67-2.12-2.91C47.19,35.5,47.25,33.77,48.37,32.24z"/>
				<path class="st3" d="M145.46,133.67c0.3-1.66,1.07-3.17,2.09-4.39c1.71-2.05,2.64-4.22,2.38-6.88c1.08,1.1,3.14,0.85,3.69,2.67
					c-2.01-0.36-3.18,0.36-3.51,2.49c-0.4,2.56-1.24,4.94-3.4,6.64c-0.67,0.53-0.89,1.3-0.74,2.15c-0.16-0.04-0.27-0.14-0.33-0.3
					C145.58,135.26,145.52,134.47,145.46,133.67z"/>
				<path class="st6" d="M181.82,91.44c0.16-1.01,0.32-2.02,0.48-3.03c2.55-0.52,4.03,1.9,6.25,2.27c0,1.09,0,2.17,0,3.26
					C186.19,93.43,183.61,93.52,181.82,91.44z"/>
				<path class="st6" d="M30.64,104.56c0.91-0.05,1.82-0.11,2.74-0.16c0.21,1.33,1.42,1.97,2.08,3c-1.32-0.2-2.31,0.35-3.09,1.37
					c-0.9,1.18-2.11,2.04-3.4,0.91c-1.44-1.26-0.48-2.59,0.53-3.71C29.9,105.52,30.66,105.36,30.64,104.56z"/>
				<path class="st3" d="M81.02,53.38c0.27,0,0.54,0,0.81,0c0.19,0.35,0.4,0.69,0.57,1.05c1.65,3.39,0.83,4.76-3.04,5.07
					c0.31-0.92-0.07-1.57-0.61-2.34c-1.49-2.14-1.01-3.16,1.4-3.46C80.45,53.67,80.73,53.49,81.02,53.38z"/>
				<path class="st3" d="M34.38,27.29c-1.08,0.25-2.15,0.5-3.23,0.76c-3.57-1.37-3.71-3.16-0.47-5.85c0.47-0.03,1.14-0.12,1.22,0.41
					C32.18,24.48,33.6,25.71,34.38,27.29z"/>
				<path class="st3" d="M73,116c-2.13,0-4.27,0-6.4-0.01C68.55,114.22,69.83,114.22,73,116z"/>
				<path class="st6" d="M-1.81,95.03c-0.01-0.98-0.01-1.96-0.02-2.95c0.2,0.12,0.41,0.23,0.61,0.35c0.81,0.49,2.03,1.04,1.85,1.93
					C0.4,95.51-0.97,94.82-1.81,95.03z"/>
				<path class="st6" d="M58.19,90.22c-0.08-0.5-0.16-0.99-0.23-1.49C58.45,89.16,58.47,89.67,58.19,90.22z"/>
				<path class="st3" d="M55.06,83.97c0.18-0.17,0.37-0.34,0.55-0.51C55.51,83.72,55.46,84.03,55.06,83.97z"/>
				<path class="st3" d="M18.61,90.64c0.19,0.17,0.37,0.34,0.56,0.51C18.98,90.98,18.79,90.81,18.61,90.64z"/>
				<path class="st2" d="M53.15,29.32c-0.01-0.44-0.02-0.88-0.03-1.32c1.48-2.17,3.62-3.1,6.15-2.92c3.52,0.25,6.16-0.55,8.26-3.86
					c1.64-2.58,3.98-4.95,7.48-5.5c1.48-0.23,2.27-1.42,2.07-3.03c-0.15-1.18-0.34-2.35-0.51-3.53c1.04-0.57,2.05-1.18,3.11-1.69
					c3.15-1.54,6.15-3.12,10.02-2.26c3.02,0.67,4.04-0.9,3.24-3.92c-0.16-0.61-0.33-1.23-0.48-1.84c-0.89-3.58,0.14-4.93,3.89-4.98
					c0.78-0.01,1.57,0.27,2.36,0.25c2.38-0.05,4.9,1.03,7.1-0.77c1.93,2.28,2.83,2.38,4.75,0.33c0.96-1.03,2.05-1.44,3.4-1.31
					c0.64,0.3,1.28,0.59,1.92,0.91c1.22,0.6,2.02,1.91,1.96,2.93c-0.06,0.94-1.62,0.37-2.52,0.46c-1.17,0.12-2.23,0.35-1.59,1.84
					c0.83,1.93,6.02,3.32,7.76,2.14c5.33-3.6,11.42-4.05,16.57,1.36c1.88,1.98,3.93,1.73,6.06,0.84c0.9-0.38,1.54-0.4,2.43,0.05
					c2.72,1.37,4.67,0.98,6.73-1.3c0.85-0.94,1.47-2.07,2.24-3.09c2.02-2.68,2.9-3.06,5.78-1.35c2.01,1.19,2.98,0.4,3.97-1.1
					c0.48-0.72,0.88-1.49,1.32-2.24c1.02,0.5,2.03,1.01,3.05,1.51c-3.58,2.03-5.28,5-5.01,9.22c0.15,2.34-1.65,3.29-3.72,3.59
					c-2.29,0.33-4.58,0.68-6.88,0.83c-1.6,0.1-2.76,1.12-4.15,1.62c-0.62,0.22-1.06,0.75-0.94,1.49c0.11,0.72,0.66,1.07,1.28,1.28
					c1.78,0.6,3.63,0.34,5.45,0.48c1.73,0.13,3.94-0.41,4.28,2.27c0.31,2.47-1.51,4.63-4.13,4.96c-1.67,0.21-3.35,0.12-5-0.18
					c-1.9-0.33-3.79-0.49-5.71-0.2c-0.73-2.23-2.34-2.98-4.6-3.01c-3.3-0.04-6.44,1.01-9.69,1.22c-6.59,0.43-12.45-0.82-17.29-5.98
					c-5.72-6.1-14.9-5.95-19.31,0c-2.63,3.54-2.7,7.43,2.17,9.17c2.31,0.82,4.3,1.89,5.36,4.32c0.85,1.95,2.7,2.04,4.51,1.87
					c2.13-0.2,3.99,0.49,4.77,2.42c0.9,2.23,2.55,4.59,0.59,7.13c-1.49-0.18-2.59,0.23-3.73,1.39c-1.8,1.82-4.25,2.48-6.76,1.89
					c-1.84-0.43-3.57-0.3-5.34,0.09c-1.3-0.32-2.6-0.64-3.9-0.98c-1-0.26-0.9-1.02-0.68-1.71c0.42-1.29,0.96-2.49,2.29-3.18
					c0.98-0.51,1.92-1.12,2.81-1.79c0.87-0.65,1.49-1.6,1.19-2.68c-0.33-1.16-1.48-0.64-2.28-0.66c-4.96-0.13-8.84-2.22-11.77-6.2
					c-2.67-3.61-7.4-3.98-10.69-0.96c-2.58,2.37-5.52,4.02-9.18,3.88C59.96,27.41,56.47,27.86,53.15,29.32z"/>
				<path class="st2" d="M188.56,90.68c-2.23-0.37-3.71-2.79-6.25-2.27c-2.8-1.43-4.91,0.25-6.89,1.75c-1.76,1.34-3.1,1.07-4.64-0.2
					c-1.79-1.48-3.31-3.24-5.83-3.85c-1.49-0.36-1.3-2.22-0.62-3.5c0.65-1.24,1.77-1.67,2.99-0.78c2.51,1.83,4.42,1.27,7.03-0.42
					c3.21-2.08,6.33-4.09,9.06-6.81c0.97-0.97,1.08-1.44,0.39-2.48c-0.7-1.05-1.23-2.21-1.82-3.33c-1.53-2.92-1.78-3.16-3.97-0.77
					c-3.44,3.74-7.05,4.12-11.25,1.64c-0.47-0.28-1.05-0.37-1.57-0.54c-1.39-2.1-3.54-1.85-5.33-1.17
					c-2.23,0.84-4.32,1.13-6.66,0.75c-6.03-0.97-11.49,0.49-16.32,4.24c-1.5-1.54-0.7-2.44,0.94-2.84c2.09-0.51,3.07-1.58,3-3.86
					c-0.08-2.61,1.8-4.28,4.66-4.29c3.35-0.02,6.67-0.02,9.79-1.55c1.37-0.67,2.74-1.3,3.7-2.54c1.35-1.76,0.8-3.44-1.38-3.95
					c-0.92-0.21-1.9-0.16-2.85-0.2c-7.16-0.27-14.3,0.53-21.45,0.6c-3.46,0.03-6.78-0.8-10.18-1.08c-1.28-0.1-1.14-0.88-0.52-1.65
					c1.05-1.31,2.57-1.67,4.09-1.53c2.47,0.22,4.42-0.78,5.96-2.45c1.11-1.21,2.31-1.48,3.81-1.47c3.63,0.03,3.65-0.04,3.85-3.5
					c0.04-0.62,0.29-1.22,0.45-1.83l-0.01,0.04c2.69-0.09,5.4,0.19,8.08-0.37c1.02-0.22,2.3-0.23,2.26-1.57
					c-0.03-1.2-1.25-1.6-2.26-1.77c-2.34-0.41-4.7-0.68-7.05-1c0.16-3,2.35-2.97,4.46-2.89c2.14,0.08,3.64-0.77,4.68-2.6
					c1.01-1.79-0.14-2.98-1.09-4.24c1.4-1.33,2.92-0.59,4.23-0.03c3.22,1.38,6.3,2.1,9.52-0.07c1.25-0.84,2.65-0.21,3.8,0.61
					c1.75,1.24,3.5,2.49,5.15,3.86c0.52,0.43,1.06,0.72,1.65,0.85c1.41,0.32,3.23,0.83,4.13-0.13c0.92-0.98-0.59-2.28-1.15-3.35
					c-2.73-5.17-4.1-10.7-4.47-16.47c-0.25-3.88,1.96-5.72,5.85-5.03c2.19,0.39,4.35,0.95,6.32,2.04c-1.82,3.73-0.11,5.89,3.7,8.73
					c0,5.11,0,10.22,0,15.33c-1.57-0.98-2.56-2.75-4.52-3.24c-2.12-0.52-3.06,0.09-3.09,2.17c-0.05,3.26,4.07,7.46,7.61,7.77
					c0,1.92,0,3.84-0.01,5.76c-1.79-0.16-2.75,0.64-2.85,2.45c-1.6-0.37-2.11-1.89-2.94-2.98c-2.44-3.22-4.41-3.85-7.63-1.46
					c-3.41,2.52-6.4,1.67-9.65-0.13c-3.12-1.72-6.53-2.54-10.11-2.01c-2.17,0.32-3.61,2.52-3.09,4.57c0.61,2.4,2.45,1.49,3.9,1.19
					c2.37-0.49,4.43-0.23,5.99,1.83c3.05,4.04,3.54,4.2,8.42,2.77c1.07-0.31,2.28-0.87,2.92,0.51c0.63,1.35,0.02,2.51-1.16,3.28
					c-1.11,0.73-2.19,1.55-3.55,1.83c-0.63,0.13-1.21,0.54-1.2,1.3c0.01,0.77,0.62,1.02,1.24,1.25c1.87,0.7,3.46,0.39,5.15-0.75
					c3.42-2.3,8.43-0.02,8.91,4.05c0.22,1.87,1.1,2.49,2.79,2.45c0.96-0.02,1.91-0.01,2.87-0.02c0,3.99,0.01,7.98,0.01,11.96
					c-0.96,1.05-1.94,2.1-2.89,3.17c-1.33,1.51-1.06,2.73,0.81,3.49c0.65,0.26,1.38,0.33,2.08,0.49
					C188.55,86.5,188.55,88.59,188.56,90.68z"/>
				<path class="st4" d="M149.8,26.39c0.95,1.26,2.1,2.45,1.09,4.24c-1.04,1.84-2.54,2.69-4.68,2.6c-2.11-0.08-4.3-0.11-4.46,2.89
					c-0.34,1.57-0.69,3.15-1.03,4.72l0.01-0.04c-0.15-0.04-0.35-0.16-0.43-0.1c-2.58,1.73-3.62-0.22-4.73-1.98
					c-0.03-0.32-0.06-0.63-0.08-0.95c-0.33-4.23,0.53-6.8,5.4-7.15c0.67-0.05,1.67-0.14,1.81-1.22
					C144.89,27.99,146.77,25.83,149.8,26.39z"/>
				<path class="st6" d="M169.61-4.06c-1.02-0.5-2.03-1.01-3.05-1.51c0.11-0.38,0.21-0.76,0.33-1.13c0.3-0.94,0.67-1.85,1.8-2
					c1.21-0.15,1.91,0.55,2.36,1.59c0.12,0.28,0.38,0.5,0.57,0.76c0.76,1.04,1.68,1.89,3,1.05c1.25-0.8,1.11-2.1,0.51-3.2
					c-0.8-1.46-1.81-2.81-2.72-4.2c1.87,0.01,3.75,0.03,5.62,0.04c1.6,2.16,4.19,2.75,6.36,4.02c0.96,0.56,2.07,0.98,1.91,2.41
					c-0.17,1.47-1.43,1.6-2.46,1.82c-2.89,0.63-5.84,0.21-8.76,0.27C173.25-4.12,171.43-4.09,169.61-4.06z"/>
				<path class="st4" d="M188.54,17.39c-3.82-2.84-5.52-5-3.7-8.73c3.12-1.14,3.83-3.08,2.18-6.03c-1.45-2.59-1.19-3.31,1.53-4.34
					C188.55,4.66,188.55,11.02,188.54,17.39z"/>
				<path class="st2" d="M142.7,29.39c-0.14,1.08-1.13,1.17-1.81,1.22c-4.87,0.35-5.73,2.92-5.4,7.15c0.02,0.32,0.05,0.63,0.08,0.95
					c-1.8,1-3.6,1.93-5.48,0.15C131.32,32.2,135.28,29.22,142.7,29.39z"/>
				<path class="st2" d="M122.62,31.84c-0.07-0.04-0.15-0.06-0.21-0.12c-0.9-0.97-2.63-1.67-1.74-3.38c0.7-1.35,3.39-1.18,4.84,0.11
					C125.75,30.61,124.36,31.37,122.62,31.84z"/>
				<path class="st2" d="M127.75,133.6c0.55,1.63,1.16,3.18,3.35,3.02c0.51-0.04,0.96,0.23,0.9,0.84c-0.07,0.66-0.35,1.28-1.06,1.43
					c-0.61,0.13-1.27,0.14-1.9,0.1c-1.83-0.12-3.15-0.04-3.25,2.5c-0.09,2.15-2.39,2.35-4.03,2.68c-1.84,0.37-2.76,1.46-3.29,3.05
					c-0.54,1.63-0.04,2.71,1.66,3.35c1.87,0.7,3.64,0.29,5.37-0.23c3.24-0.97,6.38-1.08,9.52,0.38c2.61,1.21,4.82,0.9,6.73-1.57
					c1.42-1.83,3.75-1.87,5.9-2.01c3.03-0.2,4.48-1.3,5.16-3.96c2.56,1.39,2.16,4.23,3.12,6.4c0.36,1.61,1.11,2.52,3.01,2.15
					c1.8-0.34,3.43,0.46,4.95,1.39c1.43,0.87,2.2,2.03,1.7,3.79c-0.48,1.7-1.79,2.1-3.3,2.21c-2.1,0.15-4.11-0.41-6.15-0.74
					c-1.88-0.31-3.74-0.93-5.67-0.46c-1.99,0.49-2.59,1.93-2.46,3.81c0.13,1.93,1.44,2.27,3.03,2.19c1.83-0.09,3.64-0.28,5.35-1
					c2.43-1.01,4.29,0.31,3.73,2.93c-0.73,3.43-2.91,6.14-7.07,5.39c-1.88-0.34-3.72-0.84-5.59-1.26c-0.72-0.64-1.71-0.1-2.52-0.56
					c0.2-0.27,0.39-0.52,0.58-0.76c1.88-2.42,1.67-2.96-1.41-3.56c-2.33-0.45-4.62,0.06-6.85,0.53c-4.74,1-9.32,0.76-13.83-1.03
					c-3.18-1.26-6.36-2.54-9.6-3.65c-5.7-1.94-11.45-3.64-17.33-0.57c-1.95,1.02-4.6,1.74-4.46,4.37c0.13,2.37,2.27,3.72,4.44,4.48
					c2.73,0.95,4.01,2.95,4.62,5.58c-1.43,0-2.48-0.96-3.7-1.48c-2.95-1.28-5.85-2.09-8.74,0.12c-1.08-0.26-2.16-0.73-3.24-0.74
					c-4.45-0.05-8.69-0.73-12.51-3.2c-0.62-0.41-1.12,0.06-1.72,0.29c-5.29,1.96-9.9,5.36-15.27,7.15
					c-1.32,0.44-2.69,1.22-3.64,2.22c-1.72,1.83-3.27,3.89-2.45,6.72c-0.99,1.24-2.23,2.08-3.79,2.43
					c-3.94-2.46-8.03-3.98-12.68-2.04c-0.96-1.38-2.44-2.01-3.93-2.57c-1.76-0.66-3.62-1.19-5.17,0.31c-1.5,1.45-1.37,3.28-0.66,5.1
					c-1.08,0.21-2.16,0.42-3.24,0.63c-3.57,0.69-6.34,2.74-8.87,5.2c-1.44-0.69-2.88,0.34-4.32,0c0-1.97-1.08-2.73-2.95-2.84
					c-1.44-0.08-2.77,0.37-4.16,0.52c-0.65-0.28-1.31-0.56-1.96-0.84c0.02-1.96,0.03-3.92,0.05-5.88c2.54-0.23,3.32-1.1,3.32-3.52
					c0-2.3-1.63-3.21-3.31-4.12c0-3.84,0-7.67-0.01-11.51c0.93-0.01,1.85-0.01,2.78-0.02c0.8,1.51,1.11,3.13,0.97,4.83
					c-0.13,1.57-0.43,3.14-0.42,4.72c0.02,2.72,1.26,3.65,3.93,3.1c0.88-0.18,1.88-0.42,2.45,0.35c1.53,2.06,3.3,1.97,5.44,1.1
					c0.9-0.36,2.04-0.2,3.06-0.16c1.44,0.05,2.84-0.38,3.69-1.37c1.26-1.46,2.71-1.68,4.43-1.57c1.97,0.12,3.2-0.71,3.27-2.83
					c2.49-3.31,6.04-5.25,9.48-7.34c0.78-0.48,1.36-1.29,2.02-1.96c0.77-0.78,1.91-1.51,1.37-2.79c-0.51-1.21-1.86-1.23-2.93-1.13
					c-2.53,0.22-5.04,0.73-7.57,0.97c-3.7,0.35-7.12-0.78-10.22-2.63c-2.24-1.33-1.82-3.76,0.59-4.78c1.21-0.51,2.5-0.6,3.76-0.49
					c3.81,0.33,6.3-1.44,8.04-4.68c0.7-1.29,1.35-2.88,2.87-3.34c4.5-1.34,9.09-1.57,13.67-0.39c1.52,0.39,2.14,1.47,1.75,3.12
					c-0.76,3.21-0.23,3.98,3.05,4.77c2.96,0.71,3.78,1.74,3.87,4.79c0.05,1.66-0.27,3.35,0.42,4.96c-0.71,2.25-2.55,2.29-4.44,2.32
					c-1.9,0.02-3.99-0.21-4.97,1.95c-1.53,3.35-4.17,4.33-7.58,3.77c-3.32-0.55-6,0.61-8.47,2.75c-3.19,2.77-3.09,7.73,0.56,9.06
					c4.75,1.73,8.73,0.97,11.43-3.83c1.35-2.39,3.17-4,5.96-4.08c1.97-0.06,3.5-0.78,4.89-2.09c1.97-1.84,4.12-3.02,7.04-2.87
					c2.27,0.11,4.37-0.89,5.54-3.1c1.19-2.24,2.96-3.94,4.96-5.4c3.51-2.55,3.57-2.54,1.88-6.55c-0.74-1.75-0.41-2.94,1.41-3.58
					c1.25-0.44,2.12-1.11,1.85-2.6c0.95-0.03,1.94-0.23,2.85-0.06c4.94,0.95,9.91,1.25,14.93,1.39c3.79,0.1,7.57,0.84,11.32,1.49
					c3.58,0.62,6.65-0.1,9.23-2.72c1.36-1.38,1.41-3.15,0.75-4.66c-0.69-1.58-2.46-2.18-4.08-1.77c-2.74,0.7-4.79,0.04-6.98-1.76
					c-1.64-1.35-3.68-3.19-6.21-1.85c-3.63,1.93-7.42,3.56-10.76,6.04c-1.2,0.9-2.58,1.95-4.35,1.56c0.19-0.34,0.39-0.68,0.58-1.02
					c1.62-2.88,0.7-4.66-2.63-5.02c-2.69-0.29-5.31-0.26-7.79,1.11c-1.41,0.78-2.98,1.01-4.6,0.77c-0.37-1.18,0.07-2.11,0.89-2.94
					c1.2-1.22,2.38-2.45,3.57-3.68c0.55,0.05,1.12,0.03,1.65,0.18c4.41,1.22,7.92-0.26,10.83-3.57c0.77,0.11,1.61,0.34,2.19-0.35
					c1.57-1.88,3.67-2.79,5.94-3.44c8.76,1.28,17.79,0.68,26.31,3.76C123.59,133.91,125.68,133.93,127.75,133.6z"/>
				<path class="st7" d="M147.49,169.98c1.86,0.43,3.71,0.93,5.59,1.26c4.16,0.74,6.34-1.96,7.07-5.39c0.56-2.61-1.3-3.94-3.73-2.93
					c-1.71,0.71-3.52,0.91-5.35,1c-1.59,0.08-2.9-0.26-3.03-2.19c-0.13-1.88,0.47-3.32,2.46-3.81c1.93-0.47,3.8,0.15,5.67,0.46
					c2.04,0.33,4.06,0.89,6.15,0.74c1.51-0.11,2.82-0.51,3.3-2.21c0.5-1.76-0.27-2.92-1.7-3.79c-1.52-0.93-3.15-1.73-4.95-1.39
					c-1.9,0.36-2.65-0.54-3.01-2.15c2.27-0.26,4.54-0.86,6.82-0.27c1.44,0.38,2.77,0.97,4.07,1.85c2.21,1.5,4.78,1.61,7.3,0.6
					c2.04-0.82,4.1-1.14,6.25-0.48c-0.19,0.24-0.37,0.5-0.58,0.72c-2.77,2.86-2.78,3.17,0.48,5.31c2.06,1.35,3.02,3.32,3.59,5.59
					c-0.41,0.66-1.08,0.52-1.69,0.57c-1.41,0.1-2.87,0.12-4.13,0.77c-0.69,0.36-1.57,1.03-1.2,2.05c0.32,0.9,1.23,0.53,1.87,0.44
					c1.94-0.26,3.87-0.61,5.81-0.92c0.28,1.88,0.82,3.66,1.54,5.43c0.61,1.5,1.76,2.86,1.59,4.64c-1.85-0.29-3.67-0.95-5.57-0.45
					c-2.05,0.54-2.39,1.9-0.92,3.39c0.6,0.6,1.52,0.86,1.82,1.77c-0.75,3.81,1.36,5.85,6.06,5.85c0.01,1.89-0.07,3.79,0.06,5.67
					c0.11,1.62-0.56,2-2.04,1.95c-3.15-0.1-6.3-0.05-9.45-0.06c-0.55-1.6-1.98-2.63-2.73-4.08c-1.52-2.96-4.15-4.21-7.19-4.8
					c-2.12-0.41-3.89,1.14-5.93,1.3c-2.86-0.99-5.79-0.68-8.69-0.34c-1.13,0.13-2.15,0.77-2.91,1.83c-0.57,0.8-1.53,1.33-2.34,1.96
					c-0.92,0.72-0.95-0.31-1.3-0.69c-0.51-0.91-0.91-1.91-1.95-2.39c1.24-0.81,2.77-0.5,4.07-1.05c0.91-0.39,1.88-0.86,1.62-2.03
					c-0.24-1.08-1.4-0.86-2.01-0.64c-4.89,1.76-9.99-0.65-14.88,0.83c-0.76,0.23-2.14,0.29-2.06-0.9c0.16-2.38-1.3-1.46-2.24-1.22
					c-1.45,0.37-2.77,1.23-4.32,1.25c-1.36,0.02-3.1,0.11-3.39-1.45c-0.27-1.43,0.91-2.68,2.37-3.15c1.95-0.62,3.53-1.78,5.04-3.07
					c2.2,0.32,4.42,0.04,6.18-1.16c1.85-1.25,3.86-2.11,5.78-3.17C142.93,170.24,145.19,169.95,147.49,169.98z"/>
				<path class="st2" d="M2.84,127.91c0.44-1.23,1.84-1.41,2.57-2.34c0.32-0.4,1.2-0.4,1.05-1.11c-0.16-0.78-0.92-0.77-1.55-0.77
					c-1.61,0-2.25-0.63-1.5-2.22c0.35-0.75,1.02-0.65,1.64-0.65c1.43-0.01,2.88-0.14,4.29,0.05c1.7,0.23,2.82-0.79,4.1-1.51
					c2.16,0.51,4.28,0.96,6.58,0.63c2.45-0.35,4.98-0.23,7.22,1.03c2.98,1.68,3.48,5.26,1.35,9.02c-0.46,0.81-0.98,1.59-1.61,2.6
					c1.59,0.16,2.91,0.19,4.22-0.12c2.01-0.47,3.99-0.07,5.89,0.46c1.65,0.47,3.07,1.33,3.3,3.34c0.08,0.69,0.42,1.37,0.73,2.01
					c0.4,0.84,1.09,1.53,2.03,1.38c1.03-0.16,0.86-1.18,0.94-1.95c0.35-3.07,2.3-5.69,2.44-8.85c0.04-0.87,0.98-1.4,1.93-1.54
					c1.36,0.27,2.67,0.04,4-0.26c1.78-0.4,3.53-0.37,4.74,1.28c1.79,2.45,3.85,3.63,6.73,1.73c0.13-0.08,0.3-0.1,0.45-0.14
					c1.37-0.31,2.17,0.31,2.9,1.46c0.74,1.16,0.55,2-0.23,2.99c-2.09,2.66-2.1,3.12-0.04,6.18c0.63,0.93,0.52,1.59-0.31,2.23
					c-1.24,0.08-2.34-0.37-3.39-0.95c-1.99-1.1-4.09-1.72-6.39-1.51c-2.24-2.06-4.93-2.01-7.56-1.27c-2.82,0.8-5.54,1.9-8.37,2.7
					c-2.06,0.58-3.91,0.48-5.67-0.47c-3.51-1.89-5.84-1.29-7.85,2.23c-2.11,3.69-4.05,4.21-7.4,3.51c1.27-2.93,0.85-4.16-1.83-5.43
					c-1.56-0.74-3.34-1.24-4.87-0.67c-4.59,1.7-9.24,0.91-13.89,0.83c-1.29-2.03-1.76-4.22-1.32-6.6c0.56-0.01,1.12-0.04,1.67-0.03
					c3.36,0.07,6.69-0.14,9.93-1.06c1.72-0.49,3.09-1.68,3.03-3.48c-0.06-1.78-1.78-2.28-3.3-2.58c-0.69-0.14-1.43-0.07-2.14-0.09
					C5.86,127.97,4.35,127.94,2.84,127.91z"/>
				<path class="st6" d="M147.49,169.98c-2.3-0.03-4.56,0.27-6.73,1.07c-4.12-1.44-9.15,0.38-11.96,4.33
					c-1.52,1.29-3.09,2.45-5.04,3.07c-1.46,0.46-2.64,1.71-2.37,3.15c0.29,1.57,2.03,1.47,3.39,1.45c1.55-0.02,2.87-0.88,4.32-1.25
					c0.93-0.24,2.4-1.17,2.24,1.22c-0.08,1.19,1.3,1.13,2.06,0.9c4.9-1.48,10,0.93,14.88-0.83c0.6-0.22,1.77-0.44,2.01,0.64
					c0.26,1.17-0.71,1.64-1.62,2.03c-1.3,0.56-2.83,0.24-4.07,1.05c-0.43-0.19-0.85-0.39-1.28-0.58c-2.69-1.16-5.43-0.96-8.1-0.09
					c-2.59,0.85-2.81,2.86-0.86,5.2c0.7,0.84,2.68,1.57,0.73,3.11c-4.21,0-8.41,0-12.62,0.01c-0.29-0.82-0.65-1.62-0.85-2.47
					c-0.33-1.42-0.76-2.77-1.84-3.81c-0.65-0.63-1.46-1.19-2.35-0.63c-1.01,0.65-0.48,1.6-0.06,2.33c0.83,1.45,1.8,2.82,1.88,4.57
					c-7.82,0-15.63,0-23.45,0c1.78-1.89,4.22-2.92,6.57-3.05c5.08-0.29,7.24-3.86,9.62-7.38c2.15-1.16,2.51-3.44,3.39-5.4
					c1.66,0.28,3.33,0.25,4.99,0.08c1.09-0.11,2.39-0.24,2.66-1.57c0.27-1.29-0.82-2.02-1.74-2.6c-1.45-0.93-3.02-1.69-4.51-2.56
					c-6.64-3.88-6.64-3.89-11.37,1.86c-1.19,1.45-2.52,2.19-4.31,0.99c-0.6-2.63-1.89-4.64-4.62-5.58
					c-2.17-0.75-4.31-2.11-4.44-4.48c-0.14-2.64,2.51-3.36,4.46-4.37c5.88-3.06,11.63-1.37,17.33,0.57c3.24,1.1,6.42,2.39,9.6,3.65
					c4.51,1.79,9.09,2.02,13.83,1.03c2.23-0.47,4.52-0.98,6.85-0.53c3.08,0.6,3.29,1.15,1.41,3.56c-0.19,0.24-0.37,0.49-0.58,0.76
					C145.79,169.88,146.77,169.34,147.49,169.98z"/>
				<path class="st3" d="M112,184.01c-2.38,3.52-4.54,7.1-9.62,7.38c-2.35,0.13-4.79,1.16-6.57,3.05c-7.52,0-15.05,0.01-22.57,0.01
					c0.45-2.43,2.49-2.39,4.25-2.66c2.36-0.36,4.78,0.12,7.13-0.49c2.25-0.59,3.81-2.9,3.55-5.2c-0.25-2.16-1.82-3.7-3.86-3.45
					c-2.99,0.38-5.44-0.55-7.74-2.39c-3.51-2.81-6.15-2.91-9.24,0.39c-2.4,2.57-5.01,2.89-7.97,2.21c-3.11-0.71-5.29,0.22-6.74,3
					c-0.92,0-1.85,0.01-2.77,0.01c-0.83-2.83,0.73-4.9,2.45-6.72c0.94-1,2.31-1.78,3.64-2.22c5.37-1.79,9.98-5.19,15.27-7.15
					c0.6-0.22,1.1-0.69,1.72-0.29c3.81,2.48,8.06,3.16,12.51,3.2c1.08,0.01,2.16,0.48,3.24,0.74c-2.44,3.56-2.37,3.86,1.47,5.67
					c1.71,0.81,2.85,1.96,2.79,3.99c-0.04,1.17,0.58,1.97,1.25,2.92c1.92,2.72,4.44,2.89,7.3,2.26c2.25,0.48,3.78-0.49,4.74-2.45
					c0.52-1.07,1.26-1.93,2.1-2.72c0.6-0.02,1.19-0.04,1.79-0.07C110.73,183.36,111.36,183.69,112,184.01z"/>
				<path class="st6" d="M188.54,65.3c-0.96,0.01-1.91,0-2.87,0.02c-1.69,0.04-2.57-0.57-2.79-2.45c-0.47-4.07-5.48-6.35-8.91-4.05
					c-1.69,1.14-3.29,1.45-5.15,0.75c-0.63-0.23-1.23-0.48-1.24-1.25c-0.01-0.76,0.57-1.16,1.2-1.3c1.37-0.29,2.44-1.11,3.55-1.83
					c1.18-0.77,1.79-1.93,1.16-3.28c-0.65-1.39-1.85-0.83-2.92-0.51c-4.88,1.43-5.37,1.27-8.42-2.77c-1.56-2.06-3.61-2.32-5.99-1.83
					c-1.45,0.3-3.29,1.2-3.9-1.19c-0.52-2.05,0.92-4.25,3.09-4.57c3.58-0.53,6.99,0.29,10.11,2.01c3.25,1.8,6.25,2.66,9.65,0.13
					c3.22-2.39,5.19-1.76,7.63,1.46c0.83,1.1,1.34,2.61,2.94,2.98c0.66,1.08,1.28,2.24,2.85,1.26
					C188.54,54.36,188.54,59.83,188.54,65.3z"/>
				<path class="st4" d="M27.76,174.9c-0.07,2.12-1.3,2.96-3.27,2.83c-1.72-0.11-3.16,0.11-4.43,1.57
					c-0.85,0.99-2.25,1.42-3.69,1.37c-1.03-0.04-2.17-0.2-3.06,0.16c-2.14,0.87-3.91,0.96-5.44-1.1c-0.57-0.77-1.57-0.53-2.45-0.35
					c-2.67,0.54-3.91-0.38-3.93-3.1c-0.01-1.57,0.29-3.14,0.42-4.72c0.14-1.7-0.17-3.31-0.97-4.83c-0.93-1.26-1.85-2.52-2.78-3.78
					c0-2.24,0.01-4.48,0.01-6.71c0.14-0.09,0.29-0.18,0.43-0.27c0.73,0.02,1.46,0.04,2.19,0.06c1.28,0.07,2.37,0.51,3.08,1.65
					c0.08,1.46,1.15,1.73,2.29,1.91c4.09,0.65,5.07,1.84,4.94,6.01c-0.09,3.02,0.05,3.19,3.17,3.09c1.39-0.04,3.09-0.21,3.46,1.34
					c0.74,3.14,2.91,3.01,5.28,2.92C24.87,172.87,26.73,172.93,27.76,174.9z"/>
				<path class="st2" d="M52.6,185.87c1.46-2.78,3.63-3.71,6.74-3c2.96,0.68,5.57,0.36,7.97-2.21c3.09-3.3,5.72-3.2,9.24-0.39
					c2.3,1.84,4.75,2.77,7.74,2.39c2.05-0.26,3.61,1.28,3.86,3.45c0.26,2.3-1.3,4.61-3.55,5.2c-2.34,0.62-4.77,0.13-7.13,0.49
					c-1.77,0.27-3.8,0.23-4.25,2.66c-4.59,1.04-9.25,0.39-13.88,0.48c0.59-0.5,1-1.24,1.86-1.36c2.58-0.37,5-1.54,7.67-1.43
					c0.79,0.03,1.78,0.05,1.73-1.08c-0.04-0.92-0.85-1.29-1.72-1.28c-1.34,0.01-2.69,0.05-4.03,0.15c-3.65,0.29-7.1,0.07-9.68-3.06
					C54.56,186.12,53.62,185.8,52.6,185.87z"/>
				<path class="st4" d="M11.5,194.92c2.53-2.46,5.3-4.51,8.87-5.2c1.08-0.21,2.16-0.42,3.23-0.63c3.19-1.16,6.26-2.74,9.75-2.84
					c4.65-1.94,8.74-0.41,12.68,2.04c1.16,1.75,2.79,2.79,4.85,3.16c3.01,0.53,3.01,0.51,2.2,3.46
					C39.23,194.92,25.36,194.92,11.5,194.92z"/>
				<path class="st4" d="M-0.49,141.84c4.65,0.08,9.3,0.87,13.89-0.83c1.53-0.57,3.31-0.07,4.87,0.67c2.68,1.27,3.1,2.51,1.83,5.43
					c-2.83,1.31-5.73,2.35-8.93,2.17c-1.19-0.07-2.39-0.23-3.55,0.22c-2.84,0.69-5.58,1.98-8.62,1.52
					c-0.28-0.04-0.55-0.08-0.83-0.12c-0.03-2.45-0.02-4.9-0.09-7.35C-1.95,142.49-1.62,141.86-0.49,141.84z"/>
				<path class="st6" d="M161.78,186.41c2.04-0.16,3.8-1.71,5.93-1.3c3.04,0.59,5.67,1.85,7.19,4.8c0.75,1.46,2.18,2.48,2.73,4.08
					c-1.65-0.01-3.29-0.03-4.94-0.04c-2.49-2.9-6.66-3.63-9.76-1.71c-2.67,1.66-4.58,1.59-7.08-0.38c-1.3-1.03-2.55-1.14-3.89-0.16
					c-0.5,0.37-0.91,0.91-1.63,0.88c-0.99-2.59,0.19-4.25,2.94-4.85C156.08,187.11,159.16,188.25,161.78,186.41z"/>
				<path class="st6" d="M53.09,194.92c0.8-2.95,0.8-2.93-2.2-3.46c-2.05-0.36-3.69-1.4-4.85-3.16c1.56-0.34,2.8-1.19,3.79-2.43
					c0.92,0,1.85-0.01,2.77-0.01c1.01-0.06,1.95,0.25,2.57,1c2.59,3.13,6.04,3.34,9.68,3.06c1.34-0.11,2.69-0.14,4.03-0.15
					c0.87-0.01,1.68,0.37,1.72,1.28c0.05,1.13-0.94,1.11-1.73,1.08c-2.67-0.11-5.09,1.06-7.67,1.43c-0.86,0.12-1.28,0.86-1.86,1.36
					C57.26,194.93,55.18,194.92,53.09,194.92z"/>
				<path class="st4" d="M135.08,194.43c1.95-1.54-0.03-2.27-0.73-3.11c-1.94-2.34-1.72-4.35,0.86-5.2c2.67-0.87,5.41-1.07,8.1,0.09
					c0.43,0.19,0.86,0.38,1.28,0.58c1.04,0.48,1.44,1.48,1.95,2.39c-0.25,1.75-2.45,3.47-0.07,5.25
					C142.67,194.43,138.88,194.43,135.08,194.43z"/>
				<path class="st6" d="M2.84,127.91c1.51,0.03,3.02,0.06,4.53,0.09c0.72,0.02,1.45-0.05,2.14,0.09c1.53,0.3,3.24,0.79,3.3,2.58
					c0.06,1.8-1.31,3-3.03,3.48c-3.24,0.92-6.57,1.13-9.93,1.06c-0.56-0.01-1.12,0.02-1.67,0.03c-0.01-2.1-0.01-4.2-0.02-6.3
					C-0.28,128.6,1.28,128.25,2.84,127.91z"/>
				<path class="st4" d="M179.52,142.9c0.96,0.45,1.92,0.9,2.88,1.35c0.73,0.66,1.87,0.81,2.36,0.29c1.22-1.29,3.18-1.24,4.26-2.64
					c0.01,2.55,0.02,5.1,0.03,7.65c-2.93-1.37-5.91-2.17-9.16-1.11c-0.77,0.25-1.58-0.15-2.25-0.57c-1.37-0.87-2.35-2.11-1.8-3.77
					C176.44,142.26,178.16,142.96,179.52,142.9z"/>
				<path class="st4" d="M183,180.59c-0.3-0.91-1.23-1.17-1.82-1.77c-1.47-1.48-1.13-2.85,0.92-3.39c1.9-0.5,3.72,0.16,5.57,0.45
					c0.33,0.49,0.86,0.42,1.35,0.47c0,2.86,0.01,5.72,0.01,8.58c-0.94,0.13-1.54-0.28-2.22-0.96
					C185.62,182.77,184.72,181.2,183,180.59z"/>
				<path class="st4" d="M188.55,39.42c-3.54-0.3-7.66-4.51-7.61-7.77c0.03-2.08,0.97-2.69,3.09-2.17c1.96,0.48,2.95,2.26,4.52,3.24
					C188.55,34.95,188.55,37.18,188.55,39.42z"/>
				<path class="st4" d="M150.33,192.58c0.71,0.02,1.13-0.52,1.63-0.88c1.34-0.98,2.59-0.87,3.89,0.16
					c2.49,1.97,4.41,2.04,7.08,0.38c3.1-1.93,7.27-1.2,9.76,1.71c-6.32,0.03-12.64,0.06-18.96,0.08c-1.46,0.01-2.94-0.11-4.36,0.41
					C149.3,193.62,150.12,193.26,150.33,192.58z"/>
				<path class="st2" d="M150.33,192.58c-0.2,0.68-1.03,1.04-0.96,1.86c-0.97,0-1.93-0.01-2.9-0.01c-2.38-1.78-0.17-3.51,0.07-5.25
					c0.35,0.38,0.38,1.4,1.3,0.69c0.8-0.63,1.77-1.16,2.34-1.96c0.76-1.07,1.78-1.7,2.91-1.83c2.89-0.34,5.83-0.65,8.69,0.34
					c-2.61,1.84-5.69,0.7-8.51,1.32C150.52,188.33,149.34,189.99,150.33,192.58z"/>
				<path class="st6" d="M184.53,165.82c-1.94,0.31-3.87,0.66-5.81,0.92c-0.64,0.09-1.54,0.46-1.87-0.44
					c-0.37-1.02,0.51-1.7,1.2-2.05c1.26-0.65,2.72-0.67,4.13-0.77c0.61-0.04,1.28,0.09,1.69-0.57c1.73,0.33,2.83-0.68,3.87-1.83
					c0.43,0.14,0.86,0.28,1.28,0.42c0,1.43,0,2.85,0,4.28C187.53,165.79,186.03,165.81,184.53,165.82z"/>
				<path class="st2" d="M184.53,165.82c1.5-0.01,3-0.02,4.5-0.03c-0.01,3.52-0.01,7.05-0.02,10.57c-0.49-0.05-1.01,0.02-1.35-0.47
					c0.17-1.78-0.98-3.14-1.59-4.64C185.35,169.48,184.81,167.7,184.53,165.82z"/>
				<path class="st6" d="M188.99,134.6c-3.49-0.23-4.1-0.8-4.75-4.4c-0.06-1.29,0.6-1.74,1.84-1.76c0.99-0.02,1.97-0.26,2.95-0.41
					C189.02,130.22,189.01,132.41,188.99,134.6z"/>
				<path class="st4" d="M119.25,194.44c-0.08-1.75-1.05-3.12-1.88-4.57c-0.42-0.74-0.95-1.69,0.06-2.33c0.88-0.56,1.69,0,2.35,0.63
					c1.08,1.03,1.51,2.39,1.84,3.81c0.2,0.84,0.56,1.65,0.85,2.47C121.4,194.44,120.32,194.44,119.25,194.44z"/>
				<path class="st2" d="M189.01,141.91c-1.08,1.4-3.04,1.34-4.26,2.64c-0.49,0.52-1.63,0.37-2.36-0.29
					c0.15-2.92,0.83-3.69,3.78-3.83c1.06-0.05,1.92-0.47,2.84-0.83C189.01,140.36,189.01,141.13,189.01,141.91z"/>
				<path class="st4" d="M-1.83,178.26c1.68,0.91,3.31,1.82,3.31,4.12c0,2.41-0.77,3.28-3.32,3.52
					C-1.83,183.35-1.83,180.8-1.83,178.26z"/>
				<path class="st4" d="M0.08,192.61c1.39-0.15,2.72-0.6,4.16-0.52c1.87,0.1,2.95,0.86,2.95,2.84c-2.7,0-5.4,0.01-8.11,0.01
					C-0.98,193.99-0.03,193.48,0.08,192.61z"/>
				<path class="st6" d="M188.55,84.41c-0.69-0.16-1.43-0.22-2.08-0.49c-1.87-0.76-2.14-1.98-0.81-3.49
					c0.95-1.07,1.92-2.11,2.89-3.17C188.55,79.65,188.55,82.03,188.55,84.41z"/>
				<path class="st2" d="M183,180.59c1.72,0.61,2.62,2.18,3.81,3.39c0.67,0.68,1.28,1.09,2.22,0.96c0.01,0.5,0.02,1,0.03,1.5
					C184.36,186.44,182.24,184.4,183,180.59z"/>
				<path class="st4" d="M189.03,161.5c-0.43-0.14-0.86-0.28-1.28-0.42c-1.4-1.68-2.55-3.43-1.51-5.75c0.93-0.13,1.85-0.26,2.78-0.4
					C189.01,157.13,189.02,159.31,189.03,161.5z"/>
				<path class="st6" d="M-1.83,150.89c0.28,0.04,0.55,0.08,0.83,0.12c0.19,0.78,0.8,0.83,1.46,0.9c2.16,0.24,2.45,0.88,1.3,2.77
					c-0.29,0.47-0.64,0.9-0.96,1.35c-0.73-0.02-1.46-0.04-2.19-0.06c-0.13-0.1-0.27-0.16-0.43-0.17
					C-1.83,154.16-1.83,152.53-1.83,150.89z"/>
				<path class="st4" d="M188.54,48.88c-1.57,0.98-2.19-0.19-2.85-1.26c0.1-1.81,1.06-2.61,2.85-2.45
					C188.54,46.41,188.54,47.65,188.54,48.88z"/>
				<path class="st6" d="M-1.84,162.95c0.93,1.26,1.85,2.52,2.78,3.78c-0.93,0.01-1.85,0.01-2.78,0.02
					C-1.83,165.48-1.84,164.21-1.84,162.95z"/>
				<path class="st3" d="M0.08,192.61c-0.11,0.87-1.07,1.38-1,2.32c-1.91-0.57-0.63-2.11-0.96-3.16
					C-1.22,192.05-0.57,192.33,0.08,192.61z"/>
				<path class="st2" d="M-1.83,155.8c0.16,0.01,0.31,0.06,0.43,0.17c-0.14,0.09-0.29,0.18-0.43,0.27
					C-1.9,156.09-1.91,155.94-1.83,155.8z"/>
				<path class="st4" d="M-1.43-11.75c2.72,0,5.44,0,8.16,0C6.31-9.22,5.19-8.42,2.21-8.54C-0.49-8.64-1.26-9.32-1.43-11.75z"/>
				<path class="st4" d="M172.41-12.7c0.92,1.39,1.93,2.74,2.72,4.2c0.6,1.1,0.74,2.41-0.51,3.2c-1.31,0.84-2.23-0.01-3-1.05
					c-0.19-0.26-0.45-0.48-0.57-0.76c-0.46-1.04-1.15-1.74-2.36-1.59c-1.13,0.14-1.5,1.06-1.8,2c-0.12,0.38-0.22,0.76-0.33,1.13
					c-0.44,0.75-0.84,1.52-1.32,2.24c-0.99,1.5-1.96,2.29-3.97,1.1c-2.88-1.7-3.76-1.33-5.78,1.35c-0.77,1.01-1.39,2.15-2.24,3.09
					c-2.06,2.28-4,2.67-6.73,1.3c-0.89-0.45-1.53-0.43-2.43-0.05c-2.13,0.89-4.18,1.14-6.06-0.84c-5.15-5.42-11.23-4.96-16.57-1.36
					c-1.74,1.18-6.93-0.21-7.76-2.14c-0.64-1.49,0.43-1.72,1.59-1.84c0.89-0.09,2.46,0.48,2.52-0.46c0.07-1.02-0.73-2.33-1.96-2.93
					c-0.63-0.31-1.28-0.6-1.92-0.91c-0.33-2.05-0.35-3.8,2.45-4.16c0.73-0.09,1.87-0.51,2.29-1.51c1.26,0,2.52,0.01,3.78,0.01
					c0.76,1.14,1.96,0.88,3.04,0.89c1.64,0.01,3.17,0.16,4.18,1.74c0.29,0.46,0.86,0.7,1.47,0.66c2.72,1.69,4.9,0.33,5.26-3.29
					C148.43-12.7,160.42-12.7,172.41-12.7z"/>
				<path class="st7" d="M105.81-6.04c-2.2,1.8-4.71,0.72-7.1,0.77c-0.78,0.02-1.57-0.26-2.36-0.25c-3.75,0.05-4.78,1.39-3.89,4.98
					c0.15,0.61,0.32,1.23,0.48,1.84c0.8,3.02-0.21,4.59-3.24,3.92c-3.87-0.86-6.87,0.72-10.02,2.26c-1.06,0.52-2.08,1.13-3.11,1.69
					c-1.84-1.96-0.86-3.8,0.3-5.57c1.21-1.85,1.44-3.69,0.79-5.85c-0.48-1.61-1.44-1.95-2.83-1.87c-1.53,0.09-2.21,1.02-2.4,2.47
					c-0.55,4.37-0.56,4.36-5.1,4.67c-1.02,0.07-2.08,0.06-2.56,1.29c-0.4,1-1.23,0.78-2.02,0.58C62.46,3.53,63.36,3,64.36,2.39
					c2.79-1.72,3.23-3.05,2.2-6.09c0.23-0.03,0.48-0.11,0.69-0.07c2.05,0.45,3.84,0.11,4.99-1.81c1.04-1.71,0.63-3.29-0.55-4.82
					c-0.35-0.46-0.34-1.19-0.5-1.8c7.71-0.01,15.41-0.02,23.12-0.03c-1.02,2.69,0,4.02,2.77,3.55c1.17-0.19,2.31-0.53,3.48-0.7
					C103.79-9.84,104.76-9.2,105.81-6.04z"/>
				<path class="st6" d="M105.81-6.04c-1.05-3.16-2.02-3.8-5.23-3.33c-1.17,0.17-2.32,0.51-3.48,0.7c-2.77,0.46-3.79-0.86-2.77-3.55
					c8.12-0.5,16.25-0.73,24.39-0.47c-0.43,1.01-1.57,1.42-2.3,1.51c-2.8,0.36-2.78,2.11-2.45,4.16c-1.35-0.13-2.44,0.28-3.4,1.31
					C108.64-3.65,107.73-3.75,105.81-6.04z"/>
				<path class="st2" d="M71.2-12.19c0.16,0.61,0.15,1.34,0.5,1.8c1.18,1.53,1.58,3.11,0.55,4.82c-1.16,1.91-2.94,2.26-4.99,1.81
					c-0.22-0.05-0.46,0.04-0.69,0.07l0.02,0.04c0.09-0.38-0.2-0.37-0.43-0.42c-1.97-1.18-4.13-1.93-6.27-2.76
					c-3.21-1.24-3.55-2.32-1.9-5.36C62.38-12.2,66.79-12.19,71.2-12.19z"/>
				<path class="st6" d="M131.17-9.4c-0.61,0.04-1.18-0.2-1.47-0.66c-1.01-1.57-2.54-1.73-4.18-1.74c-1.08-0.01-2.28,0.25-3.04-0.89
					c3.69,0,7.39,0,11.08,0C132.77-11.59,131.56-10.8,131.17-9.4z"/>
				<path class="st2" d="M131.17-9.4c0.39-1.39,1.6-2.18,2.39-3.29c0.96,0,1.91-0.01,2.87-0.01C136.07-9.07,133.89-7.71,131.17-9.4z
					"/>
				<path class="st3" d="M86.47,52.29c2.03-1.44,4.06-1.82,6.09-0.01C90.53,53.38,88.5,52.48,86.47,52.29z"/>
				<path class="st3" d="M95.31,129.43c-2.27,0.65-4.37,1.56-5.94,3.44c-0.57,0.69-1.42,0.46-2.19,0.35
					c1.14-3.2,4.06-3.85,6.81-4.75C94.34,128.92,94.63,129.45,95.31,129.43z"/>
				<path class="st7" d="M66.15-4.08c0.23,0.05,0.52,0.03,0.43,0.42C66.44-3.8,66.29-3.94,66.15-4.08z"/>
				<path class="st2" d="M152.72,76.19c-0.84-0.06-1.43,0.46-2.12,0.82c-2.84,1.47-5.64,0.57-8.42-0.33
					C145.59,74.51,149.15,75.15,152.72,76.19z"/>
				<path class="st2" d="M46.95,105.46c-0.53-2-2.24-2.74-3.84-3.62c-2.79-1.52-5.67-2.96-7-6.14c-0.18-0.43-0.2-0.92-0.3-1.38
					c5.61,1.48,9.83,5.13,13.96,8.92c-0.43,1.09-1.22,1.79-2.28,2.24C47.32,105.47,47.14,105.46,46.95,105.46z"/>
				<path class="st2" d="M52.69,102.73c-0.21,0.06-0.42,0.12-0.63,0.19C52.28,102.86,52.49,102.79,52.69,102.73z"/>
				<path class="st3" d="M66.73,142.87c0.82-0.65,0.94-1.3,0.31-2.23c-2.06-3.05-2.05-3.52,0.04-6.18c0.78-0.99,0.97-1.83,0.23-2.99
					c-0.73-1.15-1.53-1.76-2.9-1.46c-0.15,0.03-0.33,0.05-0.45,0.14c-2.88,1.9-4.94,0.72-6.73-1.73c-1.21-1.65-2.96-1.69-4.74-1.28
					c-1.33,0.3-2.64,0.53-4,0.26c1.94-1.25,3.7-2.43,5.09-4.59c2.35-3.65,10.49-3.67,13.36-0.38c1.99,2.29,4.4,3.11,7.3,3.21
					c1.59,0.05,3.92-0.17,4.13,1.86c0.22,2.06-2.18,1.97-3.6,2.29c-2.1,0.47-3.37,1.86-3.61,3.66c-0.3,2.3,2.04,2.45,3.56,3.16
					c-1.19,1.23-2.37,2.47-3.57,3.68c-0.82,0.83-1.26,1.76-0.89,2.94C68.88,144.99,67.84,143.56,66.73,142.87z"/>
				<path class="st2" d="M186.23,155.33c-1.03,2.32,0.11,4.07,1.51,5.75c-1.04,1.14-2.14,2.15-3.87,1.82
					c-0.57-2.27-1.53-4.24-3.59-5.59c-3.27-2.14-3.26-2.45-0.48-5.31c0.21-0.22,0.39-0.48,0.58-0.72
					C183.12,151.49,184.31,153.93,186.23,155.33z"/>
				<path class="st6" d="M145.46,133.67c0.06,0.79,0.13,1.59,0.19,2.38C144.71,135.33,145,134.51,145.46,133.67z"/>
				<path class="st6" d="M46.95,105.46c0.18,0.01,0.36,0.01,0.55,0.02c-2.14,2.13-3.15,2.23-5.43,0.51
					c-0.62-0.47-1.21-0.99-1.81-1.48C42.49,104.82,44.72,105.14,46.95,105.46z"/>
				<path class="st6" d="M140.72,40.84c0.34-1.57,0.69-3.15,1.03-4.72c2.35,0.33,4.71,0.59,7.05,1c1.01,0.18,2.23,0.57,2.26,1.77
					c0.03,1.34-1.24,1.35-2.26,1.57C146.12,41.03,143.42,40.75,140.72,40.84z"/>
				<path class="st3" d="M7.62,149.49c1.16-0.44,2.36-0.28,3.55-0.22c3.2,0.18,6.1-0.85,8.93-2.17c3.35,0.7,5.29,0.18,7.4-3.51
					c2.01-3.51,4.34-4.12,7.85-2.23c1.77,0.95,3.61,1.06,5.67,0.47c2.83-0.8,5.56-1.9,8.37-2.7c2.63-0.75,5.32-0.79,7.56,1.27
					c-2.69,0.73-3.21,2.08-1.58,4.2c0.38,0.5,0.82,1.01,1.34,1.35c1.43,0.92,1.96,2.15,1.8,3.84c-0.18,1.91,0.83,2.97,2.73,3.21
					c0.71,0.09,1.43,0.16,2.12,0.34c2.33,0.62,2.29,2.58,2.37,4.41c0.06,1.44-0.34,3.2-1.92,3.04c-2.87-0.29-4.24,1.54-5.87,3.16
					c-0.69-1.61-0.37-3.3-0.42-4.96c-0.09-3.05-0.91-4.08-3.87-4.79c-3.28-0.79-3.81-1.56-3.05-4.77c0.39-1.65-0.23-2.73-1.75-3.12
					c-4.58-1.17-9.17-0.94-13.67,0.39c-1.53,0.45-2.17,2.04-2.87,3.34c-1.75,3.24-4.23,5.02-8.04,4.68
					c-1.26-0.11-2.55-0.03-3.76,0.49c-2.41,1.02-2.83,3.45-0.59,4.78c3.1,1.85,6.52,2.98,10.22,2.63c2.53-0.24,5.04-0.74,7.57-0.97
					c1.07-0.09,2.41-0.08,2.93,1.13c0.54,1.28-0.6,2.01-1.37,2.79c-0.66,0.67-1.24,1.48-2.02,1.96c-3.44,2.09-6.99,4.03-9.48,7.34
					c-1.04-1.97-2.89-2.03-4.74-1.96c-2.36,0.09-4.54,0.23-5.28-2.92c-0.36-1.55-2.07-1.39-3.46-1.34c-3.12,0.1-3.26-0.07-3.17-3.09
					c0.13-4.18-0.85-5.36-4.94-6.01c-1.14-0.18-2.22-0.45-2.29-1.91c0.45-0.32,0.86-0.71,1.35-0.95c1.69-0.82,2.57-1.82,1.7-3.87
					C6.47,151.76,6.95,150.53,7.62,149.49z"/>
				<path class="st4" d="M57.93,163.97c1.64-1.63,3-3.46,5.87-3.16c1.57,0.16,1.98-1.6,1.92-3.04c-0.08-1.83-0.04-3.79-2.37-4.41
					c-0.69-0.18-1.41-0.25-2.12-0.34c-1.9-0.24-2.91-1.3-2.73-3.21c0.16-1.69-0.38-2.92-1.8-3.84c-0.52-0.34-0.95-0.85-1.34-1.35
					c-1.63-2.12-1.11-3.48,1.58-4.2c2.3-0.21,4.4,0.4,6.39,1.51c1.05,0.59,2.15,1.04,3.39,0.95c1.11,0.69,2.15,2.12,3.52,0.37
					c1.62,0.25,3.19,0.01,4.6-0.77c2.48-1.37,5.11-1.4,7.79-1.11c3.32,0.36,4.24,2.15,2.63,5.02c-0.19,0.34-0.38,0.68-0.58,1.02
					c-1.81,0.41-3.63,0.76-5.42,1.25c-0.49,0.14-1.62-0.17-1.28,1.07c0.27,1.5-0.6,2.16-1.85,2.6c-1.82,0.64-2.15,1.83-1.41,3.58
					c1.7,4.01,1.63,3.99-1.88,6.55c-2,1.46-3.77,3.16-4.96,5.4c-1.17,2.21-3.27,3.21-5.54,3.1c-2.92-0.15-5.08,1.03-7.04,2.87
					c-1.4,1.31-2.93,2.03-4.89,2.09c-2.79,0.08-4.62,1.69-5.96,4.08c-2.7,4.8-6.68,5.55-11.43,3.83c-3.65-1.33-3.75-6.29-0.56-9.06
					c2.47-2.14,5.15-3.3,8.47-2.75c3.41,0.56,6.05-0.41,7.58-3.77c0.99-2.16,3.07-1.93,4.97-1.95
					C55.38,166.27,57.23,166.22,57.93,163.97z"/>
				<path class="st4" d="M110.09,183.04c-0.6,0.02-1.19,0.04-1.79,0.07c-2.94-1.11-4.81-0.82-5.26,1.02
					c-0.35,1.48-1.1,2.76-1.58,4.16c-2.86,0.63-5.37,0.46-7.3-2.26c-0.67-0.95-1.28-1.75-1.25-2.92c0.06-2.02-1.08-3.18-2.79-3.99
					c-3.84-1.81-3.91-2.11-1.47-5.67c2.89-2.21,5.79-1.39,8.74-0.12c1.22,0.53,2.27,1.49,3.7,1.48c1.79,1.2,3.12,0.46,4.31-0.99
					c4.73-5.75,4.73-5.74,11.37-1.86c1.49,0.87,3.06,1.63,4.51,2.56c0.92,0.59,2.01,1.31,1.74,2.6c-0.28,1.33-1.57,1.45-2.66,1.57
					c-1.66,0.17-3.33,0.2-4.99-0.08c-1.61-0.36-3.57-1.36-4.17,1.16C110.94,180.93,110.31,181.9,110.09,183.04z"/>
				<path class="st6" d="M77.99,149.73c-0.34-1.24,0.79-0.94,1.28-1.07c1.78-0.49,3.61-0.85,5.42-1.25
					c1.77,0.39,3.15-0.67,4.35-1.56c3.34-2.48,7.13-4.12,10.76-6.04c2.53-1.34,4.56,0.5,6.21,1.85c2.19,1.8,4.24,2.46,6.98,1.76
					c1.62-0.42,3.38,0.18,4.08,1.77c0.67,1.52,0.61,3.28-0.75,4.66c-2.58,2.62-5.65,3.34-9.23,2.72c-3.75-0.65-7.54-1.39-11.32-1.49
					c-5.02-0.14-9.99-0.44-14.93-1.39C79.93,149.49,78.94,149.7,77.99,149.73z"/>
				<path class="st6" d="M33.36,186.26c-3.5,0.1-6.57,1.68-9.75,2.84c-0.71-1.82-0.84-3.65,0.66-5.1c1.55-1.5,3.41-0.97,5.17-0.31
					C30.92,184.25,32.39,184.88,33.36,186.26z"/>
				<path class="st2" d="M128.8,175.37c2.81-3.95,7.84-5.76,11.96-4.33c-1.92,1.06-3.93,1.92-5.78,3.17
					C133.22,175.41,130.99,175.69,128.8,175.37z"/>
				<path class="st2" d="M110.09,183.04c0.22-1.14,0.85-2.11,1.12-3.26c0.6-2.52,2.55-1.52,4.17-1.16
					c-0.88,1.96-1.23,4.24-3.39,5.39C111.36,183.69,110.73,183.36,110.09,183.04z"/>
				<path class="st2" d="M101.47,188.28c0.48-1.4,1.22-2.68,1.58-4.16c0.44-1.84,2.32-2.13,5.26-1.02c-0.84,0.8-1.58,1.66-2.1,2.72
					C105.25,187.79,103.72,188.76,101.47,188.28z"/>
				<path class="st2" d="M7.62,149.49c-0.67,1.04-1.15,2.27-0.68,3.37c0.87,2.05-0.01,3.06-1.7,3.87c-0.49,0.24-0.9,0.63-1.35,0.95
					c-0.71-1.14-1.8-1.58-3.08-1.65c0.32-0.45,0.67-0.88,0.96-1.35c1.15-1.89,0.86-2.52-1.3-2.77c-0.66-0.07-1.27-0.12-1.46-0.9
					C2.04,151.47,4.78,150.18,7.62,149.49z"/>
			</g>
		</g>
	</g>
</g>
<path class="st8" d="M128.09,92.36c0,0,0.02,0.71,0.05,0.88c0.32,1.9,3.47,17.49,24.51,17.28c13.16-0.13,21.54-8.74,24.33-18.83
	c4.77-17.23-5.28-25.6-9.18-28.25c-1.19-0.81-4.32-3.73-4.08-5.88c0.47-4.28,3.1-4.29,6.61-8.52c4.08-4.92,8.86-12.95,6.39-22.93
	c-2.78-11.2-9.98-19.06-19.3-21.07c-13.17-2.83-21.31,2.21-26.77,8.44c-3.59,4.1-4.96,12.75-4.96,12.75l-16.87-0.43
	c0,0-2,15.72-18.11,15.96C76.26,41.99,73.42,26.3,73.42,26.3l-16.24,0.13c0,0-4.28-19.45-25.94-19.5
	C18.87,6.9,7.66,15.76,5.14,25.92c-0.9,3.64-0.97,6.94-0.83,9.93c0.48,9.91,9.45,18.05,13.45,20.08c0.54,0.27,2.68,2.72,2.8,3.26
	c0.19,0.91,0.12,1.42,0.13,1.7c0.08,1.37-0.04,1.2-0.08,1.5c-0.57,4.26-3.21,4.2-6.94,7.9C11.65,72.29,4.6,81.6,7.11,92.01
	c2.7,11.22,10.68,18.73,20.02,20.68c13.96,2.91,21.45-1.98,26.97-8.16c4.4-4.92,4.67-10.94,4.67-10.94l69.67-1.23"/>
<g>
	<path class="st9" d="M50.49,65.25c0.24-0.45,0.56-0.75,0.98-0.91c0.42-0.16,0.87-0.22,1.35-0.18s0.97,0.17,1.46,0.38
		c0.49,0.21,0.92,0.47,1.28,0.77s0.64,0.63,0.82,0.98s0.22,0.69,0.11,1.01c-0.49,1.43-1.17,2.59-2.02,3.48s-1.8,1.57-2.82,2.05
		c-1.03,0.48-2.1,0.8-3.22,0.95c-1.12,0.15-2.2,0.19-3.22,0.13c-1.26-0.06-2.5-0.35-3.72-0.85c-1.22-0.5-2.31-1.23-3.27-2.2
		s-1.75-2.16-2.37-3.59c-0.62-1.43-0.95-3.13-0.99-5.1c0.04-2.63,0.4-4.86,1.06-6.7s1.56-3.34,2.68-4.51s2.44-2.01,3.94-2.55
		c1.51-0.53,3.15-0.79,4.92-0.77c1.56,0.02,2.86,0.35,3.91,0.98s1.89,1.42,2.53,2.36s1.11,1.98,1.41,3.11s0.5,2.2,0.61,3.21
		c0.02,0.32-0.12,0.6-0.43,0.85c-0.31,0.25-0.71,0.44-1.2,0.59c-0.49,0.15-1.03,0.26-1.62,0.32c-0.59,0.06-1.13,0.07-1.62,0.03
		s-0.9-0.13-1.22-0.27s-0.46-0.33-0.42-0.56c0.09-0.56,0.06-1.1-0.08-1.64s-0.34-1-0.59-1.41c-0.26-0.41-0.55-0.73-0.88-0.98
		c-0.33-0.25-0.65-0.37-0.95-0.37c-0.9,0.02-1.69,0.28-2.37,0.77s-1.25,1.14-1.7,1.94c-0.45,0.8-0.79,1.72-1.01,2.74
		c-0.22,1.03-0.32,2.09-0.27,3.21c0.02,0.77,0.16,1.48,0.42,2.13c0.26,0.65,0.59,1.22,1.01,1.72c0.42,0.49,0.9,0.87,1.44,1.14
		s1.13,0.4,1.75,0.4c0.38,0,0.76-0.01,1.12-0.03c0.36-0.02,0.72-0.11,1.07-0.27c0.35-0.16,0.71-0.42,1.06-0.77
		S50.12,65.96,50.49,65.25z"/>
	<path class="st9" d="M71.23,73.2c-0.43,0.19-0.81,0.35-1.15,0.48c-0.34,0.13-0.68,0.23-1.03,0.3s-0.69,0.12-1.04,0.14
		s-0.74,0.01-1.17-0.03c-2.59-0.24-4.55-1.37-5.9-3.41s-2.11-4.82-2.28-8.32c-0.15-2.91,0.15-5.32,0.9-7.25
		c0.75-1.92,1.75-3.41,3-4.46c1.25-1.05,2.66-1.7,4.22-1.97c1.56-0.27,3.1-0.21,4.62,0.18c0.02-0.21,0.2-0.38,0.55-0.51
		s0.75-0.21,1.23-0.26c0.48-0.04,1-0.05,1.57-0.02c0.57,0.03,1.09,0.09,1.57,0.16c0.48,0.07,0.87,0.17,1.17,0.29
		c0.3,0.12,0.44,0.25,0.42,0.4c0.04,3.93,0.09,7.98,0.14,12.15s0.02,8.2-0.11,12.09c0,0.19-0.17,0.35-0.5,0.48
		c-0.33,0.13-0.74,0.22-1.23,0.29c-0.49,0.06-1.03,0.09-1.6,0.08c-0.58-0.01-1.11-0.04-1.6-0.08c-0.49-0.04-0.9-0.11-1.23-0.19
		c-0.33-0.09-0.5-0.19-0.5-0.32L71.23,73.2z M64.92,61.88c0.09,1.58,0.3,2.88,0.66,3.9s1.01,1.64,1.97,1.88
		c0.43,0.11,0.94,0.06,1.52-0.13c0.59-0.19,1.31-0.63,2.16-1.31c0-0.83,0.02-1.76,0.05-2.79c0.03-1.03,0.07-2.07,0.11-3.13
		s0.07-2.1,0.08-3.13c0.01-1.03,0.01-1.97-0.02-2.82c-0.98-0.24-1.89-0.26-2.73-0.08c-0.83,0.18-1.54,0.58-2.13,1.19
		s-1.04,1.45-1.35,2.52C64.94,59.04,64.83,60.35,64.92,61.88z"/>
	<path class="st9" d="M80.34,49.03c0-0.11,0.15-0.2,0.46-0.27c0.31-0.07,0.7-0.13,1.17-0.16c0.47-0.03,0.98-0.04,1.52-0.03
		c0.55,0.01,1.05,0.04,1.52,0.1c0.47,0.05,0.86,0.13,1.17,0.22c0.31,0.1,0.46,0.21,0.46,0.34l0.03,1.09
		c0.43-0.62,0.97-1.11,1.64-1.48s1.4-0.55,2.21-0.55c0.32,0,0.67,0.09,1.04,0.27c0.37,0.18,0.74,0.46,1.09,0.85
		c0.35,0.38,0.68,0.88,0.98,1.49c0.3,0.61,0.53,1.34,0.71,2.2c0.43-0.92,0.91-1.68,1.46-2.29c0.55-0.61,1.09-1.1,1.64-1.46
		c0.55-0.36,1.07-0.62,1.59-0.77c0.51-0.15,0.96-0.22,1.35-0.22c1.09,0,2,0.25,2.74,0.74s1.34,1.16,1.81,2
		c0.47,0.84,0.83,1.83,1.07,2.97c0.25,1.13,0.42,2.33,0.53,3.59c0.11,1.26,0.17,2.55,0.18,3.88c0.01,1.33,0.02,2.62,0.02,3.88
		c0,0.56,0,1.17,0,1.84c0,0.67-0.01,1.37-0.02,2.1c-0.01,0.73-0.02,1.45-0.03,2.16s-0.02,1.39-0.02,2.04
		c-0.02,0.06-0.19,0.13-0.51,0.19c-0.32,0.06-0.72,0.12-1.19,0.16c-0.47,0.04-0.98,0.07-1.52,0.1c-0.55,0.02-1.05,0.02-1.52-0.02
		c-0.47-0.03-0.86-0.08-1.17-0.14s-0.46-0.16-0.46-0.29c0-1.84,0.02-3.36,0.05-4.57c0.03-1.21,0.03-2.24-0.02-3.09
		c-0.02-0.53-0.03-1.16-0.02-1.88c0.01-0.72,0.02-1.46,0.02-2.23s-0.02-1.52-0.05-2.26c-0.03-0.74-0.09-1.4-0.18-1.99
		c-0.09-0.59-0.2-1.06-0.35-1.43s-0.35-0.55-0.61-0.55c-0.47,0.02-0.87,0.44-1.19,1.27s-0.57,1.93-0.75,3.33
		c-0.18,1.4-0.31,3.04-0.38,4.92c-0.07,1.88-0.1,3.88-0.08,6c0,0.11-0.14,0.2-0.43,0.29c-0.29,0.09-0.65,0.15-1.07,0.21
		c-0.43,0.05-0.89,0.09-1.38,0.11c-0.49,0.02-0.95,0.01-1.38-0.03s-0.78-0.11-1.06-0.21s-0.42-0.23-0.42-0.4
		c0.06-2.65,0.07-4.94,0.02-6.86s-0.15-3.52-0.3-4.78c-0.15-1.26-0.34-2.2-0.56-2.81c-0.22-0.61-0.48-0.94-0.75-0.98
		c-0.38-0.04-0.72,0.15-0.99,0.58c-0.28,0.43-0.51,1.01-0.71,1.75c-0.19,0.74-0.35,1.59-0.46,2.57c-0.12,0.97-0.21,1.99-0.27,3.05
		c-0.06,1.06-0.11,2.12-0.13,3.17s-0.03,2.04-0.03,2.95s0.01,1.7,0.03,2.37s0.03,1.16,0.03,1.46c0,0.06-0.15,0.13-0.46,0.19
		c-0.31,0.06-0.7,0.11-1.17,0.14c-0.47,0.03-0.98,0.05-1.54,0.05c-0.56,0-1.07-0.03-1.54-0.08c-0.47-0.05-0.86-0.13-1.17-0.24
		s-0.46-0.26-0.46-0.45L80.34,49.03z"/>
	<path class="st9" d="M109.81,53.71c-0.43-0.34-0.75-0.71-0.96-1.09c-0.21-0.38-0.33-0.78-0.34-1.19c-0.01-0.41,0.05-0.8,0.19-1.17
		c0.14-0.37,0.35-0.72,0.63-1.04c0.51-0.6,1.19-1,2.02-1.22c0.83-0.21,1.68-0.06,2.53,0.45c0.53,0.32,0.92,0.69,1.17,1.11
		c0.25,0.42,0.37,0.84,0.38,1.28c0.01,0.44-0.07,0.87-0.24,1.3c-0.17,0.43-0.42,0.81-0.74,1.15c-0.28,0.3-0.6,0.55-0.96,0.75
		c-0.36,0.2-0.75,0.34-1.15,0.4s-0.83,0.04-1.27-0.08C110.64,54.25,110.22,54.03,109.81,53.71z M109.01,55.57
		c-0.02-0.11,0.12-0.19,0.42-0.26s0.68-0.12,1.15-0.16c0.47-0.04,0.99-0.06,1.56-0.06s1.09,0.02,1.57,0.05
		c0.48,0.03,0.88,0.09,1.2,0.16s0.49,0.17,0.51,0.27c0.02,1.67,0.04,3.23,0.05,4.68s0.03,2.88,0.05,4.28
		c0.02,1.4,0.04,2.82,0.05,4.26s0.03,3,0.05,4.67c-0.04,0.09-0.23,0.15-0.56,0.21s-0.73,0.1-1.2,0.13
		c-0.47,0.03-0.98,0.05-1.52,0.05c-0.55,0-1.05-0.02-1.52-0.06c-0.47-0.04-0.87-0.11-1.19-0.19s-0.48-0.19-0.48-0.32L109.01,55.57z"
		/>
	<path class="st9" d="M117.54,48.48c0.02-0.11,0.18-0.2,0.46-0.29c0.29-0.09,0.65-0.15,1.07-0.19s0.89-0.07,1.38-0.1
		c0.49-0.02,0.95-0.01,1.36,0.03c0.42,0.04,0.77,0.11,1.06,0.21s0.43,0.23,0.43,0.4c0.06,1.92,0.1,3.62,0.1,5.1
		s-0.01,2.91-0.03,4.31s-0.04,2.84-0.05,4.31c-0.01,1.48-0.02,3.17-0.02,5.1h5.35c0.15,0.02,0.26,0.19,0.34,0.51
		c0.07,0.32,0.13,0.72,0.16,1.2c0.03,0.48,0.04,1,0.02,1.56s-0.06,1.07-0.11,1.54c-0.05,0.47-0.12,0.86-0.21,1.17
		s-0.17,0.46-0.26,0.46c-0.32,0-0.75,0-1.3,0c-0.55,0-1.11,0.01-1.7,0.02c-0.59,0.01-1.15,0.02-1.7,0.02c-0.55,0-0.98,0-1.3,0
		l-3.98-0.06c-0.13,0-0.26,0-0.38,0c-0.13,0-0.25-0.02-0.35-0.06c-0.11-0.04-0.19-0.13-0.26-0.26c-0.06-0.13-0.1-0.31-0.1-0.55
		V48.48z"/>
	<path class="st9" d="M148.22,61.34c-0.09,8.12-3.17,12.21-9.27,12.25c-1.43,0-2.74-0.25-3.93-0.74c-1.19-0.49-2.21-1.23-3.08-2.23
		s-1.54-2.23-2.02-3.7c-0.48-1.48-0.72-3.17-0.72-5.1c-0.02-2.65,0.25-4.86,0.8-6.64c0.56-1.77,1.3-3.2,2.23-4.26
		c0.93-1.07,2-1.83,3.22-2.29s2.47-0.7,3.75-0.72c1.54-0.02,2.88,0.31,4.02,0.99c1.14,0.68,2.09,1.63,2.84,2.84
		c0.75,1.21,1.3,2.63,1.65,4.28S148.24,59.44,148.22,61.34z M138.96,54.35c-0.73,0.04-1.33,0.27-1.8,0.67
		c-0.47,0.41-0.83,0.92-1.09,1.54c-0.26,0.62-0.43,1.33-0.51,2.12c-0.09,0.79-0.11,1.59-0.06,2.4c0.02,0.81,0.07,1.59,0.16,2.34
		c0.09,0.75,0.25,1.41,0.48,1.99c0.24,0.58,0.57,1.04,1.01,1.38s1.03,0.5,1.78,0.48c0.62-0.02,1.13-0.2,1.52-0.53
		c0.4-0.33,0.71-0.77,0.95-1.33c0.24-0.56,0.4-1.2,0.48-1.92c0.09-0.73,0.14-1.51,0.16-2.34c0.02-0.86-0.02-1.69-0.11-2.52
		c-0.1-0.82-0.26-1.56-0.5-2.2c-0.24-0.64-0.56-1.15-0.96-1.54C140.06,54.51,139.56,54.33,138.96,54.35z"/>
</g>
<g>
	<path class="st10" d="M50.49,65.25c0.24-0.45,0.56-0.75,0.98-0.91c0.42-0.16,0.87-0.22,1.35-0.18s0.97,0.17,1.46,0.38
		c0.49,0.21,0.92,0.47,1.28,0.77s0.64,0.63,0.82,0.98s0.22,0.69,0.11,1.01c-0.49,1.43-1.17,2.59-2.02,3.48s-1.8,1.57-2.82,2.05
		c-1.03,0.48-2.1,0.8-3.22,0.95c-1.12,0.15-2.2,0.19-3.22,0.13c-1.26-0.06-2.5-0.35-3.72-0.85c-1.22-0.5-2.31-1.23-3.27-2.2
		s-1.75-2.16-2.37-3.59c-0.62-1.43-0.95-3.13-0.99-5.1c0.04-2.63,0.4-4.86,1.06-6.7s1.56-3.34,2.68-4.51s2.44-2.01,3.94-2.55
		c1.51-0.53,3.15-0.79,4.92-0.77c1.56,0.02,2.86,0.35,3.91,0.98s1.89,1.42,2.53,2.36s1.11,1.98,1.41,3.11s0.5,2.2,0.61,3.21
		c0.02,0.32-0.12,0.6-0.43,0.85c-0.31,0.25-0.71,0.44-1.2,0.59c-0.49,0.15-1.03,0.26-1.62,0.32c-0.59,0.06-1.13,0.07-1.62,0.03
		s-0.9-0.13-1.22-0.27s-0.46-0.33-0.42-0.56c0.09-0.56,0.06-1.1-0.08-1.64s-0.34-1-0.59-1.41c-0.26-0.41-0.55-0.73-0.88-0.98
		c-0.33-0.25-0.65-0.37-0.95-0.37c-0.9,0.02-1.69,0.28-2.37,0.77s-1.25,1.14-1.7,1.94c-0.45,0.8-0.79,1.72-1.01,2.74
		c-0.22,1.03-0.32,2.09-0.27,3.21c0.02,0.77,0.16,1.48,0.42,2.13c0.26,0.65,0.59,1.22,1.01,1.72c0.42,0.49,0.9,0.87,1.44,1.14
		s1.13,0.4,1.75,0.4c0.38,0,0.76-0.01,1.12-0.03c0.36-0.02,0.72-0.11,1.07-0.27c0.35-0.16,0.71-0.42,1.06-0.77
		S50.12,65.96,50.49,65.25z"/>
	<path class="st10" d="M71.23,73.2c-0.43,0.19-0.81,0.35-1.15,0.48c-0.34,0.13-0.68,0.23-1.03,0.3s-0.69,0.12-1.04,0.14
		s-0.74,0.01-1.17-0.03c-2.59-0.24-4.55-1.37-5.9-3.41s-2.11-4.82-2.28-8.32c-0.15-2.91,0.15-5.32,0.9-7.25
		c0.75-1.92,1.75-3.41,3-4.46c1.25-1.05,2.66-1.7,4.22-1.97c1.56-0.27,3.1-0.21,4.62,0.18c0.02-0.21,0.2-0.38,0.55-0.51
		s0.75-0.21,1.23-0.26c0.48-0.04,1-0.05,1.57-0.02c0.57,0.03,1.09,0.09,1.57,0.16c0.48,0.07,0.87,0.17,1.17,0.29
		c0.3,0.12,0.44,0.25,0.42,0.4c0.04,3.93,0.09,7.98,0.14,12.15s0.02,8.2-0.11,12.09c0,0.19-0.17,0.35-0.5,0.48
		c-0.33,0.13-0.74,0.22-1.23,0.29c-0.49,0.06-1.03,0.09-1.6,0.08c-0.58-0.01-1.11-0.04-1.6-0.08c-0.49-0.04-0.9-0.11-1.23-0.19
		c-0.33-0.09-0.5-0.19-0.5-0.32L71.23,73.2z M64.92,61.88c0.09,1.58,0.3,2.88,0.66,3.9s1.01,1.64,1.97,1.88
		c0.43,0.11,0.94,0.06,1.52-0.13c0.59-0.19,1.31-0.63,2.16-1.31c0-0.83,0.02-1.76,0.05-2.79c0.03-1.03,0.07-2.07,0.11-3.13
		s0.07-2.1,0.08-3.13c0.01-1.03,0.01-1.97-0.02-2.82c-0.98-0.24-1.89-0.26-2.73-0.08c-0.83,0.18-1.54,0.58-2.13,1.19
		s-1.04,1.45-1.35,2.52C64.94,59.04,64.83,60.35,64.92,61.88z"/>
	<path class="st10" d="M80.34,49.03c0-0.11,0.15-0.2,0.46-0.27c0.31-0.07,0.7-0.13,1.17-0.16c0.47-0.03,0.98-0.04,1.52-0.03
		c0.55,0.01,1.05,0.04,1.52,0.1c0.47,0.05,0.86,0.13,1.17,0.22c0.31,0.1,0.46,0.21,0.46,0.34l0.03,1.09
		c0.43-0.62,0.97-1.11,1.64-1.48s1.4-0.55,2.21-0.55c0.32,0,0.67,0.09,1.04,0.27c0.37,0.18,0.74,0.46,1.09,0.85
		c0.35,0.38,0.68,0.88,0.98,1.49c0.3,0.61,0.53,1.34,0.71,2.2c0.43-0.92,0.91-1.68,1.46-2.29c0.55-0.61,1.09-1.1,1.64-1.46
		c0.55-0.36,1.07-0.62,1.59-0.77c0.51-0.15,0.96-0.22,1.35-0.22c1.09,0,2,0.25,2.74,0.74s1.34,1.16,1.81,2
		c0.47,0.84,0.83,1.83,1.07,2.97c0.25,1.13,0.42,2.33,0.53,3.59c0.11,1.26,0.17,2.55,0.18,3.88c0.01,1.33,0.02,2.62,0.02,3.88
		c0,0.56,0,1.17,0,1.84c0,0.67-0.01,1.37-0.02,2.1c-0.01,0.73-0.02,1.45-0.03,2.16s-0.02,1.39-0.02,2.04
		c-0.02,0.06-0.19,0.13-0.51,0.19c-0.32,0.06-0.72,0.12-1.19,0.16c-0.47,0.04-0.98,0.07-1.52,0.1c-0.55,0.02-1.05,0.02-1.52-0.02
		c-0.47-0.03-0.86-0.08-1.17-0.14s-0.46-0.16-0.46-0.29c0-1.84,0.02-3.36,0.05-4.57c0.03-1.21,0.03-2.24-0.02-3.09
		c-0.02-0.53-0.03-1.16-0.02-1.88c0.01-0.72,0.02-1.46,0.02-2.23s-0.02-1.52-0.05-2.26c-0.03-0.74-0.09-1.4-0.18-1.99
		c-0.09-0.59-0.2-1.06-0.35-1.43s-0.35-0.55-0.61-0.55c-0.47,0.02-0.87,0.44-1.19,1.27s-0.57,1.93-0.75,3.33
		c-0.18,1.4-0.31,3.04-0.38,4.92c-0.07,1.88-0.1,3.88-0.08,6c0,0.11-0.14,0.2-0.43,0.29c-0.29,0.09-0.65,0.15-1.07,0.21
		c-0.43,0.05-0.89,0.09-1.38,0.11c-0.49,0.02-0.95,0.01-1.38-0.03s-0.78-0.11-1.06-0.21s-0.42-0.23-0.42-0.4
		c0.06-2.65,0.07-4.94,0.02-6.86s-0.15-3.52-0.3-4.78c-0.15-1.26-0.34-2.2-0.56-2.81c-0.22-0.61-0.48-0.94-0.75-0.98
		c-0.38-0.04-0.72,0.15-0.99,0.58c-0.28,0.43-0.51,1.01-0.71,1.75c-0.19,0.74-0.35,1.59-0.46,2.57c-0.12,0.97-0.21,1.99-0.27,3.05
		c-0.06,1.06-0.11,2.12-0.13,3.17s-0.03,2.04-0.03,2.95s0.01,1.7,0.03,2.37s0.03,1.16,0.03,1.46c0,0.06-0.15,0.13-0.46,0.19
		c-0.31,0.06-0.7,0.11-1.17,0.14c-0.47,0.03-0.98,0.05-1.54,0.05c-0.56,0-1.07-0.03-1.54-0.08c-0.47-0.05-0.86-0.13-1.17-0.24
		s-0.46-0.26-0.46-0.45L80.34,49.03z"/>
	<path class="st10" d="M109.81,53.71c-0.43-0.34-0.75-0.71-0.96-1.09c-0.21-0.38-0.33-0.78-0.34-1.19c-0.01-0.41,0.05-0.8,0.19-1.17
		c0.14-0.37,0.35-0.72,0.63-1.04c0.51-0.6,1.19-1,2.02-1.22c0.83-0.21,1.68-0.06,2.53,0.45c0.53,0.32,0.92,0.69,1.17,1.11
		c0.25,0.42,0.37,0.84,0.38,1.28c0.01,0.44-0.07,0.87-0.24,1.3c-0.17,0.43-0.42,0.81-0.74,1.15c-0.28,0.3-0.6,0.55-0.96,0.75
		c-0.36,0.2-0.75,0.34-1.15,0.4s-0.83,0.04-1.27-0.08C110.64,54.25,110.22,54.03,109.81,53.71z M109.01,55.57
		c-0.02-0.11,0.12-0.19,0.42-0.26s0.68-0.12,1.15-0.16c0.47-0.04,0.99-0.06,1.56-0.06s1.09,0.02,1.57,0.05
		c0.48,0.03,0.88,0.09,1.2,0.16s0.49,0.17,0.51,0.27c0.02,1.67,0.04,3.23,0.05,4.68s0.03,2.88,0.05,4.28
		c0.02,1.4,0.04,2.82,0.05,4.26s0.03,3,0.05,4.67c-0.04,0.09-0.23,0.15-0.56,0.21s-0.73,0.1-1.2,0.13
		c-0.47,0.03-0.98,0.05-1.52,0.05c-0.55,0-1.05-0.02-1.52-0.06c-0.47-0.04-0.87-0.11-1.19-0.19s-0.48-0.19-0.48-0.32L109.01,55.57z"
		/>
	<path class="st10" d="M117.54,48.48c0.02-0.11,0.18-0.2,0.46-0.29c0.29-0.09,0.65-0.15,1.07-0.19s0.89-0.07,1.38-0.1
		c0.49-0.02,0.95-0.01,1.36,0.03c0.42,0.04,0.77,0.11,1.06,0.21s0.43,0.23,0.43,0.4c0.06,1.92,0.1,3.62,0.1,5.1
		s-0.01,2.91-0.03,4.31s-0.04,2.84-0.05,4.31c-0.01,1.48-0.02,3.17-0.02,5.1h5.35c0.15,0.02,0.26,0.19,0.34,0.51
		c0.07,0.32,0.13,0.72,0.16,1.2c0.03,0.48,0.04,1,0.02,1.56s-0.06,1.07-0.11,1.54c-0.05,0.47-0.12,0.86-0.21,1.17
		s-0.17,0.46-0.26,0.46c-0.32,0-0.75,0-1.3,0c-0.55,0-1.11,0.01-1.7,0.02c-0.59,0.01-1.15,0.02-1.7,0.02c-0.55,0-0.98,0-1.3,0
		l-3.98-0.06c-0.13,0-0.26,0-0.38,0c-0.13,0-0.25-0.02-0.35-0.06c-0.11-0.04-0.19-0.13-0.26-0.26c-0.06-0.13-0.1-0.31-0.1-0.55
		V48.48z"/>
	<path class="st10" d="M148.22,61.34c-0.09,8.12-3.17,12.21-9.27,12.25c-1.43,0-2.74-0.25-3.93-0.74c-1.19-0.49-2.21-1.23-3.08-2.23
		s-1.54-2.23-2.02-3.7c-0.48-1.48-0.72-3.17-0.72-5.1c-0.02-2.65,0.25-4.86,0.8-6.64c0.56-1.77,1.3-3.2,2.23-4.26
		c0.93-1.07,2-1.83,3.22-2.29s2.47-0.7,3.75-0.72c1.54-0.02,2.88,0.31,4.02,0.99c1.14,0.68,2.09,1.63,2.84,2.84
		c0.75,1.21,1.3,2.63,1.65,4.28S148.24,59.44,148.22,61.34z M138.96,54.35c-0.73,0.04-1.33,0.27-1.8,0.67
		c-0.47,0.41-0.83,0.92-1.09,1.54c-0.26,0.62-0.43,1.33-0.51,2.12c-0.09,0.79-0.11,1.59-0.06,2.4c0.02,0.81,0.07,1.59,0.16,2.34
		c0.09,0.75,0.25,1.41,0.48,1.99c0.24,0.58,0.57,1.04,1.01,1.38s1.03,0.5,1.78,0.48c0.62-0.02,1.13-0.2,1.52-0.53
		c0.4-0.33,0.71-0.77,0.95-1.33c0.24-0.56,0.4-1.2,0.48-1.92c0.09-0.73,0.14-1.51,0.16-2.34c0.02-0.86-0.02-1.69-0.11-2.52
		c-0.1-0.82-0.26-1.56-0.5-2.2c-0.24-0.64-0.56-1.15-0.96-1.54C140.06,54.51,139.56,54.33,138.96,54.35z"/>
</g>
</svg>
