<?xml version="1.0" encoding="utf-8"?>
<!-- Generator: Adobe Illustrator 24.0.2, SVG Export Plug-In . SVG Version: 6.00 Build 0)  -->
<svg version="1.1" id="Layer_1" xmlns="http://www.w3.org/2000/svg" xmlns:xlink="http://www.w3.org/1999/xlink" x="0px" y="0px"
	 viewBox="0 0 182.5 117.79" style="enable-background:new 0 0 182.5 117.79;" xml:space="preserve">
<style type="text/css">
	.st0{fill:none;}
	.st1{fill:#C07441;}
	.st2{fill:none;stroke:#7D1416;stroke-width:0.95;stroke-linecap:square;}
	.st3{fill:none;stroke:#971C49;stroke-width:0.95;stroke-linecap:square;}
	.st4{opacity:0.75;fill:#6D8E4D;}
	.st5{opacity:0.75;fill:#D5731E;}
	.st6{opacity:0.75;fill:#EEC63B;}
	.st7{opacity:0.5;fill:#FFFFFF;}
	.st8{opacity:0.6;fill:#1E110C;}
	.st9{opacity:0.33;fill:#FFFFFF;}
	.st10{fill:url(#SVGID_1_);}
</style>
<pattern  y="117.79" width="82.08" height="82.08" patternUnits="userSpaceOnUse" id="Cuadros_escoceses_4_Color_3" viewBox="5.7 -87.78 82.08 82.08" style="overflow:visible;">
	<g>
		<g>
			<rect x="5.7" y="-87.78" class="st0" width="82.08" height="82.08"/>
		</g>
		<rect x="5.7" y="-87.78" class="st1" width="82.08" height="82.08"/>
		<line class="st2" x1="4.89" y1="-36.48" x2="88.54" y2="-36.48"/>
		<line class="st2" x1="4.89" y1="-9.12" x2="88.54" y2="-9.12"/>
		<line class="st2" x1="4.89" y1="-63.84" x2="88.54" y2="-63.84"/>
		<line class="st3" x1="36.48" y1="-88.54" x2="36.48" y2="-4.89"/>
		<line class="st2" x1="63.84" y1="-88.54" x2="63.84" y2="-4.89"/>
		<line class="st2" x1="9.12" y1="-88.54" x2="9.12" y2="-4.89"/>
		<rect y="-47.88" class="st4" width="91.2" height="4.56"/>
		<rect y="-20.52" class="st5" width="91.2" height="4.56"/>
		<rect y="-75.24" class="st6" width="91.2" height="4.56"/>
		<rect y="-57" class="st5" width="91.2" height="4.56"/>
		<rect y="-29.64" class="st6" width="91.2" height="4.56"/>
		<rect y="-84.36" class="st4" width="91.2" height="4.56"/>
		<rect x="43.32" y="-91.2" class="st7" width="4.56" height="91.2"/>
		<rect x="70.68" y="-91.2" class="st6" width="4.56" height="91.2"/>
		<rect x="15.96" y="-91.2" class="st4" width="4.56" height="91.2"/>
		<rect x="52.44" y="-91.2" class="st5" width="4.56" height="91.2"/>
		<rect x="79.8" y="-91.2" class="st5" width="4.56" height="91.2"/>
		<rect x="25.08" y="-91.2" class="st8" width="4.56" height="91.2"/>
		<rect x="15.96" y="-75.24" class="st9" width="4.56" height="4.56"/>
		<rect x="25.08" y="-84.36" class="st9" width="4.56" height="4.56"/>
		<rect x="25.08" y="-75.24" class="st9" width="4.56" height="4.56"/>
		<rect x="15.96" y="-84.36" class="st9" width="4.56" height="4.56"/>
		<rect x="43.32" y="-75.24" class="st9" width="4.56" height="4.56"/>
		<rect x="52.44" y="-84.36" class="st9" width="4.56" height="4.56"/>
		<rect x="52.44" y="-75.24" class="st9" width="4.56" height="4.56"/>
		<rect x="43.32" y="-84.36" class="st9" width="4.56" height="4.56"/>
		<rect x="70.68" y="-75.24" class="st9" width="4.56" height="4.56"/>
		<rect x="79.8" y="-84.36" class="st9" width="4.56" height="4.56"/>
		<rect x="79.8" y="-75.24" class="st9" width="4.56" height="4.56"/>
		<rect x="70.68" y="-84.36" class="st9" width="4.56" height="4.56"/>
		<rect x="15.96" y="-47.88" class="st9" width="4.56" height="4.56"/>
		<rect x="25.08" y="-57" class="st9" width="4.56" height="4.56"/>
		<rect x="25.08" y="-47.88" class="st9" width="4.56" height="4.56"/>
		<rect x="15.96" y="-57" class="st9" width="4.56" height="4.56"/>
		<rect x="43.32" y="-47.88" class="st9" width="4.56" height="4.56"/>
		<rect x="52.44" y="-57" class="st9" width="4.56" height="4.56"/>
		<rect x="52.44" y="-47.88" class="st9" width="4.56" height="4.56"/>
		<rect x="43.32" y="-57" class="st9" width="4.56" height="4.56"/>
		<rect x="70.68" y="-47.88" class="st9" width="4.56" height="4.56"/>
		<rect x="79.8" y="-57" class="st9" width="4.56" height="4.56"/>
		<rect x="79.8" y="-47.88" class="st9" width="4.56" height="4.56"/>
		<rect x="70.68" y="-57" class="st9" width="4.56" height="4.56"/>
		<rect x="15.96" y="-20.52" class="st9" width="4.56" height="4.56"/>
		<rect x="25.08" y="-29.64" class="st9" width="4.56" height="4.56"/>
		<rect x="25.08" y="-20.52" class="st9" width="4.56" height="4.56"/>
		<rect x="15.96" y="-29.64" class="st9" width="4.56" height="4.56"/>
		<rect x="43.32" y="-20.52" class="st9" width="4.56" height="4.56"/>
		<rect x="52.44" y="-29.64" class="st9" width="4.56" height="4.56"/>
		<rect x="52.44" y="-20.52" class="st9" width="4.56" height="4.56"/>
		<rect x="43.32" y="-29.64" class="st9" width="4.56" height="4.56"/>
		<rect x="70.68" y="-20.52" class="st9" width="4.56" height="4.56"/>
		<rect x="79.8" y="-29.64" class="st9" width="4.56" height="4.56"/>
		<rect x="79.8" y="-20.52" class="st9" width="4.56" height="4.56"/>
		<rect x="70.68" y="-29.64" class="st9" width="4.56" height="4.56"/>
	</g>
</pattern>
<pattern  id="SVGID_1_" xlink:href="#Cuadros_escoceses_4_Color_3" patternTransform="matrix(1 0 0 1 -42.8438 -69.5097)">
</pattern>
<rect y="0.27" class="st10" width="182.5" height="117.24"/>
</svg>
