<?xml version="1.0" encoding="utf-8"?>
<!-- Generator: Adobe Illustrator 24.0.2, SVG Export Plug-In . SVG Version: 6.00 Build 0)  -->
<svg version="1.1" id="Layer_1" xmlns="http://www.w3.org/2000/svg" xmlns:xlink="http://www.w3.org/1999/xlink" x="0px" y="0px"
	 viewBox="0 0 182.5 117.79" style="enable-background:new 0 0 182.5 117.79;" xml:space="preserve">
<style type="text/css">
	.st0{fill:none;}
	.st1{fill:#C83B85;}
	.st2{fill:#F5DE72;}
	.st3{fill:#FAFAE3;}
	.st4{fill:#87C3D1;}
	.st5{fill:url(#SVGID_1_);}
</style>
<pattern  y="117.79" width="31.13" height="31.13" patternUnits="userSpaceOnUse" id="New_Pattern_Swatch_2" viewBox="0 -31.13 31.13 31.13" style="overflow:visible;">
	<g>
		<rect y="-31.13" class="st0" width="31.13" height="31.13"/>
		<rect y="-31.13" class="st1" width="31.13" height="31.13"/>
		<g>
			<path class="st2" d="M23.69-24.76c0,0-1,0.61-1.91,0c-0.92-0.61-0.84-1.3-0.31-1.46c0.54-0.15,1.69-0.31,1.69-0.31
				s-1-0.54-0.92-1.15c0.08-0.61,0.69-0.84,1.15-0.69c0.46,0.15,0.77,0.92,0.77,0.92s-0.08-1.61,0.61-1.92
				c0.69-0.31,1.38,0.31,1.38,1c0,0.69-0.31,1.53-0.31,1.53s0.92-0.38,1.46,0.23c0.54,0.61,0.54,1.46,0,1.61
				c-0.54,0.15-0.84,0.08-0.84,0.08s0.77,0.46,0.84,1c0.08,0.54-0.54,0.92-1.23,0.69c-0.69-0.23-1.23-0.77-1.23-0.77s0.23,1,0,1.38
				c-0.23,0.38-0.92,0.54-1.53-0.08C22.7-23.3,23.69-24.76,23.69-24.76z"/>
			<path class="st3" d="M24.53-26.6c-0.38,0-0.61,0.92-0.23,1.46c0.38,0.54,1,0.38,1.07-0.08C25.45-25.68,25.45-26.6,24.53-26.6z"/>
		</g>
		<g>
			<path class="st2" d="M5.08-7.91c0,0-1.15,0.71-2.22,0C1.8-8.62,1.89-9.42,2.51-9.59c0.62-0.18,1.95-0.36,1.95-0.36
				s-1.15-0.62-1.07-1.33c0.09-0.71,0.8-0.98,1.33-0.8c0.53,0.18,0.89,1.07,0.89,1.07s-0.09-1.86,0.71-2.22
				c0.8-0.35,1.6,0.36,1.6,1.15c0,0.8-0.36,1.78-0.36,1.78s1.07-0.44,1.69,0.27c0.62,0.71,0.62,1.69,0,1.86
				C8.64-8,8.28-8.09,8.28-8.09s0.89,0.53,0.98,1.15c0.09,0.62-0.62,1.06-1.42,0.8C7.04-6.4,6.42-7.02,6.42-7.02s0.27,1.15,0,1.6
				C6.15-4.98,5.35-4.8,4.64-5.51S5.08-7.91,5.08-7.91z"/>
			<path class="st3" d="M6.06-10.04c-0.44,0-0.71,1.07-0.27,1.69c0.44,0.62,1.15,0.44,1.24-0.09C7.13-8.97,7.13-10.04,6.06-10.04z"
				/>
		</g>
		<g>
			<path class="st2" d="M12.46-3.61c0,0-0.91,0.56-1.75,0C9.86-4.17,9.93-4.8,10.42-4.94c0.49-0.14,1.54-0.28,1.54-0.28
				s-0.91-0.49-0.84-1.05s0.63-0.77,1.05-0.63c0.42,0.14,0.7,0.84,0.7,0.84s-0.07-1.47,0.56-1.76c0.63-0.28,1.26,0.28,1.26,0.91
				c0,0.63-0.28,1.4-0.28,1.4s0.84-0.35,1.33,0.21c0.49,0.56,0.49,1.33,0,1.47c-0.49,0.14-0.77,0.07-0.77,0.07s0.7,0.42,0.77,0.91
				s-0.49,0.84-1.12,0.63c-0.63-0.21-1.12-0.7-1.12-0.7s0.21,0.91,0,1.26c-0.21,0.35-0.84,0.49-1.4-0.07
				C11.54-2.27,12.46-3.61,12.46-3.61z"/>
			<path class="st3" d="M13.23-5.29c-0.35,0-0.56,0.84-0.21,1.33c0.35,0.49,0.91,0.35,0.98-0.07C14.07-4.45,14.07-5.29,13.23-5.29z"
				/>
		</g>
		<g>
			<path class="st4" d="M6.45-26.13c0,0-0.89-1.43-1.76-2.27c-0.87-0.83-2.13-0.38-1.88,0.73c0.26,1.11,1.81,2.37,1.81,2.37
				s-1.55-0.59-2.34-0.29c-0.79,0.29-1.11,1.61-0.31,2.16c0.8,0.56,2.47,0.17,3.09-0.35c-1.71,1.63-1.97,2.55-1.25,3.08
				c0.73,0.53,1.48,0.56,2.09-0.39c0.61-0.95,0.72-1.25,0.72-1.25s0.26,1.78,1.28,2.42c1.02,0.64,1.68-0.21,1.98-0.77
				c0.3-0.56-0.51-1.54-1.23-1.9c1.99,0.33,2.08-0.14,2.44-1.1c0.36-0.96-1.04-1.49-2.56-1.73c1.68-0.88,1.65-3.26-0.1-3.08
				C6.69-28.32,6.32-27.11,6.45-26.13z"/>
			<path class="st3" d="M7.61-24.26c0.3-0.66-0.48-1.19-1.19-0.87c-0.71,0.32-0.71,0.75-0.62,1.2C5.91-23.31,7.08-23.11,7.61-24.26z
				"/>
		</g>
		<g>
			<path class="st4" d="M14.72-16.33c0,0-0.89-1.43-1.76-2.27c-0.87-0.83-2.13-0.38-1.88,0.73c0.26,1.11,1.81,2.37,1.81,2.37
				s-1.55-0.59-2.34-0.29c-0.79,0.29-1.11,1.61-0.31,2.16c0.8,0.56,2.47,0.17,3.09-0.35c-1.71,1.63-1.97,2.55-1.25,3.08
				c0.73,0.53,1.48,0.56,2.09-0.39c0.61-0.95,0.72-1.25,0.72-1.25s0.25,1.79,1.28,2.42c1.03,0.64,1.68-0.21,1.98-0.77
				c0.3-0.56-0.51-1.54-1.23-1.9c1.99,0.33,2.08-0.14,2.44-1.1c0.36-0.96-1.04-1.49-2.56-1.73c1.68-0.88,1.65-3.26-0.1-3.08
				C14.95-18.52,14.58-17.31,14.72-16.33z"/>
			<path class="st3" d="M15.87-14.46c0.3-0.66-0.48-1.19-1.19-0.87c-0.71,0.32-0.7,0.75-0.62,1.2C14.17-13.5,15.35-13.3,15.87-14.46
				z"/>
		</g>
		<g>
			<path class="st2" d="M24.18-4.26c0,0-1.48,0.91-2.84,0c-1.36-0.91-1.25-1.93-0.45-2.16c0.79-0.23,2.5-0.45,2.5-0.45
				s-1.48-0.79-1.36-1.7c0.11-0.91,1.02-1.25,1.7-1.02c0.68,0.23,1.14,1.36,1.14,1.36s-0.11-2.38,0.91-2.84
				c1.02-0.45,2.04,0.45,2.04,1.48c0,1.02-0.45,2.27-0.45,2.27s1.36-0.57,2.16,0.34c0.8,0.91,0.8,2.16,0,2.38
				c-0.79,0.23-1.25,0.11-1.25,0.11s1.13,0.68,1.25,1.48c0.11,0.79-0.79,1.36-1.82,1.02c-1.02-0.34-1.82-1.14-1.82-1.14
				s0.34,1.48,0,2.04c-0.34,0.57-1.36,0.79-2.27-0.11C22.7-2.1,24.18-4.26,24.18-4.26z"/>
			<path class="st3" d="M25.42-6.98c-0.57,0-0.91,1.36-0.34,2.16c0.57,0.79,1.48,0.57,1.59-0.11C26.79-5.62,26.79-6.98,25.42-6.98z"
				/>
		</g>
		<g>
			<path class="st4" d="M16.6-25.15c0,0-0.55-0.87-1.07-1.38c-0.53-0.51-1.3-0.23-1.14,0.44c0.16,0.68,1.1,1.44,1.1,1.44
				s-0.95-0.36-1.43-0.18c-0.48,0.18-0.68,0.98-0.19,1.32c0.49,0.34,1.5,0.1,1.88-0.22c-1.04,1-1.2,1.55-0.76,1.87
				c0.44,0.32,0.9,0.34,1.27-0.24c0.37-0.58,0.44-0.76,0.44-0.76s0.16,1.09,0.78,1.48c0.63,0.39,1.03-0.13,1.21-0.47
				c0.18-0.34-0.31-0.94-0.75-1.16c1.21,0.2,1.27-0.09,1.49-0.67c0.22-0.59-0.63-0.91-1.56-1.05c1.03-0.54,1.01-1.99-0.06-1.88
				C16.75-26.49,16.52-25.75,16.6-25.15z"/>
			<path class="st3" d="M17.31-24.01c0.18-0.4-0.29-0.73-0.73-0.53c-0.44,0.2-0.43,0.46-0.38,0.73
				C16.27-23.43,16.99-23.31,17.31-24.01z"/>
		</g>
		<g>
			<path class="st4" d="M25.59-18.29c0,0-0.7-1.13-1.38-1.78c-0.68-0.66-1.68-0.3-1.48,0.57c0.2,0.87,1.42,1.86,1.42,1.86
				s-1.22-0.46-1.84-0.23c-0.62,0.23-0.87,1.26-0.24,1.7c0.63,0.44,1.94,0.14,2.43-0.28c-1.35,1.28-1.55,2-0.98,2.42
				c0.57,0.42,1.16,0.44,1.64-0.31c0.48-0.75,0.57-0.98,0.57-0.98s0.2,1.4,1,1.9c0.8,0.5,1.32-0.16,1.56-0.61s-0.4-1.21-0.96-1.49
				c1.56,0.26,1.63-0.11,1.92-0.87c0.29-0.75-0.82-1.17-2.01-1.36c1.32-0.69,1.3-2.56-0.08-2.42
				C25.78-20.01,25.49-19.06,25.59-18.29z"/>
			<path class="st3" d="M26.5-16.82c0.24-0.52-0.38-0.94-0.93-0.68c-0.56,0.25-0.55,0.59-0.49,0.94
				C25.17-16.07,26.09-15.92,26.5-16.82z"/>
		</g>
	</g>
</pattern>
<pattern  id="SVGID_1_" xlink:href="#New_Pattern_Swatch_2" patternTransform="matrix(1 0 0 1 -20.244 -13.0102)">
</pattern>
<rect y="0.27" class="st5" width="182.5" height="117.24"/>
</svg>
