<?xml version="1.0" encoding="utf-8"?>
<!-- Generator: Adobe Illustrator 24.0.2, SVG Export Plug-In . SVG Version: 6.00 Build 0)  -->
<svg version="1.1" id="Layer_1" xmlns="http://www.w3.org/2000/svg" xmlns:xlink="http://www.w3.org/1999/xlink" x="0px" y="0px"
	 viewBox="0 0 181.49 117.24" style="enable-background:new 0 0 181.49 117.24;" xml:space="preserve">
<style type="text/css">
	.st0{clip-path:url(#SVGID_2_);}
	.st1{clip-path:url(#SVGID_4_);}
	.st2{clip-path:url(#SVGID_6_);}
	.st3{opacity:0.5;}
	.st4{fill:#3DB0AA;}
	.st5{clip-path:url(#SVGID_8_);}
	.st6{clip-path:url(#SVGID_10_);}
	.st7{fill:#A97E4D;}
	.st8{fill:#E093B7;}
	.st9{clip-path:url(#SVGID_8_);fill:none;}
</style>
<g>
	<defs>
		<rect id="SVGID_1_" x="374.98" y="121.46" width="162.08" height="104.13"/>
	</defs>
	<clipPath id="SVGID_2_">
		<use xlink:href="#SVGID_1_"  style="overflow:visible;"/>
	</clipPath>
	<g class="st0">
		<g>
			<defs>
				<rect id="SVGID_3_" x="366.83" y="100.45" width="178.38" height="146.16"/>
			</defs>
			<clipPath id="SVGID_4_">
				<use xlink:href="#SVGID_3_"  style="overflow:visible;"/>
			</clipPath>
			<g class="st1">
				<g>
					<g>
						<g>
							<g>
								<defs>
									<rect id="SVGID_5_" x="364.2" y="95.38" width="182.13" height="239.56"/>
								</defs>
								<clipPath id="SVGID_6_">
									<use xlink:href="#SVGID_5_"  style="overflow:visible;"/>
								</clipPath>
								<g class="st2">
									<g class="st3">
										<g>
											<g>
												<rect x="314.87" y="51.68" class="st4" width="4.34" height="368.5"/>
											</g>
										</g>
									</g>
									<g class="st3">
										<g>
											<g>
												<rect x="323.56" y="51.68" class="st4" width="4.34" height="368.5"/>
											</g>
										</g>
									</g>
									<g class="st3">
										<g>
											<g>
												<rect x="332.24" y="51.68" class="st4" width="4.35" height="368.5"/>
											</g>
										</g>
									</g>
									<g class="st3">
										<g>
											<g>
												<rect x="340.93" y="51.68" class="st4" width="4.35" height="368.5"/>
											</g>
										</g>
									</g>
									<g class="st3">
										<g>
											<g>
												<rect x="349.62" y="51.68" class="st4" width="4.34" height="368.5"/>
											</g>
										</g>
									</g>
									<g class="st3">
										<g>
											<g>
												<rect x="358.3" y="51.68" class="st4" width="4.34" height="368.5"/>
											</g>
										</g>
									</g>
									<g class="st3">
										<g>
											<g>
												<rect x="366.99" y="51.68" class="st4" width="4.34" height="368.5"/>
											</g>
										</g>
									</g>
									<g class="st3">
										<g>
											<g>
												<rect x="375.68" y="51.68" class="st4" width="4.34" height="368.5"/>
											</g>
										</g>
									</g>
									<g class="st3">
										<g>
											<g>
												<rect x="384.36" y="51.68" class="st4" width="4.35" height="368.5"/>
											</g>
										</g>
									</g>
									<g class="st3">
										<g>
											<g>
												<rect x="393.05" y="51.68" class="st4" width="4.34" height="368.5"/>
											</g>
										</g>
									</g>
									<g class="st3">
										<g>
											<g>
												<rect x="401.73" y="51.68" class="st4" width="4.34" height="368.5"/>
											</g>
										</g>
									</g>
									<g class="st3">
										<g>
											<g>
												<rect x="410.42" y="51.68" class="st4" width="4.35" height="368.5"/>
											</g>
										</g>
									</g>
									<g class="st3">
										<g>
											<g>
												<rect x="419.1" y="51.68" class="st4" width="4.34" height="368.5"/>
											</g>
										</g>
									</g>
									<g class="st3">
										<g>
											<g>
												<rect x="427.79" y="51.68" class="st4" width="4.34" height="368.5"/>
											</g>
										</g>
									</g>
									<g class="st3">
										<g>
											<g>
												<rect x="436.48" y="51.68" class="st4" width="4.34" height="368.5"/>
											</g>
										</g>
									</g>
									<g class="st3">
										<g>
											<g>
												<rect x="445.16" y="51.68" class="st4" width="4.34" height="368.5"/>
											</g>
										</g>
									</g>
									<g class="st3">
										<g>
											<g>
												<rect x="453.85" y="51.68" class="st4" width="4.34" height="368.5"/>
											</g>
										</g>
									</g>
									<g class="st3">
										<g>
											<g>
												<rect x="462.53" y="51.68" class="st4" width="4.34" height="368.5"/>
											</g>
										</g>
									</g>
									<g class="st3">
										<g>
											<g>
												<rect x="471.22" y="51.68" class="st4" width="4.34" height="368.5"/>
											</g>
										</g>
									</g>
									<g class="st3">
										<g>
											<g>
												<rect x="479.91" y="51.68" class="st4" width="4.34" height="368.5"/>
											</g>
										</g>
									</g>
									<g class="st3">
										<g>
											<g>
												<rect x="488.6" y="51.68" class="st4" width="4.34" height="368.5"/>
											</g>
										</g>
									</g>
									<g class="st3">
										<g>
											<g>
												<rect x="497.28" y="51.68" class="st4" width="4.34" height="368.5"/>
											</g>
										</g>
									</g>
									<g class="st3">
										<g>
											<g>
												<rect x="505.97" y="51.68" class="st4" width="4.34" height="368.5"/>
											</g>
										</g>
									</g>
									<g class="st3">
										<g>
											<g>
												<rect x="514.65" y="51.68" class="st4" width="4.34" height="368.5"/>
											</g>
										</g>
									</g>
									<g class="st3">
										<g>
											<g>
												<rect x="523.34" y="51.68" class="st4" width="4.34" height="368.5"/>
											</g>
										</g>
									</g>
									<g class="st3">
										<g>
											<g>
												<rect x="532.02" y="51.68" class="st4" width="4.34" height="368.5"/>
											</g>
										</g>
									</g>
									<g class="st3">
										<g>
											<g>
												<rect x="540.71" y="51.68" class="st4" width="4.35" height="368.5"/>
											</g>
										</g>
									</g>
									<g class="st3">
										<g>
											<g>
												<rect x="549.4" y="51.68" class="st4" width="4.34" height="368.5"/>
											</g>
										</g>
									</g>
									<g class="st3">
										<g>
											<g>
												<rect x="558.08" y="51.68" class="st4" width="4.34" height="368.5"/>
											</g>
										</g>
									</g>
									<g class="st3">
										<g>
											<g>
												<rect x="566.77" y="51.68" class="st4" width="4.34" height="368.5"/>
											</g>
										</g>
									</g>
									<g class="st3">
										<g>
											<g>
												<rect x="575.45" y="51.68" class="st4" width="4.35" height="368.5"/>
											</g>
										</g>
									</g>
									<g class="st3">
										<g>
											<g>
												<rect x="584.14" y="51.68" class="st4" width="4.34" height="368.5"/>
											</g>
										</g>
									</g>
									<g class="st3">
										<g>
											<g>
												<rect x="592.82" y="51.68" class="st4" width="4.35" height="368.5"/>
											</g>
										</g>
									</g>
									<g class="st3">
										<g>
											<g>
												<rect x="302.15" y="399.74" class="st4" width="307.74" height="5.2"/>
											</g>
										</g>
									</g>
									<g class="st3">
										<g>
											<g>
												<rect x="302.15" y="389.34" class="st4" width="307.74" height="5.2"/>
											</g>
										</g>
									</g>
									<g class="st3">
										<g>
											<g>
												<rect x="302.15" y="378.94" class="st4" width="307.74" height="5.2"/>
											</g>
										</g>
									</g>
									<g class="st3">
										<g>
											<g>
												<rect x="302.15" y="368.54" class="st4" width="307.74" height="5.2"/>
											</g>
										</g>
									</g>
									<g class="st3">
										<g>
											<g>
												<rect x="302.15" y="358.14" class="st4" width="307.74" height="5.2"/>
											</g>
										</g>
									</g>
									<g class="st3">
										<g>
											<g>
												<rect x="302.15" y="347.74" class="st4" width="307.74" height="5.2"/>
											</g>
										</g>
									</g>
									<g class="st3">
										<g>
											<g>
												<rect x="302.15" y="337.34" class="st4" width="307.74" height="5.2"/>
											</g>
										</g>
									</g>
									<g class="st3">
										<g>
											<g>
												<rect x="302.15" y="326.94" class="st4" width="307.74" height="5.2"/>
											</g>
										</g>
									</g>
									<g class="st3">
										<g>
											<g>
												<rect x="302.15" y="316.54" class="st4" width="307.74" height="5.2"/>
											</g>
										</g>
									</g>
									<g class="st3">
										<g>
											<g>
												<rect x="302.15" y="306.14" class="st4" width="307.74" height="5.2"/>
											</g>
										</g>
									</g>
									<g class="st3">
										<g>
											<g>
												<rect x="302.15" y="295.74" class="st4" width="307.74" height="5.2"/>
											</g>
										</g>
									</g>
									<g class="st3">
										<g>
											<g>
												<rect x="302.15" y="285.33" class="st4" width="307.74" height="5.2"/>
											</g>
										</g>
									</g>
									<g class="st3">
										<g>
											<g>
												<rect x="302.15" y="274.93" class="st4" width="307.74" height="5.2"/>
											</g>
										</g>
									</g>
									<g class="st3">
										<g>
											<g>
												<rect x="302.15" y="264.53" class="st4" width="307.74" height="5.2"/>
											</g>
										</g>
									</g>
									<g class="st3">
										<g>
											<g>
												<rect x="302.15" y="254.13" class="st4" width="307.74" height="5.2"/>
											</g>
										</g>
									</g>
									<g class="st3">
										<g>
											<g>
												<rect x="302.15" y="243.73" class="st4" width="307.74" height="5.2"/>
											</g>
										</g>
									</g>
									<g class="st3">
										<g>
											<g>
												<rect x="302.15" y="233.33" class="st4" width="307.74" height="5.2"/>
											</g>
										</g>
									</g>
									<g class="st3">
										<g>
											<g>
												<rect x="302.15" y="222.93" class="st4" width="307.74" height="5.2"/>
											</g>
										</g>
									</g>
									<g class="st3">
										<g>
											<g>
												<rect x="302.15" y="212.53" class="st4" width="307.74" height="5.2"/>
											</g>
										</g>
									</g>
									<g class="st3">
										<g>
											<g>
												<rect x="302.15" y="202.13" class="st4" width="307.74" height="5.2"/>
											</g>
										</g>
									</g>
									<g class="st3">
										<g>
											<g>
												<rect x="302.15" y="191.73" class="st4" width="307.74" height="5.2"/>
											</g>
										</g>
									</g>
									<g class="st3">
										<g>
											<g>
												<rect x="302.15" y="181.33" class="st4" width="307.74" height="5.2"/>
											</g>
										</g>
									</g>
									<g class="st3">
										<g>
											<g>
												<rect x="302.15" y="170.92" class="st4" width="307.74" height="5.2"/>
											</g>
										</g>
									</g>
									<g class="st3">
										<g>
											<g>
												<rect x="302.15" y="160.52" class="st4" width="307.74" height="5.2"/>
											</g>
										</g>
									</g>
									<g class="st3">
										<g>
											<g>
												<rect x="302.15" y="150.12" class="st4" width="307.74" height="5.2"/>
											</g>
										</g>
									</g>
									<g class="st3">
										<g>
											<g>
												<rect x="302.15" y="139.72" class="st4" width="307.74" height="5.2"/>
											</g>
										</g>
									</g>
									<g class="st3">
										<g>
											<g>
												<rect x="302.15" y="129.32" class="st4" width="307.74" height="5.2"/>
											</g>
										</g>
									</g>
									<g class="st3">
										<g>
											<g>
												<rect x="302.15" y="118.92" class="st4" width="307.74" height="5.2"/>
											</g>
										</g>
									</g>
									<g class="st3">
										<g>
											<g>
												<rect x="302.15" y="108.52" class="st4" width="307.74" height="5.2"/>
											</g>
										</g>
									</g>
									<g class="st3">
										<g>
											<g>
												<rect x="302.15" y="98.12" class="st4" width="307.74" height="5.2"/>
											</g>
										</g>
									</g>
									<g class="st3">
										<g>
											<g>
												<rect x="302.15" y="87.72" class="st4" width="307.74" height="5.2"/>
											</g>
										</g>
									</g>
									<g class="st3">
										<g>
											<g>
												<rect x="302.15" y="77.32" class="st4" width="307.74" height="5.2"/>
											</g>
										</g>
									</g>
									<g class="st3">
										<g>
											<g>
												<rect x="302.15" y="66.92" class="st4" width="307.74" height="5.2"/>
											</g>
										</g>
									</g>
								</g>
							</g>
						</g>
					</g>
				</g>
			</g>
		</g>
	</g>
</g>
<g>
	<defs>
		<rect id="SVGID_7_" x="-0.5" y="0" width="182.5" height="117.24"/>
	</defs>
	<clipPath id="SVGID_8_">
		<use xlink:href="#SVGID_7_"  style="overflow:visible;"/>
	</clipPath>
	<g class="st5">
		<defs>
			<rect id="SVGID_9_" x="-4.22" y="-39.86" width="193.02" height="195.1"/>
		</defs>
		<clipPath id="SVGID_10_">
			<use xlink:href="#SVGID_9_"  style="overflow:visible;"/>
		</clipPath>
		<g class="st6">
			<g>
				<g>
					<g>
						<rect x="-1.22" y="-27.23" class="st7" width="183.34" height="185.66"/>
					</g>
					<g>
						<g>
							<g>
								<path class="st8" d="M3.12-19.35c0,2.4-1.64,4.35-3.67,4.35c-2.03,0-3.67-1.94-3.67-4.35c0-2.39,1.64-4.34,3.67-4.34
									C1.48-23.69,3.12-21.75,3.12-19.35z"/>
								<path class="st8" d="M18.53-30.63c0,2.39-1.64,4.34-3.67,4.34s-3.67-1.95-3.67-4.34c0-2.4,1.64-4.35,3.67-4.35
									S18.53-33.04,18.53-30.63z"/>
								<path class="st8" d="M3.12-1.11c0,2.4-1.64,4.34-3.67,4.34c-2.03,0-3.67-1.94-3.67-4.34c0-2.4,1.64-4.34,3.67-4.34
									C1.48-5.45,3.12-3.5,3.12-1.11z"/>
								<path class="st8" d="M18.53-12.4c0,2.4-1.64,4.35-3.67,4.35S11.19-10,11.19-12.4c0-2.4,1.64-4.34,3.67-4.34
									S18.53-14.8,18.53-12.4z"/>
								<path class="st8" d="M3.12,17.78c0,2.4-1.64,4.34-3.67,4.34c-2.03,0-3.67-1.94-3.67-4.34c0-2.4,1.64-4.34,3.67-4.34
									C1.48,13.44,3.12,15.39,3.12,17.78z"/>
								<path class="st8" d="M18.53,6.49c0,2.4-1.64,4.34-3.67,4.34s-3.67-1.94-3.67-4.34c0-2.4,1.64-4.34,3.67-4.34
									S18.53,4.1,18.53,6.49z"/>
								<path class="st8" d="M3.12,36.02c0,2.4-1.64,4.34-3.67,4.34c-2.03,0-3.67-1.94-3.67-4.34c0-2.4,1.64-4.34,3.67-4.34
									C1.48,31.68,3.12,33.63,3.12,36.02z"/>
								<path class="st8" d="M18.53,24.73c0,2.4-1.64,4.34-3.67,4.34s-3.67-1.94-3.67-4.34c0-2.4,1.64-4.34,3.67-4.34
									S18.53,22.34,18.53,24.73z"/>
								<path class="st8" d="M34.49-19.35c0,2.4-1.64,4.35-3.67,4.35c-2.03,0-3.67-1.94-3.67-4.35c0-2.39,1.64-4.34,3.67-4.34
									C32.85-23.69,34.49-21.75,34.49-19.35z"/>
								<path class="st8" d="M49.91-30.63c0,2.39-1.64,4.34-3.67,4.34c-2.02,0-3.67-1.95-3.67-4.34c0-2.4,1.64-4.35,3.67-4.35
									C48.26-34.98,49.91-33.04,49.91-30.63z"/>
								<path class="st8" d="M34.49-1.11c0,2.4-1.64,4.34-3.67,4.34c-2.03,0-3.67-1.94-3.67-4.34c0-2.4,1.64-4.34,3.67-4.34
									C32.85-5.45,34.49-3.5,34.49-1.11z"/>
								<path class="st8" d="M49.91-12.4c0,2.4-1.64,4.35-3.67,4.35c-2.02,0-3.67-1.94-3.67-4.35c0-2.4,1.64-4.34,3.67-4.34
									C48.26-16.74,49.91-14.8,49.91-12.4z"/>
								<path class="st8" d="M34.49,17.78c0,2.4-1.64,4.34-3.67,4.34c-2.03,0-3.67-1.94-3.67-4.34c0-2.4,1.64-4.34,3.67-4.34
									C32.85,13.44,34.49,15.39,34.49,17.78z"/>
								<path class="st8" d="M49.91,6.49c0,2.4-1.64,4.34-3.67,4.34c-2.02,0-3.67-1.94-3.67-4.34c0-2.4,1.64-4.34,3.67-4.34
									C48.26,2.15,49.91,4.1,49.91,6.49z"/>
								<path class="st8" d="M34.49,36.02c0,2.4-1.64,4.34-3.67,4.34c-2.03,0-3.67-1.94-3.67-4.34c0-2.4,1.64-4.34,3.67-4.34
									C32.85,31.68,34.49,33.63,34.49,36.02z"/>
								<path class="st8" d="M49.91,24.73c0,2.4-1.64,4.34-3.67,4.34c-2.02,0-3.67-1.94-3.67-4.34c0-2.4,1.64-4.34,3.67-4.34
									C48.26,20.39,49.91,22.34,49.91,24.73z"/>
								<path class="st8" d="M64.22-19.35c0,2.4-1.64,4.35-3.67,4.35c-2.03,0-3.67-1.94-3.67-4.35c0-2.39,1.64-4.34,3.67-4.34
									C62.57-23.69,64.22-21.75,64.22-19.35z"/>
								<path class="st8" d="M79.63-30.63c0,2.39-1.64,4.34-3.67,4.34c-2.03,0-3.67-1.95-3.67-4.34c0-2.4,1.64-4.35,3.67-4.35
									C77.99-34.98,79.63-33.04,79.63-30.63z"/>
								<path class="st8" d="M64.22-1.11c0,2.4-1.64,4.34-3.67,4.34c-2.03,0-3.67-1.94-3.67-4.34c0-2.4,1.64-4.34,3.67-4.34
									C62.57-5.45,64.22-3.5,64.22-1.11z"/>
								<path class="st8" d="M79.63-12.4c0,2.4-1.64,4.35-3.67,4.35c-2.03,0-3.67-1.94-3.67-4.35c0-2.4,1.64-4.34,3.67-4.34
									C77.99-16.74,79.63-14.8,79.63-12.4z"/>
								<path class="st8" d="M64.22,17.78c0,2.4-1.64,4.34-3.67,4.34c-2.03,0-3.67-1.94-3.67-4.34c0-2.4,1.64-4.34,3.67-4.34
									C62.57,13.44,64.22,15.39,64.22,17.78z"/>
								<path class="st8" d="M79.63,6.49c0,2.4-1.64,4.34-3.67,4.34c-2.03,0-3.67-1.94-3.67-4.34c0-2.4,1.64-4.34,3.67-4.34
									C77.99,2.15,79.63,4.1,79.63,6.49z"/>
								<path class="st8" d="M64.22,36.02c0,2.4-1.64,4.34-3.67,4.34c-2.03,0-3.67-1.94-3.67-4.34c0-2.4,1.64-4.34,3.67-4.34
									C62.57,31.68,64.22,33.63,64.22,36.02z"/>
								<path class="st8" d="M79.63,24.73c0,2.4-1.64,4.34-3.67,4.34c-2.03,0-3.67-1.94-3.67-4.34c0-2.4,1.64-4.34,3.67-4.34
									C77.99,20.39,79.63,22.34,79.63,24.73z"/>
								<path class="st8" d="M95.59-19.35c0,2.4-1.64,4.35-3.67,4.35c-2.02,0-3.66-1.94-3.66-4.35c0-2.39,1.64-4.34,3.66-4.34
									C93.95-23.69,95.59-21.75,95.59-19.35z"/>
								<path class="st8" d="M111-30.63c0,2.39-1.64,4.34-3.67,4.34c-2.02,0-3.67-1.95-3.67-4.34c0-2.4,1.65-4.35,3.67-4.35
									C109.36-34.98,111-33.04,111-30.63z"/>
								<path class="st8" d="M95.59-1.11c0,2.4-1.64,4.34-3.67,4.34c-2.02,0-3.66-1.94-3.66-4.34c0-2.4,1.64-4.34,3.66-4.34
									C93.95-5.45,95.59-3.5,95.59-1.11z"/>
								<path class="st8" d="M111-12.4c0,2.4-1.64,4.35-3.67,4.35c-2.02,0-3.67-1.94-3.67-4.35c0-2.4,1.65-4.34,3.67-4.34
									C109.36-16.74,111-14.8,111-12.4z"/>
								<path class="st8" d="M95.59,17.78c0,2.4-1.64,4.34-3.67,4.34c-2.02,0-3.66-1.94-3.66-4.34c0-2.4,1.64-4.34,3.66-4.34
									C93.95,13.44,95.59,15.39,95.59,17.78z"/>
								<path class="st8" d="M111,6.49c0,2.4-1.64,4.34-3.67,4.34c-2.02,0-3.67-1.94-3.67-4.34c0-2.4,1.65-4.34,3.67-4.34
									C109.36,2.15,111,4.1,111,6.49z"/>
								<path class="st8" d="M95.59,36.02c0,2.4-1.64,4.34-3.67,4.34c-2.02,0-3.66-1.94-3.66-4.34c0-2.4,1.64-4.34,3.66-4.34
									C93.95,31.68,95.59,33.63,95.59,36.02z"/>
								<path class="st8" d="M111,24.73c0,2.4-1.64,4.34-3.67,4.34c-2.02,0-3.67-1.94-3.67-4.34c0-2.4,1.65-4.34,3.67-4.34
									C109.36,20.39,111,22.34,111,24.73z"/>
								<path class="st8" d="M3.12,54.26c0,2.4-1.64,4.35-3.67,4.35c-2.03,0-3.67-1.94-3.67-4.35c0-2.4,1.64-4.34,3.67-4.34
									C1.48,49.92,3.12,51.87,3.12,54.26z"/>
								<path class="st8" d="M18.53,42.98c0,2.4-1.64,4.34-3.67,4.34s-3.67-1.95-3.67-4.34c0-2.4,1.64-4.34,3.67-4.34
									S18.53,40.58,18.53,42.98z"/>
								<path class="st8" d="M3.12,72.5c0,2.4-1.64,4.35-3.67,4.35c-2.03,0-3.67-1.95-3.67-4.35c0-2.4,1.64-4.34,3.67-4.34
									C1.48,68.16,3.12,70.11,3.12,72.5z"/>
								<path class="st8" d="M18.53,61.21c0,2.4-1.64,4.35-3.67,4.35s-3.67-1.95-3.67-4.35c0-2.39,1.64-4.34,3.67-4.34
									S18.53,58.82,18.53,61.21z"/>
								<path class="st8" d="M3.12,91.4c0,2.4-1.64,4.34-3.67,4.34c-2.03,0-3.67-1.94-3.67-4.34c0-2.4,1.64-4.34,3.67-4.34
									C1.48,87.05,3.12,89,3.12,91.4z"/>
								<path class="st8" d="M18.53,80.11c0,2.4-1.64,4.35-3.67,4.35s-3.67-1.94-3.67-4.35c0-2.4,1.64-4.34,3.67-4.34
									S18.53,77.71,18.53,80.11z"/>
								<path class="st8" d="M3.12,109.64c0,2.4-1.64,4.35-3.67,4.35c-2.03,0-3.67-1.94-3.67-4.35c0-2.39,1.64-4.34,3.67-4.34
									C1.48,105.3,3.12,107.24,3.12,109.64z"/>
								<path class="st8" d="M18.53,98.35c0,2.4-1.64,4.35-3.67,4.35s-3.67-1.95-3.67-4.35c0-2.39,1.64-4.34,3.67-4.34
									S18.53,95.95,18.53,98.35z"/>
								<path class="st8" d="M34.49,54.26c0,2.4-1.64,4.35-3.67,4.35c-2.03,0-3.67-1.94-3.67-4.35c0-2.4,1.64-4.34,3.67-4.34
									C32.85,49.92,34.49,51.87,34.49,54.26z"/>
								<path class="st8" d="M49.91,42.98c0,2.4-1.64,4.34-3.67,4.34c-2.02,0-3.67-1.95-3.67-4.34c0-2.4,1.64-4.34,3.67-4.34
									C48.26,38.63,49.91,40.58,49.91,42.98z"/>
								<path class="st8" d="M34.49,72.5c0,2.4-1.64,4.35-3.67,4.35c-2.03,0-3.67-1.95-3.67-4.35c0-2.4,1.64-4.34,3.67-4.34
									C32.85,68.16,34.49,70.11,34.49,72.5z"/>
								<path class="st8" d="M49.91,61.21c0,2.4-1.64,4.35-3.67,4.35c-2.02,0-3.67-1.95-3.67-4.35c0-2.39,1.64-4.34,3.67-4.34
									C48.26,56.88,49.91,58.82,49.91,61.21z"/>
								<path class="st8" d="M34.49,91.4c0,2.4-1.64,4.34-3.67,4.34c-2.03,0-3.67-1.94-3.67-4.34c0-2.4,1.64-4.34,3.67-4.34
									C32.85,87.05,34.49,89,34.49,91.4z"/>
								<path class="st8" d="M49.91,80.11c0,2.4-1.64,4.35-3.67,4.35c-2.02,0-3.67-1.94-3.67-4.35c0-2.4,1.64-4.34,3.67-4.34
									C48.26,75.77,49.91,77.71,49.91,80.11z"/>
								<path class="st8" d="M34.49,109.64c0,2.4-1.64,4.35-3.67,4.35c-2.03,0-3.67-1.94-3.67-4.35c0-2.39,1.64-4.34,3.67-4.34
									C32.85,105.3,34.49,107.24,34.49,109.64z"/>
								<path class="st8" d="M49.91,98.35c0,2.4-1.64,4.35-3.67,4.35c-2.02,0-3.67-1.95-3.67-4.35c0-2.39,1.64-4.34,3.67-4.34
									C48.26,94.01,49.91,95.95,49.91,98.35z"/>
								<path class="st8" d="M64.22,54.26c0,2.4-1.64,4.35-3.67,4.35c-2.03,0-3.67-1.94-3.67-4.35c0-2.4,1.64-4.34,3.67-4.34
									C62.57,49.92,64.22,51.87,64.22,54.26z"/>
								<path class="st8" d="M79.63,42.98c0,2.4-1.64,4.34-3.67,4.34c-2.03,0-3.67-1.95-3.67-4.34c0-2.4,1.64-4.34,3.67-4.34
									C77.99,38.63,79.63,40.58,79.63,42.98z"/>
								<path class="st8" d="M64.22,72.5c0,2.4-1.64,4.35-3.67,4.35c-2.03,0-3.67-1.95-3.67-4.35c0-2.4,1.64-4.34,3.67-4.34
									C62.57,68.16,64.22,70.11,64.22,72.5z"/>
								<path class="st8" d="M79.63,61.21c0,2.4-1.64,4.35-3.67,4.35c-2.03,0-3.67-1.95-3.67-4.35c0-2.39,1.64-4.34,3.67-4.34
									C77.99,56.88,79.63,58.82,79.63,61.21z"/>
								<path class="st8" d="M64.22,91.4c0,2.4-1.64,4.34-3.67,4.34c-2.03,0-3.67-1.94-3.67-4.34c0-2.4,1.64-4.34,3.67-4.34
									C62.57,87.05,64.22,89,64.22,91.4z"/>
								<path class="st8" d="M79.63,80.11c0,2.4-1.64,4.35-3.67,4.35c-2.03,0-3.67-1.94-3.67-4.35c0-2.4,1.64-4.34,3.67-4.34
									C77.99,75.77,79.63,77.71,79.63,80.11z"/>
								<path class="st8" d="M64.22,109.64c0,2.4-1.64,4.35-3.67,4.35c-2.03,0-3.67-1.94-3.67-4.35c0-2.39,1.64-4.34,3.67-4.34
									C62.57,105.3,64.22,107.24,64.22,109.64z"/>
								<path class="st8" d="M79.63,98.35c0,2.4-1.64,4.35-3.67,4.35c-2.03,0-3.67-1.95-3.67-4.35c0-2.39,1.64-4.34,3.67-4.34
									C77.99,94.01,79.63,95.95,79.63,98.35z"/>
								<path class="st8" d="M95.59,54.26c0,2.4-1.64,4.35-3.67,4.35c-2.02,0-3.66-1.94-3.66-4.35c0-2.4,1.64-4.34,3.66-4.34
									C93.95,49.92,95.59,51.87,95.59,54.26z"/>
								<path class="st8" d="M111,42.98c0,2.4-1.64,4.34-3.67,4.34c-2.02,0-3.67-1.95-3.67-4.34c0-2.4,1.65-4.34,3.67-4.34
									C109.36,38.63,111,40.58,111,42.98z"/>
								<path class="st8" d="M95.59,72.5c0,2.4-1.64,4.35-3.67,4.35c-2.02,0-3.66-1.95-3.66-4.35c0-2.4,1.64-4.34,3.66-4.34
									C93.95,68.16,95.59,70.11,95.59,72.5z"/>
								<path class="st8" d="M111,61.21c0,2.4-1.64,4.35-3.67,4.35c-2.02,0-3.67-1.95-3.67-4.35c0-2.39,1.65-4.34,3.67-4.34
									C109.36,56.88,111,58.82,111,61.21z"/>
								<path class="st8" d="M95.59,91.4c0,2.4-1.64,4.34-3.67,4.34c-2.02,0-3.66-1.94-3.66-4.34c0-2.4,1.64-4.34,3.66-4.34
									C93.95,87.05,95.59,89,95.59,91.4z"/>
								<path class="st8" d="M111,80.11c0,2.4-1.64,4.35-3.67,4.35c-2.02,0-3.67-1.94-3.67-4.35c0-2.4,1.65-4.34,3.67-4.34
									C109.36,75.77,111,77.71,111,80.11z"/>
								<path class="st8" d="M95.59,109.64c0,2.4-1.64,4.35-3.67,4.35c-2.02,0-3.66-1.94-3.66-4.35c0-2.39,1.64-4.34,3.66-4.34
									C93.95,105.3,95.59,107.24,95.59,109.64z"/>
								<path class="st8" d="M111,98.35c0,2.4-1.64,4.35-3.67,4.35c-2.02,0-3.67-1.95-3.67-4.35c0-2.39,1.65-4.34,3.67-4.34
									C109.36,94.01,111,95.95,111,98.35z"/>
								<path class="st8" d="M127.7-19.35c0,2.4-1.64,4.35-3.67,4.35c-2.03,0-3.67-1.94-3.67-4.35c0-2.39,1.64-4.34,3.67-4.34
									C126.06-23.69,127.7-21.75,127.7-19.35z"/>
								<path class="st8" d="M143.11-30.63c0,2.39-1.64,4.34-3.67,4.34c-2.03,0-3.67-1.95-3.67-4.34c0-2.4,1.64-4.35,3.67-4.35
									C141.47-34.98,143.11-33.04,143.11-30.63z"/>
								<path class="st8" d="M127.7-1.11c0,2.4-1.64,4.34-3.67,4.34c-2.03,0-3.67-1.94-3.67-4.34c0-2.4,1.64-4.34,3.67-4.34
									C126.06-5.45,127.7-3.5,127.7-1.11z"/>
								<path class="st8" d="M143.11-12.4c0,2.4-1.64,4.35-3.67,4.35c-2.03,0-3.67-1.94-3.67-4.35c0-2.4,1.64-4.34,3.67-4.34
									C141.47-16.74,143.11-14.8,143.11-12.4z"/>
								<path class="st8" d="M127.7,17.78c0,2.4-1.64,4.34-3.67,4.34c-2.03,0-3.67-1.94-3.67-4.34c0-2.4,1.64-4.34,3.67-4.34
									C126.06,13.44,127.7,15.39,127.7,17.78z"/>
								<path class="st8" d="M143.11,6.49c0,2.4-1.64,4.34-3.67,4.34c-2.03,0-3.67-1.94-3.67-4.34c0-2.4,1.64-4.34,3.67-4.34
									C141.47,2.15,143.11,4.1,143.11,6.49z"/>
								<path class="st8" d="M127.7,36.02c0,2.4-1.64,4.34-3.67,4.34c-2.03,0-3.67-1.94-3.67-4.34c0-2.4,1.64-4.34,3.67-4.34
									C126.06,31.68,127.7,33.63,127.7,36.02z"/>
								<path class="st8" d="M143.11,24.73c0,2.4-1.64,4.34-3.67,4.34c-2.03,0-3.67-1.94-3.67-4.34c0-2.4,1.64-4.34,3.67-4.34
									C141.47,20.39,143.11,22.34,143.11,24.73z"/>
								<path class="st8" d="M159.07-19.35c0,2.4-1.64,4.35-3.67,4.35c-2.02,0-3.67-1.94-3.67-4.35c0-2.39,1.64-4.34,3.67-4.34
									C157.43-23.69,159.07-21.75,159.07-19.35z"/>
								<path class="st8" d="M174.49-30.63c0,2.39-1.64,4.34-3.66,4.34c-2.03,0-3.67-1.95-3.67-4.34c0-2.4,1.64-4.35,3.67-4.35
									C172.85-34.98,174.49-33.04,174.49-30.63z"/>
								<path class="st8" d="M159.07-1.11c0,2.4-1.64,4.34-3.67,4.34c-2.02,0-3.67-1.94-3.67-4.34c0-2.4,1.64-4.34,3.67-4.34
									C157.43-5.45,159.07-3.5,159.07-1.11z"/>
								<path class="st8" d="M174.49-12.4c0,2.4-1.64,4.35-3.66,4.35c-2.03,0-3.67-1.94-3.67-4.35c0-2.4,1.64-4.34,3.67-4.34
									C172.85-16.74,174.49-14.8,174.49-12.4z"/>
								<path class="st8" d="M159.07,17.78c0,2.4-1.64,4.34-3.67,4.34c-2.02,0-3.67-1.94-3.67-4.34c0-2.4,1.64-4.34,3.67-4.34
									C157.43,13.44,159.07,15.39,159.07,17.78z"/>
								<path class="st8" d="M174.49,6.49c0,2.4-1.64,4.34-3.66,4.34c-2.03,0-3.67-1.94-3.67-4.34c0-2.4,1.64-4.34,3.67-4.34
									C172.85,2.15,174.49,4.1,174.49,6.49z"/>
								<path class="st8" d="M159.07,36.02c0,2.4-1.64,4.34-3.67,4.34c-2.02,0-3.67-1.94-3.67-4.34c0-2.4,1.64-4.34,3.67-4.34
									C157.43,31.68,159.07,33.63,159.07,36.02z"/>
								<path class="st8" d="M174.49,24.73c0,2.4-1.64,4.34-3.66,4.34c-2.03,0-3.67-1.94-3.67-4.34c0-2.4,1.64-4.34,3.67-4.34
									C172.85,20.39,174.49,22.34,174.49,24.73z"/>
								<path class="st8" d="M188.8-19.35c0,2.4-1.64,4.35-3.67,4.35c-2.03,0-3.67-1.94-3.67-4.35c0-2.39,1.64-4.34,3.67-4.34
									C187.16-23.69,188.8-21.75,188.8-19.35z"/>
								<path class="st8" d="M188.8-1.11c0,2.4-1.64,4.34-3.67,4.34c-2.03,0-3.67-1.94-3.67-4.34c0-2.4,1.64-4.34,3.67-4.34
									C187.16-5.45,188.8-3.5,188.8-1.11z"/>
								<path class="st8" d="M188.8,17.78c0,2.4-1.64,4.34-3.67,4.34c-2.03,0-3.67-1.94-3.67-4.34c0-2.4,1.64-4.34,3.67-4.34
									C187.16,13.44,188.8,15.39,188.8,17.78z"/>
								<path class="st8" d="M188.8,36.02c0,2.4-1.64,4.34-3.67,4.34c-2.03,0-3.67-1.94-3.67-4.34c0-2.4,1.64-4.34,3.67-4.34
									C187.16,31.68,188.8,33.63,188.8,36.02z"/>
								<path class="st8" d="M127.7,54.26c0,2.4-1.64,4.35-3.67,4.35c-2.03,0-3.67-1.94-3.67-4.35c0-2.4,1.64-4.34,3.67-4.34
									C126.06,49.92,127.7,51.87,127.7,54.26z"/>
								<path class="st8" d="M143.11,42.98c0,2.4-1.64,4.34-3.67,4.34c-2.03,0-3.67-1.95-3.67-4.34c0-2.4,1.64-4.34,3.67-4.34
									C141.47,38.63,143.11,40.58,143.11,42.98z"/>
								<path class="st8" d="M127.7,72.5c0,2.4-1.64,4.35-3.67,4.35c-2.03,0-3.67-1.95-3.67-4.35c0-2.4,1.64-4.34,3.67-4.34
									C126.06,68.16,127.7,70.11,127.7,72.5z"/>
								<path class="st8" d="M143.11,61.21c0,2.4-1.64,4.35-3.67,4.35c-2.03,0-3.67-1.95-3.67-4.35c0-2.39,1.64-4.34,3.67-4.34
									C141.47,56.88,143.11,58.82,143.11,61.21z"/>
								<path class="st8" d="M127.7,91.4c0,2.4-1.64,4.34-3.67,4.34c-2.03,0-3.67-1.94-3.67-4.34c0-2.4,1.64-4.34,3.67-4.34
									C126.06,87.05,127.7,89,127.7,91.4z"/>
								<path class="st8" d="M143.11,80.11c0,2.4-1.64,4.35-3.67,4.35c-2.03,0-3.67-1.94-3.67-4.35c0-2.4,1.64-4.34,3.67-4.34
									C141.47,75.77,143.11,77.71,143.11,80.11z"/>
								<path class="st8" d="M127.7,109.64c0,2.4-1.64,4.35-3.67,4.35c-2.03,0-3.67-1.94-3.67-4.35c0-2.39,1.64-4.34,3.67-4.34
									C126.06,105.3,127.7,107.24,127.7,109.64z"/>
								<path class="st8" d="M143.11,98.35c0,2.4-1.64,4.35-3.67,4.35c-2.03,0-3.67-1.95-3.67-4.35c0-2.39,1.64-4.34,3.67-4.34
									C141.47,94.01,143.11,95.95,143.11,98.35z"/>
								<path class="st8" d="M159.07,54.26c0,2.4-1.64,4.35-3.67,4.35c-2.02,0-3.67-1.94-3.67-4.35c0-2.4,1.64-4.34,3.67-4.34
									C157.43,49.92,159.07,51.87,159.07,54.26z"/>
								<path class="st8" d="M174.49,42.98c0,2.4-1.64,4.34-3.66,4.34c-2.03,0-3.67-1.95-3.67-4.34c0-2.4,1.64-4.34,3.67-4.34
									C172.85,38.63,174.49,40.58,174.49,42.98z"/>
								<path class="st8" d="M159.07,72.5c0,2.4-1.64,4.35-3.67,4.35c-2.02,0-3.67-1.95-3.67-4.35c0-2.4,1.64-4.34,3.67-4.34
									C157.43,68.16,159.07,70.11,159.07,72.5z"/>
								<path class="st8" d="M174.49,61.21c0,2.4-1.64,4.35-3.66,4.35c-2.03,0-3.67-1.95-3.67-4.35c0-2.39,1.64-4.34,3.67-4.34
									C172.85,56.88,174.49,58.82,174.49,61.21z"/>
								<path class="st8" d="M159.07,91.4c0,2.4-1.64,4.34-3.67,4.34c-2.02,0-3.67-1.94-3.67-4.34c0-2.4,1.64-4.34,3.67-4.34
									C157.43,87.05,159.07,89,159.07,91.4z"/>
								<path class="st8" d="M174.49,80.11c0,2.4-1.64,4.35-3.66,4.35c-2.03,0-3.67-1.94-3.67-4.35c0-2.4,1.64-4.34,3.67-4.34
									C172.85,75.77,174.49,77.71,174.49,80.11z"/>
								<path class="st8" d="M159.07,109.64c0,2.4-1.64,4.35-3.67,4.35c-2.02,0-3.67-1.94-3.67-4.35c0-2.39,1.64-4.34,3.67-4.34
									C157.43,105.3,159.07,107.24,159.07,109.64z"/>
								<path class="st8" d="M174.49,98.35c0,2.4-1.64,4.35-3.66,4.35c-2.03,0-3.67-1.95-3.67-4.35c0-2.39,1.64-4.34,3.67-4.34
									C172.85,94.01,174.49,95.95,174.49,98.35z"/>
								<path class="st8" d="M188.8,54.26c0,2.4-1.64,4.35-3.67,4.35c-2.03,0-3.67-1.94-3.67-4.35c0-2.4,1.64-4.34,3.67-4.34
									C187.16,49.92,188.8,51.87,188.8,54.26z"/>
								<path class="st8" d="M188.8,72.5c0,2.4-1.64,4.35-3.67,4.35c-2.03,0-3.67-1.95-3.67-4.35c0-2.4,1.64-4.34,3.67-4.34
									C187.16,68.16,188.8,70.11,188.8,72.5z"/>
								<path class="st8" d="M188.8,91.4c0,2.4-1.64,4.34-3.67,4.34c-2.03,0-3.67-1.94-3.67-4.34c0-2.4,1.64-4.34,3.67-4.34
									C187.16,87.05,188.8,89,188.8,91.4z"/>
								<path class="st8" d="M188.8,109.64c0,2.4-1.64,4.35-3.67,4.35c-2.03,0-3.67-1.94-3.67-4.35c0-2.39,1.64-4.34,3.67-4.34
									C187.16,105.3,188.8,107.24,188.8,109.64z"/>
								<path class="st8" d="M3.12,128.53c0,2.4-1.64,4.34-3.67,4.34c-2.03,0-3.67-1.95-3.67-4.34c0-2.4,1.64-4.35,3.67-4.35
									C1.48,124.19,3.12,126.13,3.12,128.53z"/>
								<path class="st8" d="M18.53,117.24c0,2.4-1.64,4.34-3.67,4.34s-3.67-1.95-3.67-4.34c0-2.4,1.64-4.34,3.67-4.34
									S18.53,114.85,18.53,117.24z"/>
								<path class="st8" d="M3.12,146.77c0,2.4-1.64,4.34-3.67,4.34c-2.03,0-3.67-1.94-3.67-4.34c0-2.4,1.64-4.34,3.67-4.34
									C1.48,142.43,3.12,144.37,3.12,146.77z"/>
								<path class="st8" d="M18.53,135.48c0,2.4-1.64,4.35-3.67,4.35s-3.67-1.95-3.67-4.35c0-2.39,1.64-4.34,3.67-4.34
									S18.53,133.09,18.53,135.48z"/>
								<path class="st8" d="M34.49,128.53c0,2.4-1.64,4.34-3.67,4.34c-2.03,0-3.67-1.95-3.67-4.34c0-2.4,1.64-4.35,3.67-4.35
									C32.85,124.19,34.49,126.13,34.49,128.53z"/>
								<path class="st8" d="M49.91,117.24c0,2.4-1.64,4.34-3.67,4.34c-2.02,0-3.67-1.95-3.67-4.34c0-2.4,1.64-4.34,3.67-4.34
									C48.26,112.9,49.91,114.85,49.91,117.24z"/>
								<path class="st8" d="M34.49,146.77c0,2.4-1.64,4.34-3.67,4.34c-2.03,0-3.67-1.94-3.67-4.34c0-2.4,1.64-4.34,3.67-4.34
									C32.85,142.43,34.49,144.37,34.49,146.77z"/>
								<path class="st8" d="M49.91,135.48c0,2.4-1.64,4.35-3.67,4.35c-2.02,0-3.67-1.95-3.67-4.35c0-2.39,1.64-4.34,3.67-4.34
									C48.26,131.14,49.91,133.09,49.91,135.48z"/>
								<path class="st8" d="M64.22,128.53c0,2.4-1.64,4.34-3.67,4.34c-2.03,0-3.67-1.95-3.67-4.34c0-2.4,1.64-4.35,3.67-4.35
									C62.57,124.19,64.22,126.13,64.22,128.53z"/>
								<path class="st8" d="M79.63,117.24c0,2.4-1.64,4.34-3.67,4.34c-2.03,0-3.67-1.95-3.67-4.34c0-2.4,1.64-4.34,3.67-4.34
									C77.99,112.9,79.63,114.85,79.63,117.24z"/>
								<path class="st8" d="M64.22,146.77c0,2.4-1.64,4.34-3.67,4.34c-2.03,0-3.67-1.94-3.67-4.34c0-2.4,1.64-4.34,3.67-4.34
									C62.57,142.43,64.22,144.37,64.22,146.77z"/>
								<path class="st8" d="M79.63,135.48c0,2.4-1.64,4.35-3.67,4.35c-2.03,0-3.67-1.95-3.67-4.35c0-2.39,1.64-4.34,3.67-4.34
									C77.99,131.14,79.63,133.09,79.63,135.48z"/>
								<path class="st8" d="M95.59,128.53c0,2.4-1.64,4.34-3.67,4.34c-2.02,0-3.66-1.95-3.66-4.34c0-2.4,1.64-4.35,3.66-4.35
									C93.95,124.19,95.59,126.13,95.59,128.53z"/>
								<path class="st8" d="M111,117.24c0,2.4-1.64,4.34-3.67,4.34c-2.02,0-3.67-1.95-3.67-4.34c0-2.4,1.65-4.34,3.67-4.34
									C109.36,112.9,111,114.85,111,117.24z"/>
								<path class="st8" d="M95.59,146.77c0,2.4-1.64,4.34-3.67,4.34c-2.02,0-3.66-1.94-3.66-4.34c0-2.4,1.64-4.34,3.66-4.34
									C93.95,142.43,95.59,144.37,95.59,146.77z"/>
								<path class="st8" d="M111,135.48c0,2.4-1.64,4.35-3.67,4.35c-2.02,0-3.67-1.95-3.67-4.35c0-2.39,1.65-4.34,3.67-4.34
									C109.36,131.14,111,133.09,111,135.48z"/>
								<path class="st8" d="M127.7,128.53c0,2.4-1.64,4.34-3.67,4.34c-2.03,0-3.67-1.95-3.67-4.34c0-2.4,1.64-4.35,3.67-4.35
									C126.06,124.19,127.7,126.13,127.7,128.53z"/>
								<path class="st8" d="M143.11,117.24c0,2.4-1.64,4.34-3.67,4.34c-2.03,0-3.67-1.95-3.67-4.34c0-2.4,1.64-4.34,3.67-4.34
									C141.47,112.9,143.11,114.85,143.11,117.24z"/>
								<path class="st8" d="M127.7,146.77c0,2.4-1.64,4.34-3.67,4.34c-2.03,0-3.67-1.94-3.67-4.34c0-2.4,1.64-4.34,3.67-4.34
									C126.06,142.43,127.7,144.37,127.7,146.77z"/>
								<path class="st8" d="M143.11,135.48c0,2.4-1.64,4.35-3.67,4.35c-2.03,0-3.67-1.95-3.67-4.35c0-2.39,1.64-4.34,3.67-4.34
									C141.47,131.14,143.11,133.09,143.11,135.48z"/>
								<path class="st8" d="M159.07,128.53c0,2.4-1.64,4.34-3.67,4.34c-2.02,0-3.67-1.95-3.67-4.34c0-2.4,1.64-4.35,3.67-4.35
									C157.43,124.19,159.07,126.13,159.07,128.53z"/>
								<path class="st8" d="M174.49,117.24c0,2.4-1.64,4.34-3.66,4.34c-2.03,0-3.67-1.95-3.67-4.34c0-2.4,1.64-4.34,3.67-4.34
									C172.85,112.9,174.49,114.85,174.49,117.24z"/>
								<path class="st8" d="M159.07,146.77c0,2.4-1.64,4.34-3.67,4.34c-2.02,0-3.67-1.94-3.67-4.34c0-2.4,1.64-4.34,3.67-4.34
									C157.43,142.43,159.07,144.37,159.07,146.77z"/>
								<path class="st8" d="M174.49,135.48c0,2.4-1.64,4.35-3.66,4.35c-2.03,0-3.67-1.95-3.67-4.35c0-2.39,1.64-4.34,3.67-4.34
									C172.85,131.14,174.49,133.09,174.49,135.48z"/>
								<path class="st8" d="M188.8,128.53c0,2.4-1.64,4.34-3.67,4.34c-2.03,0-3.67-1.95-3.67-4.34c0-2.4,1.64-4.35,3.67-4.35
									C187.16,124.19,188.8,126.13,188.8,128.53z"/>
								<path class="st8" d="M188.8,146.77c0,2.4-1.64,4.34-3.67,4.34c-2.03,0-3.67-1.94-3.67-4.34c0-2.4,1.64-4.34,3.67-4.34
									C187.16,142.43,188.8,144.37,188.8,146.77z"/>
								<path class="st8" d="M3.12,162.19c0,2.4-1.64,4.35-3.67,4.35c-2.03,0-3.67-1.95-3.67-4.35c0-2.4,1.64-4.35,3.67-4.35
									C1.48,157.85,3.12,159.8,3.12,162.19z"/>
								<path class="st8" d="M18.53,150.9c0,2.4-1.64,4.35-3.67,4.35s-3.67-1.95-3.67-4.35c0-2.4,1.64-4.34,3.67-4.34
									S18.53,148.51,18.53,150.9z"/>
								<path class="st8" d="M34.49,162.19c0,2.4-1.64,4.35-3.67,4.35c-2.03,0-3.67-1.95-3.67-4.35c0-2.4,1.64-4.35,3.67-4.35
									C32.85,157.85,34.49,159.8,34.49,162.19z"/>
								<path class="st8" d="M49.91,150.9c0,2.4-1.64,4.35-3.67,4.35c-2.02,0-3.67-1.95-3.67-4.35c0-2.4,1.64-4.34,3.67-4.34
									C48.26,146.56,49.91,148.51,49.91,150.9z"/>
								<path class="st8" d="M64.22,162.19c0,2.4-1.64,4.35-3.67,4.35c-2.03,0-3.67-1.95-3.67-4.35c0-2.4,1.64-4.35,3.67-4.35
									C62.57,157.85,64.22,159.8,64.22,162.19z"/>
								<path class="st8" d="M79.63,150.9c0,2.4-1.64,4.35-3.67,4.35c-2.03,0-3.67-1.95-3.67-4.35c0-2.4,1.64-4.34,3.67-4.34
									C77.99,146.56,79.63,148.51,79.63,150.9z"/>
								<path class="st8" d="M95.59,162.19c0,2.4-1.64,4.35-3.67,4.35c-2.02,0-3.66-1.95-3.66-4.35c0-2.4,1.64-4.35,3.66-4.35
									C93.95,157.85,95.59,159.8,95.59,162.19z"/>
								<path class="st8" d="M111,150.9c0,2.4-1.64,4.35-3.67,4.35c-2.02,0-3.67-1.95-3.67-4.35c0-2.4,1.65-4.34,3.67-4.34
									C109.36,146.56,111,148.51,111,150.9z"/>
								<path class="st8" d="M127.7,162.19c0,2.4-1.64,4.35-3.67,4.35c-2.03,0-3.67-1.95-3.67-4.35c0-2.4,1.64-4.35,3.67-4.35
									C126.06,157.85,127.7,159.8,127.7,162.19z"/>
								<path class="st8" d="M143.11,150.9c0,2.4-1.64,4.35-3.67,4.35c-2.03,0-3.67-1.95-3.67-4.35c0-2.4,1.64-4.34,3.67-4.34
									C141.47,146.56,143.11,148.51,143.11,150.9z"/>
								<path class="st8" d="M159.07,162.19c0,2.4-1.64,4.35-3.67,4.35c-2.02,0-3.67-1.95-3.67-4.35c0-2.4,1.64-4.35,3.67-4.35
									C157.43,157.85,159.07,159.8,159.07,162.19z"/>
								<path class="st8" d="M174.49,150.9c0,2.4-1.64,4.35-3.66,4.35c-2.03,0-3.67-1.95-3.67-4.35c0-2.4,1.64-4.34,3.67-4.34
									C172.85,146.56,174.49,148.51,174.49,150.9z"/>
								<path class="st8" d="M188.8,162.19c0,2.4-1.64,4.35-3.67,4.35c-2.03,0-3.67-1.95-3.67-4.35c0-2.4,1.64-4.35,3.67-4.35
									C187.16,157.85,188.8,159.8,188.8,162.19z"/>
							</g>
						</g>
					</g>
				</g>
			</g>
		</g>
	</g>
	<polygon class="st9" points="184,147.73 1.07,148.61 0.73,-33.19 183.66,-34.08 	"/>
</g>
</svg>
